M48
; DRILL file {KiCad (5.1.6)-1} date 12/03/20 13:02:34
; FORMAT={-:-/ absolute / metric / decimal}
; #@! TF.CreationDate,2020-12-03T13:02:34+08:00
; #@! TF.GenerationSoftware,Kicad,Pcbnew,(5.1.6)-1
; #@! TF.FileFunction,Plated,1,2,PTH
FMAT,2
METRIC
T1C0.300
T2C0.400
T3C0.899
T4C1.000
T5C1.200
T6C3.200
%
G90
G05
T1
X180.0Y-108.2
X183.1Y-102.5
X183.7Y-102.5
X184.3Y-102.5
X186.6Y-107.5
X187.5Y-96.8
X188.2Y-96.2
X189.4Y-96.0
X191.5Y-111.4
X202.3Y-113.8
X203.0Y-114.9
T2
X173.1Y-105.4
X174.2Y-99.6
X174.3Y-108.8
X175.5Y-97.1
X177.4Y-109.9
X177.7Y-96.6
X180.0Y-107.1
X180.1Y-103.0
X180.4Y-99.4
X180.5Y-105.5
X181.0Y-108.3
X181.6Y-98.4
X181.7Y-107.6
X182.2Y-111.3
X182.3Y-97.6
X184.0Y-97.1
X185.05Y-89.135
X185.05Y-90.405
X185.5Y-93.2
X185.6Y-98.3
X186.9Y-93.1
X188.0Y-100.4
X188.0Y-105.3
X190.6Y-106.0
X191.2Y-102.3
T3
X166.0Y-107.75
X166.0Y-115.25
X166.0Y-89.75
X166.0Y-97.25
T4
X187.88Y-117.5
X190.42Y-117.5
X192.96Y-117.5
X195.5Y-117.5
X198.04Y-117.5
T5
X198.0Y-97.0
X198.0Y-100.5
X198.0Y-104.0
X198.0Y-107.5
T6
X203.0Y-119.0
X203.0Y-86.0
X163.0Y-86.0
X163.0Y-119.0
T0
M30
