%TF.GenerationSoftware,KiCad,Pcbnew,(5.1.6)-1*%
%TF.CreationDate,2020-12-03T13:02:19+08:00*%
%TF.ProjectId,SuperCap_UPS,53757065-7243-4617-905f-5550532e6b69,rev?*%
%TF.SameCoordinates,Original*%
%TF.FileFunction,Copper,L2,Bot*%
%TF.FilePolarity,Positive*%
%FSLAX46Y46*%
G04 Gerber Fmt 4.6, Leading zero omitted, Abs format (unit mm)*
G04 Created by KiCad (PCBNEW (5.1.6)-1) date 2020-12-03 13:02:19*
%MOMM*%
%LPD*%
G01*
G04 APERTURE LIST*
%TA.AperFunction,ComponentPad*%
%ADD10O,1.700000X1.700000*%
%TD*%
%TA.AperFunction,ComponentPad*%
%ADD11R,1.700000X1.700000*%
%TD*%
%TA.AperFunction,ComponentPad*%
%ADD12C,5.000000*%
%TD*%
%TA.AperFunction,ComponentPad*%
%ADD13O,3.600000X1.800000*%
%TD*%
%TA.AperFunction,ComponentPad*%
%ADD14C,1.651000*%
%TD*%
%TA.AperFunction,ViaPad*%
%ADD15C,0.800000*%
%TD*%
%TA.AperFunction,ViaPad*%
%ADD16C,0.600000*%
%TD*%
%TA.AperFunction,Conductor*%
%ADD17C,0.304800*%
%TD*%
%TA.AperFunction,Conductor*%
%ADD18C,0.762000*%
%TD*%
%TA.AperFunction,Conductor*%
%ADD19C,0.200000*%
%TD*%
%TA.AperFunction,Conductor*%
%ADD20C,0.254000*%
%TD*%
G04 APERTURE END LIST*
D10*
%TO.P,J2,5*%
%TO.N,Net-(J2-Pad5)*%
X198040000Y-117500000D03*
%TO.P,J2,4*%
%TO.N,Net-(J2-Pad4)*%
X195500000Y-117500000D03*
%TO.P,J2,3*%
%TO.N,Net-(J2-Pad3)*%
X192960000Y-117500000D03*
%TO.P,J2,2*%
%TO.N,Net-(J2-Pad2)*%
X190420000Y-117500000D03*
D11*
%TO.P,J2,1*%
%TO.N,Net-(J2-Pad1)*%
X187880000Y-117500000D03*
%TD*%
D12*
%TO.P,REF\u002A\u002A,*%
%TO.N,*%
X163000000Y-86000000D03*
%TD*%
%TO.P,REF\u002A\u002A,*%
%TO.N,*%
X163000000Y-119000000D03*
%TD*%
%TO.P,REF\u002A\u002A,*%
%TO.N,*%
X203000000Y-119000000D03*
%TD*%
%TO.P,REF\u002A\u002A,*%
%TO.N,*%
X203000000Y-86000000D03*
%TD*%
D13*
%TO.P,J1,4*%
%TO.N,Vin*%
X198000000Y-97000000D03*
%TO.P,J1,3*%
%TO.N,GND*%
X198000000Y-100500000D03*
%TO.P,J1,2*%
X198000000Y-104000000D03*
%TO.P,J1,1*%
%TO.N,Vout*%
%TA.AperFunction,ComponentPad*%
G36*
G01*
X199550000Y-108400000D02*
X196450000Y-108400000D01*
G75*
G02*
X196200000Y-108150000I0J250000D01*
G01*
X196200000Y-106850000D01*
G75*
G02*
X196450000Y-106600000I250000J0D01*
G01*
X199550000Y-106600000D01*
G75*
G02*
X199800000Y-106850000I0J-250000D01*
G01*
X199800000Y-108150000D01*
G75*
G02*
X199550000Y-108400000I-250000J0D01*
G01*
G37*
%TD.AperFunction*%
%TD*%
D14*
%TO.P,C2,1*%
%TO.N,Net-(C1-Pad2)*%
X166000000Y-115250000D03*
%TO.P,C2,2*%
%TO.N,GND*%
X166000000Y-107750000D03*
%TD*%
%TO.P,C1,1*%
%TO.N,Net-(C1-Pad1)*%
X166000000Y-97250000D03*
%TO.P,C1,2*%
%TO.N,Net-(C1-Pad2)*%
X166000000Y-89750000D03*
%TD*%
D15*
%TO.N,Net-(C1-Pad1)*%
X180100000Y-103000000D03*
X173100000Y-105400000D03*
%TO.N,Net-(L1-Pad1)*%
X174200000Y-99600000D03*
X180400000Y-99400000D03*
D16*
%TO.N,GND*%
X184300000Y-102500000D03*
X183100000Y-102500000D03*
D15*
X185500000Y-93200000D03*
X181000000Y-108300000D03*
X181700000Y-107600000D03*
D16*
X183700000Y-102500000D03*
D15*
%TO.N,Net-(C3-Pad1)*%
X182200000Y-111300000D03*
X191200000Y-102300000D03*
%TO.N,Net-(Q1-Pad1)*%
X186900000Y-93100000D03*
X185050000Y-90405000D03*
%TO.N,Net-(Q2-Pad2)*%
X185050000Y-89135000D03*
X188000000Y-105300000D03*
%TO.N,Net-(R1-Pad2)*%
X177700000Y-96600000D03*
X184000000Y-97100000D03*
%TO.N,Net-(R2-Pad1)*%
X175500000Y-97100000D03*
X181600000Y-98400000D03*
%TO.N,Net-(R5-Pad1)*%
X177400000Y-109900000D03*
X180000000Y-107100000D03*
%TO.N,Net-(R6-Pad2)*%
X182300000Y-97600000D03*
X185600000Y-98300000D03*
%TO.N,Net-(R8-Pad2)*%
X188000000Y-100400000D03*
X174300000Y-108800000D03*
%TO.N,Vout*%
X190600000Y-106000000D03*
X180500000Y-105500000D03*
D16*
%TO.N,Net-(J2-Pad5)*%
X187500000Y-96800000D03*
%TO.N,Net-(J2-Pad4)*%
X189400000Y-96000000D03*
X202300000Y-113800000D03*
%TO.N,Net-(J2-Pad3)*%
X188200000Y-96200000D03*
X203000000Y-114900000D03*
%TO.N,Net-(J2-Pad2)*%
X180000000Y-108200000D03*
%TO.N,Net-(J2-Pad1)*%
X186600000Y-107500000D03*
X191500000Y-111400000D03*
%TD*%
D17*
%TO.N,Net-(C1-Pad1)*%
X179700001Y-103399999D02*
X179700001Y-106199999D01*
X180100000Y-103000000D02*
X179700001Y-103399999D01*
X179700001Y-106199999D02*
X179500000Y-106400000D01*
X179500000Y-106400000D02*
X179100000Y-106400000D01*
X179100000Y-106400000D02*
X176500000Y-109000000D01*
X176413908Y-109000000D02*
X175413908Y-110000000D01*
X176500000Y-109000000D02*
X176413908Y-109000000D01*
X175413908Y-110000000D02*
X174100000Y-110000000D01*
X174100000Y-110000000D02*
X173100000Y-109000000D01*
X173100000Y-109000000D02*
X173100000Y-107900000D01*
X173100000Y-107900000D02*
X173100000Y-105400000D01*
X173100000Y-105400000D02*
X173100000Y-105400000D01*
%TO.N,Net-(L1-Pad1)*%
X174200000Y-99600000D02*
X174600000Y-99200000D01*
X180200000Y-99200000D02*
X180400000Y-99400000D01*
X174600000Y-99200000D02*
X180200000Y-99200000D01*
%TO.N,Net-(C3-Pad1)*%
X182200000Y-112300000D02*
X182200000Y-111300000D01*
X183100000Y-113200000D02*
X182200000Y-112300000D01*
X193800000Y-102300000D02*
X195000000Y-103500000D01*
X195000000Y-103500000D02*
X195000000Y-111300000D01*
X195000000Y-111300000D02*
X193100000Y-113200000D01*
X191200000Y-102300000D02*
X193800000Y-102300000D01*
X193100000Y-113200000D02*
X183100000Y-113200000D01*
%TO.N,Net-(Q1-Pad1)*%
X185050000Y-91250000D02*
X186900000Y-93100000D01*
X185050000Y-90405000D02*
X185050000Y-91250000D01*
D18*
%TO.N,Net-(Q2-Pad2)*%
X183666590Y-95866590D02*
X184866590Y-95866590D01*
X182900000Y-95100000D02*
X183666590Y-95866590D01*
X184866590Y-95866590D02*
X186800000Y-97800000D01*
X186800000Y-97800000D02*
X187900000Y-97800000D01*
X187900000Y-97800000D02*
X189100000Y-99000000D01*
X189100000Y-104200000D02*
X188000000Y-105300000D01*
X189100000Y-99000000D02*
X189100000Y-104200000D01*
X188000000Y-105300000D02*
X188000000Y-105300000D01*
X182900000Y-89798000D02*
X182900000Y-95100000D01*
X183563000Y-89135000D02*
X182900000Y-89798000D01*
X185050000Y-89135000D02*
X183563000Y-89135000D01*
D17*
%TO.N,Net-(R1-Pad2)*%
X177700000Y-96600000D02*
X177700000Y-96800000D01*
X177700000Y-96600000D02*
X183500000Y-96600000D01*
X183500000Y-96600000D02*
X184000000Y-97100000D01*
X184000000Y-97100000D02*
X184000000Y-97100000D01*
%TO.N,Net-(R2-Pad1)*%
X175500000Y-97100000D02*
X176200000Y-97100000D01*
X176200000Y-97100000D02*
X176800000Y-97700000D01*
X176800000Y-97700000D02*
X180900000Y-97700000D01*
X180900000Y-97700000D02*
X181600000Y-98400000D01*
X181600000Y-98400000D02*
X181600000Y-98400000D01*
%TO.N,Net-(R5-Pad1)*%
X180000000Y-107100000D02*
X180000000Y-107100000D01*
X177400000Y-109700000D02*
X177400000Y-109900000D01*
X180000000Y-107100000D02*
X177400000Y-109700000D01*
%TO.N,Net-(R6-Pad2)*%
X183000000Y-98300000D02*
X185600000Y-98300000D01*
X182300000Y-97600000D02*
X183000000Y-98300000D01*
%TO.N,Net-(R8-Pad2)*%
X174300000Y-108800000D02*
X174300000Y-108800000D01*
X187600000Y-99200000D02*
X188000000Y-99600000D01*
X175900000Y-108800000D02*
X179100000Y-105600000D01*
X188000000Y-99600000D02*
X188000000Y-100400000D01*
X174300000Y-108800000D02*
X175900000Y-108800000D01*
X179100000Y-105600000D02*
X179100000Y-101800000D01*
X179100000Y-101800000D02*
X181700000Y-99200000D01*
X181700000Y-99200000D02*
X187600000Y-99200000D01*
D18*
%TO.N,Vout*%
X190600000Y-106000000D02*
X189000000Y-106000000D01*
X189000000Y-106000000D02*
X188500000Y-106500000D01*
X188500000Y-106500000D02*
X181500000Y-106500000D01*
X181500000Y-106500000D02*
X180500000Y-105500000D01*
X180500000Y-105500000D02*
X180500000Y-105500000D01*
D19*
%TO.N,Net-(J2-Pad5)*%
X199300000Y-117500000D02*
X198040000Y-117500000D01*
X201600000Y-115200000D02*
X199300000Y-117500000D01*
X193500000Y-96800000D02*
X195500000Y-98800000D01*
X195500000Y-98800000D02*
X200500000Y-98800000D01*
X200500000Y-98800000D02*
X201600000Y-99900000D01*
X187500000Y-96800000D02*
X193500000Y-96800000D01*
X201600000Y-99900000D02*
X201600000Y-115200000D01*
%TO.N,Net-(J2-Pad4)*%
X189400000Y-96000000D02*
X189800000Y-96400000D01*
X189800000Y-96400000D02*
X194900000Y-96400000D01*
X194900000Y-96400000D02*
X195800000Y-95500000D01*
X199097070Y-95500000D02*
X202300000Y-98702930D01*
X195800000Y-95500000D02*
X199097070Y-95500000D01*
X202300000Y-98702930D02*
X202300000Y-113800000D01*
X202300000Y-113800000D02*
X202300000Y-113800000D01*
%TO.N,Net-(J2-Pad3)*%
X188200000Y-96200000D02*
X189000001Y-95399999D01*
X189688001Y-95399999D02*
X190288002Y-96000000D01*
X189000001Y-95399999D02*
X189688001Y-95399999D01*
X190288002Y-96000000D02*
X194600000Y-96000000D01*
X194600000Y-96000000D02*
X195500010Y-95099990D01*
X195500010Y-95099990D02*
X199499990Y-95099990D01*
X199499990Y-95099990D02*
X203000000Y-98600000D01*
X203000000Y-98600000D02*
X203000000Y-114900000D01*
X203000000Y-114900000D02*
X203000000Y-114900000D01*
%TO.N,Net-(J2-Pad2)*%
X180000000Y-108200000D02*
X180000000Y-117100000D01*
X180000000Y-117100000D02*
X182500000Y-119600000D01*
X182500000Y-119600000D02*
X189800000Y-119600000D01*
X190420000Y-118980000D02*
X190420000Y-117500000D01*
X189800000Y-119600000D02*
X190420000Y-118980000D01*
%TO.N,Net-(J2-Pad1)*%
X186600000Y-107500000D02*
X187600000Y-107500000D01*
X187600000Y-107500000D02*
X191500000Y-111400000D01*
X191500000Y-111400000D02*
X191500000Y-111400000D01*
%TD*%
D20*
%TO.N,GND*%
G36*
X202768083Y-82731173D02*
G01*
X203257272Y-82865000D01*
X202691229Y-82865000D01*
X202085554Y-82985476D01*
X201515021Y-83221799D01*
X201001554Y-83564886D01*
X200564886Y-84001554D01*
X200221799Y-84515021D01*
X199985476Y-85085554D01*
X199865000Y-85691229D01*
X199865000Y-86308771D01*
X199985476Y-86914446D01*
X200221799Y-87484979D01*
X200564886Y-87998446D01*
X201001554Y-88435114D01*
X201515021Y-88778201D01*
X202085554Y-89014524D01*
X202691229Y-89135000D01*
X203308771Y-89135000D01*
X203914446Y-89014524D01*
X204484979Y-88778201D01*
X204998446Y-88435114D01*
X205435114Y-87998446D01*
X205778201Y-87484979D01*
X206014524Y-86914446D01*
X206135000Y-86308771D01*
X206135000Y-85717233D01*
X206292065Y-86371457D01*
X206340000Y-87024207D01*
X206340001Y-117970597D01*
X206268827Y-118768083D01*
X206135000Y-119257273D01*
X206135000Y-118691229D01*
X206014524Y-118085554D01*
X205778201Y-117515021D01*
X205435114Y-117001554D01*
X204998446Y-116564886D01*
X204484979Y-116221799D01*
X203914446Y-115985476D01*
X203308771Y-115865000D01*
X202691229Y-115865000D01*
X202085554Y-115985476D01*
X201690216Y-116149231D01*
X202094193Y-115745254D01*
X202122238Y-115722238D01*
X202214087Y-115610320D01*
X202274676Y-115496966D01*
X202403972Y-115626262D01*
X202557111Y-115728586D01*
X202727271Y-115799068D01*
X202907911Y-115835000D01*
X203092089Y-115835000D01*
X203272729Y-115799068D01*
X203442889Y-115728586D01*
X203596028Y-115626262D01*
X203726262Y-115496028D01*
X203828586Y-115342889D01*
X203899068Y-115172729D01*
X203935000Y-114992089D01*
X203935000Y-114807911D01*
X203899068Y-114627271D01*
X203828586Y-114457111D01*
X203735000Y-114317049D01*
X203735000Y-98636105D01*
X203738556Y-98600000D01*
X203724365Y-98455915D01*
X203682337Y-98317366D01*
X203614087Y-98189680D01*
X203545253Y-98105806D01*
X203545250Y-98105803D01*
X203522237Y-98077762D01*
X203494197Y-98054750D01*
X200045249Y-94605803D01*
X200022228Y-94577752D01*
X199910310Y-94485903D01*
X199782623Y-94417653D01*
X199644075Y-94375625D01*
X199536095Y-94364990D01*
X199499990Y-94361434D01*
X199463885Y-94364990D01*
X195536104Y-94364990D01*
X195500009Y-94361435D01*
X195463914Y-94364990D01*
X195463905Y-94364990D01*
X195355925Y-94375625D01*
X195217377Y-94417653D01*
X195089690Y-94485903D01*
X194977772Y-94577752D01*
X194954756Y-94605797D01*
X194295554Y-95265000D01*
X190592449Y-95265000D01*
X190233259Y-94905811D01*
X190210239Y-94877761D01*
X190098321Y-94785912D01*
X189970634Y-94717662D01*
X189832086Y-94675634D01*
X189724106Y-94664999D01*
X189688001Y-94661443D01*
X189651896Y-94664999D01*
X189036095Y-94664999D01*
X189000000Y-94661444D01*
X188963905Y-94664999D01*
X188963896Y-94664999D01*
X188855916Y-94675634D01*
X188717368Y-94717662D01*
X188589681Y-94785912D01*
X188477763Y-94877761D01*
X188454747Y-94905806D01*
X188092485Y-95268068D01*
X187927271Y-95300932D01*
X187757111Y-95371414D01*
X187603972Y-95473738D01*
X187473738Y-95603972D01*
X187371414Y-95757111D01*
X187319436Y-95882599D01*
X187227271Y-95900932D01*
X187057111Y-95971414D01*
X186903972Y-96073738D01*
X186773738Y-96203972D01*
X186720496Y-96283655D01*
X185620302Y-95183462D01*
X185588486Y-95144694D01*
X185433780Y-95017730D01*
X185257277Y-94923388D01*
X185065761Y-94865292D01*
X184916492Y-94850590D01*
X184866590Y-94845675D01*
X184816688Y-94850590D01*
X184087431Y-94850590D01*
X183916000Y-94679160D01*
X183916000Y-90218840D01*
X183983840Y-90151000D01*
X184045247Y-90151000D01*
X184015000Y-90303061D01*
X184015000Y-90506939D01*
X184054774Y-90706898D01*
X184132795Y-90895256D01*
X184246063Y-91064774D01*
X184262600Y-91081311D01*
X184262600Y-91211337D01*
X184258792Y-91250000D01*
X184262600Y-91288663D01*
X184262600Y-91288673D01*
X184273588Y-91400226D01*
X184273995Y-91404357D01*
X184319018Y-91552782D01*
X184319019Y-91552783D01*
X184392135Y-91689572D01*
X184490532Y-91809469D01*
X184520573Y-91834123D01*
X185865000Y-93178551D01*
X185865000Y-93201939D01*
X185904774Y-93401898D01*
X185982795Y-93590256D01*
X186096063Y-93759774D01*
X186240226Y-93903937D01*
X186409744Y-94017205D01*
X186598102Y-94095226D01*
X186798061Y-94135000D01*
X187001939Y-94135000D01*
X187201898Y-94095226D01*
X187390256Y-94017205D01*
X187559774Y-93903937D01*
X187703937Y-93759774D01*
X187817205Y-93590256D01*
X187895226Y-93401898D01*
X187935000Y-93201939D01*
X187935000Y-92998061D01*
X187895226Y-92798102D01*
X187817205Y-92609744D01*
X187703937Y-92440226D01*
X187559774Y-92296063D01*
X187390256Y-92182795D01*
X187201898Y-92104774D01*
X187001939Y-92065000D01*
X186978551Y-92065000D01*
X185903759Y-90990209D01*
X185967205Y-90895256D01*
X186045226Y-90706898D01*
X186085000Y-90506939D01*
X186085000Y-90303061D01*
X186045226Y-90103102D01*
X185967205Y-89914744D01*
X185870490Y-89770000D01*
X185967205Y-89625256D01*
X186045226Y-89436898D01*
X186085000Y-89236939D01*
X186085000Y-89033061D01*
X186045226Y-88833102D01*
X185967205Y-88644744D01*
X185853937Y-88475226D01*
X185709774Y-88331063D01*
X185540256Y-88217795D01*
X185351898Y-88139774D01*
X185151939Y-88100000D01*
X184948061Y-88100000D01*
X184852541Y-88119000D01*
X183612902Y-88119000D01*
X183563000Y-88114085D01*
X183513098Y-88119000D01*
X183363829Y-88133702D01*
X183172313Y-88191798D01*
X182995810Y-88286140D01*
X182841104Y-88413104D01*
X182809287Y-88451873D01*
X182216873Y-89044287D01*
X182178104Y-89076104D01*
X182051140Y-89230810D01*
X181956798Y-89407314D01*
X181920890Y-89525687D01*
X181898702Y-89598830D01*
X181879085Y-89798000D01*
X181884000Y-89847902D01*
X181884001Y-95050088D01*
X181879085Y-95100000D01*
X181898702Y-95299170D01*
X181955744Y-95487210D01*
X181956799Y-95490687D01*
X182051141Y-95667190D01*
X182170476Y-95812600D01*
X178376311Y-95812600D01*
X178359774Y-95796063D01*
X178190256Y-95682795D01*
X178001898Y-95604774D01*
X177801939Y-95565000D01*
X177598061Y-95565000D01*
X177398102Y-95604774D01*
X177209744Y-95682795D01*
X177040226Y-95796063D01*
X176896063Y-95940226D01*
X176782795Y-96109744D01*
X176704774Y-96298102D01*
X176670995Y-96467922D01*
X176639572Y-96442134D01*
X176502783Y-96369018D01*
X176354357Y-96323994D01*
X176238673Y-96312600D01*
X176238663Y-96312600D01*
X176200000Y-96308792D01*
X176174968Y-96311257D01*
X176159774Y-96296063D01*
X175990256Y-96182795D01*
X175801898Y-96104774D01*
X175601939Y-96065000D01*
X175398061Y-96065000D01*
X175198102Y-96104774D01*
X175009744Y-96182795D01*
X174840226Y-96296063D01*
X174696063Y-96440226D01*
X174582795Y-96609744D01*
X174504774Y-96798102D01*
X174465000Y-96998061D01*
X174465000Y-97201939D01*
X174504774Y-97401898D01*
X174582795Y-97590256D01*
X174696063Y-97759774D01*
X174840226Y-97903937D01*
X175009744Y-98017205D01*
X175198102Y-98095226D01*
X175398061Y-98135000D01*
X175601939Y-98135000D01*
X175801898Y-98095226D01*
X175990256Y-98017205D01*
X175998287Y-98011839D01*
X176215881Y-98229432D01*
X176240531Y-98259469D01*
X176270567Y-98284119D01*
X176270569Y-98284121D01*
X176311080Y-98317367D01*
X176360428Y-98357866D01*
X176462827Y-98412600D01*
X174638662Y-98412600D01*
X174599999Y-98408792D01*
X174561336Y-98412600D01*
X174561327Y-98412600D01*
X174445643Y-98423994D01*
X174297217Y-98469018D01*
X174160428Y-98542134D01*
X174132566Y-98565000D01*
X174098061Y-98565000D01*
X173898102Y-98604774D01*
X173709744Y-98682795D01*
X173540226Y-98796063D01*
X173396063Y-98940226D01*
X173282795Y-99109744D01*
X173204774Y-99298102D01*
X173165000Y-99498061D01*
X173165000Y-99701939D01*
X173204774Y-99901898D01*
X173282795Y-100090256D01*
X173396063Y-100259774D01*
X173540226Y-100403937D01*
X173709744Y-100517205D01*
X173898102Y-100595226D01*
X174098061Y-100635000D01*
X174301939Y-100635000D01*
X174501898Y-100595226D01*
X174690256Y-100517205D01*
X174859774Y-100403937D01*
X175003937Y-100259774D01*
X175117205Y-100090256D01*
X175159810Y-99987400D01*
X179547704Y-99987400D01*
X179596063Y-100059774D01*
X179661369Y-100125080D01*
X178570573Y-101215877D01*
X178540532Y-101240531D01*
X178515879Y-101270571D01*
X178442135Y-101360428D01*
X178369018Y-101497218D01*
X178323995Y-101645643D01*
X178308792Y-101800000D01*
X178312601Y-101838673D01*
X178312600Y-105273848D01*
X175573850Y-108012600D01*
X174976311Y-108012600D01*
X174959774Y-107996063D01*
X174790256Y-107882795D01*
X174601898Y-107804774D01*
X174401939Y-107765000D01*
X174198061Y-107765000D01*
X173998102Y-107804774D01*
X173887400Y-107850629D01*
X173887400Y-106076311D01*
X173903937Y-106059774D01*
X174017205Y-105890256D01*
X174095226Y-105701898D01*
X174135000Y-105501939D01*
X174135000Y-105298061D01*
X174095226Y-105098102D01*
X174017205Y-104909744D01*
X173903937Y-104740226D01*
X173759774Y-104596063D01*
X173590256Y-104482795D01*
X173401898Y-104404774D01*
X173201939Y-104365000D01*
X172998061Y-104365000D01*
X172798102Y-104404774D01*
X172609744Y-104482795D01*
X172440226Y-104596063D01*
X172296063Y-104740226D01*
X172182795Y-104909744D01*
X172104774Y-105098102D01*
X172065000Y-105298061D01*
X172065000Y-105501939D01*
X172104774Y-105701898D01*
X172182795Y-105890256D01*
X172296063Y-106059774D01*
X172312601Y-106076312D01*
X172312600Y-107938672D01*
X172312601Y-107938681D01*
X172312600Y-108961336D01*
X172308792Y-109000000D01*
X172312600Y-109038663D01*
X172312600Y-109038672D01*
X172323994Y-109154356D01*
X172369018Y-109302782D01*
X172442134Y-109439571D01*
X172540531Y-109559469D01*
X172570577Y-109584127D01*
X173515881Y-110529433D01*
X173540531Y-110559469D01*
X173570567Y-110584119D01*
X173570570Y-110584122D01*
X173660427Y-110657865D01*
X173660428Y-110657866D01*
X173797217Y-110730982D01*
X173945643Y-110776006D01*
X174061327Y-110787400D01*
X174061335Y-110787400D01*
X174100000Y-110791208D01*
X174138665Y-110787400D01*
X175375245Y-110787400D01*
X175413908Y-110791208D01*
X175452571Y-110787400D01*
X175452581Y-110787400D01*
X175568265Y-110776006D01*
X175716691Y-110730982D01*
X175853480Y-110657866D01*
X175973377Y-110559469D01*
X175998035Y-110529423D01*
X176391632Y-110135827D01*
X176404774Y-110201898D01*
X176482795Y-110390256D01*
X176596063Y-110559774D01*
X176740226Y-110703937D01*
X176909744Y-110817205D01*
X177098102Y-110895226D01*
X177298061Y-110935000D01*
X177501939Y-110935000D01*
X177701898Y-110895226D01*
X177890256Y-110817205D01*
X178059774Y-110703937D01*
X178203937Y-110559774D01*
X178317205Y-110390256D01*
X178395226Y-110201898D01*
X178435000Y-110001939D01*
X178435000Y-109798061D01*
X178431763Y-109781787D01*
X179265000Y-108948551D01*
X179265001Y-117063885D01*
X179261444Y-117100000D01*
X179275635Y-117244085D01*
X179308899Y-117353740D01*
X179317664Y-117382633D01*
X179385914Y-117510320D01*
X179477763Y-117622238D01*
X179505808Y-117645254D01*
X181954746Y-120094193D01*
X181977762Y-120122238D01*
X182089680Y-120214087D01*
X182217367Y-120282337D01*
X182355915Y-120324365D01*
X182500000Y-120338556D01*
X182536105Y-120335000D01*
X189763895Y-120335000D01*
X189800000Y-120338556D01*
X189836105Y-120335000D01*
X189892182Y-120329477D01*
X189944085Y-120324365D01*
X190082633Y-120282337D01*
X190210320Y-120214087D01*
X190322238Y-120122238D01*
X190345258Y-120094188D01*
X190914197Y-119525250D01*
X190942237Y-119502238D01*
X190965250Y-119474197D01*
X190965253Y-119474194D01*
X191034086Y-119390321D01*
X191034087Y-119390320D01*
X191102337Y-119262633D01*
X191144365Y-119124085D01*
X191155000Y-119016105D01*
X191155000Y-119016096D01*
X191158555Y-118980001D01*
X191155000Y-118943906D01*
X191155000Y-118794883D01*
X191366632Y-118653475D01*
X191573475Y-118446632D01*
X191690000Y-118272240D01*
X191806525Y-118446632D01*
X192013368Y-118653475D01*
X192256589Y-118815990D01*
X192526842Y-118927932D01*
X192813740Y-118985000D01*
X193106260Y-118985000D01*
X193393158Y-118927932D01*
X193663411Y-118815990D01*
X193906632Y-118653475D01*
X194113475Y-118446632D01*
X194230000Y-118272240D01*
X194346525Y-118446632D01*
X194553368Y-118653475D01*
X194796589Y-118815990D01*
X195066842Y-118927932D01*
X195353740Y-118985000D01*
X195646260Y-118985000D01*
X195933158Y-118927932D01*
X196203411Y-118815990D01*
X196446632Y-118653475D01*
X196653475Y-118446632D01*
X196770000Y-118272240D01*
X196886525Y-118446632D01*
X197093368Y-118653475D01*
X197336589Y-118815990D01*
X197606842Y-118927932D01*
X197893740Y-118985000D01*
X198186260Y-118985000D01*
X198473158Y-118927932D01*
X198743411Y-118815990D01*
X198986632Y-118653475D01*
X199193475Y-118446632D01*
X199334797Y-118235129D01*
X199336105Y-118235000D01*
X199444085Y-118224365D01*
X199582633Y-118182337D01*
X199710320Y-118114087D01*
X199822238Y-118022238D01*
X199845259Y-117994188D01*
X200149231Y-117690215D01*
X199985476Y-118085554D01*
X199865000Y-118691229D01*
X199865000Y-119308771D01*
X199985476Y-119914446D01*
X200221799Y-120484979D01*
X200564886Y-120998446D01*
X201001554Y-121435114D01*
X201515021Y-121778201D01*
X202085554Y-122014524D01*
X202691229Y-122135000D01*
X203282767Y-122135000D01*
X202628543Y-122292065D01*
X201975793Y-122340000D01*
X135029392Y-122340000D01*
X134231917Y-122268827D01*
X133488110Y-122065344D01*
X132792096Y-121733363D01*
X132165870Y-121283374D01*
X131629223Y-120729597D01*
X131199129Y-120089549D01*
X130889171Y-119383447D01*
X130722985Y-118691229D01*
X159865000Y-118691229D01*
X159865000Y-119308771D01*
X159985476Y-119914446D01*
X160221799Y-120484979D01*
X160564886Y-120998446D01*
X161001554Y-121435114D01*
X161515021Y-121778201D01*
X162085554Y-122014524D01*
X162691229Y-122135000D01*
X163308771Y-122135000D01*
X163914446Y-122014524D01*
X164484979Y-121778201D01*
X164998446Y-121435114D01*
X165435114Y-120998446D01*
X165778201Y-120484979D01*
X166014524Y-119914446D01*
X166135000Y-119308771D01*
X166135000Y-118691229D01*
X166014524Y-118085554D01*
X165778201Y-117515021D01*
X165435114Y-117001554D01*
X164998446Y-116564886D01*
X164484979Y-116221799D01*
X163914446Y-115985476D01*
X163308771Y-115865000D01*
X162691229Y-115865000D01*
X162085554Y-115985476D01*
X161515021Y-116221799D01*
X161001554Y-116564886D01*
X160564886Y-117001554D01*
X160221799Y-117515021D01*
X159985476Y-118085554D01*
X159865000Y-118691229D01*
X130722985Y-118691229D01*
X130707935Y-118628543D01*
X130660000Y-117975793D01*
X130660000Y-115106153D01*
X164539500Y-115106153D01*
X164539500Y-115393847D01*
X164595626Y-115676012D01*
X164705721Y-115941806D01*
X164865555Y-116181015D01*
X165068985Y-116384445D01*
X165308194Y-116544279D01*
X165573988Y-116654374D01*
X165856153Y-116710500D01*
X166143847Y-116710500D01*
X166426012Y-116654374D01*
X166691806Y-116544279D01*
X166931015Y-116384445D01*
X167134445Y-116181015D01*
X167294279Y-115941806D01*
X167404374Y-115676012D01*
X167460500Y-115393847D01*
X167460500Y-115106153D01*
X167404374Y-114823988D01*
X167294279Y-114558194D01*
X167134445Y-114318985D01*
X166931015Y-114115555D01*
X166691806Y-113955721D01*
X166426012Y-113845626D01*
X166143847Y-113789500D01*
X165856153Y-113789500D01*
X165573988Y-113845626D01*
X165308194Y-113955721D01*
X165068985Y-114115555D01*
X164865555Y-114318985D01*
X164705721Y-114558194D01*
X164595626Y-114823988D01*
X164539500Y-115106153D01*
X130660000Y-115106153D01*
X130660000Y-108760909D01*
X165168696Y-108760909D01*
X165243367Y-109007481D01*
X165503228Y-109130931D01*
X165782180Y-109201313D01*
X166069502Y-109215921D01*
X166354154Y-109174194D01*
X166625196Y-109077737D01*
X166756633Y-109007481D01*
X166831304Y-108760909D01*
X166000000Y-107929605D01*
X165168696Y-108760909D01*
X130660000Y-108760909D01*
X130660000Y-107819502D01*
X164534079Y-107819502D01*
X164575806Y-108104154D01*
X164672263Y-108375196D01*
X164742519Y-108506633D01*
X164989091Y-108581304D01*
X165820395Y-107750000D01*
X166179605Y-107750000D01*
X167010909Y-108581304D01*
X167257481Y-108506633D01*
X167380931Y-108246772D01*
X167451313Y-107967820D01*
X167465921Y-107680498D01*
X167424194Y-107395846D01*
X167327737Y-107124804D01*
X167257481Y-106993367D01*
X167010909Y-106918696D01*
X166179605Y-107750000D01*
X165820395Y-107750000D01*
X164989091Y-106918696D01*
X164742519Y-106993367D01*
X164619069Y-107253228D01*
X164548687Y-107532180D01*
X164534079Y-107819502D01*
X130660000Y-107819502D01*
X130660000Y-106739091D01*
X165168696Y-106739091D01*
X166000000Y-107570395D01*
X166831304Y-106739091D01*
X166756633Y-106492519D01*
X166496772Y-106369069D01*
X166217820Y-106298687D01*
X165930498Y-106284079D01*
X165645846Y-106325806D01*
X165374804Y-106422263D01*
X165243367Y-106492519D01*
X165168696Y-106739091D01*
X130660000Y-106739091D01*
X130660000Y-97106153D01*
X164539500Y-97106153D01*
X164539500Y-97393847D01*
X164595626Y-97676012D01*
X164705721Y-97941806D01*
X164865555Y-98181015D01*
X165068985Y-98384445D01*
X165308194Y-98544279D01*
X165573988Y-98654374D01*
X165856153Y-98710500D01*
X166143847Y-98710500D01*
X166426012Y-98654374D01*
X166691806Y-98544279D01*
X166931015Y-98384445D01*
X167134445Y-98181015D01*
X167294279Y-97941806D01*
X167404374Y-97676012D01*
X167460500Y-97393847D01*
X167460500Y-97106153D01*
X167404374Y-96823988D01*
X167294279Y-96558194D01*
X167134445Y-96318985D01*
X166931015Y-96115555D01*
X166691806Y-95955721D01*
X166426012Y-95845626D01*
X166143847Y-95789500D01*
X165856153Y-95789500D01*
X165573988Y-95845626D01*
X165308194Y-95955721D01*
X165068985Y-96115555D01*
X164865555Y-96318985D01*
X164705721Y-96558194D01*
X164595626Y-96823988D01*
X164539500Y-97106153D01*
X130660000Y-97106153D01*
X130660000Y-89606153D01*
X164539500Y-89606153D01*
X164539500Y-89893847D01*
X164595626Y-90176012D01*
X164705721Y-90441806D01*
X164865555Y-90681015D01*
X165068985Y-90884445D01*
X165308194Y-91044279D01*
X165573988Y-91154374D01*
X165856153Y-91210500D01*
X166143847Y-91210500D01*
X166426012Y-91154374D01*
X166691806Y-91044279D01*
X166931015Y-90884445D01*
X167134445Y-90681015D01*
X167294279Y-90441806D01*
X167404374Y-90176012D01*
X167460500Y-89893847D01*
X167460500Y-89606153D01*
X167404374Y-89323988D01*
X167294279Y-89058194D01*
X167134445Y-88818985D01*
X166931015Y-88615555D01*
X166691806Y-88455721D01*
X166426012Y-88345626D01*
X166143847Y-88289500D01*
X165856153Y-88289500D01*
X165573988Y-88345626D01*
X165308194Y-88455721D01*
X165068985Y-88615555D01*
X164865555Y-88818985D01*
X164705721Y-89058194D01*
X164595626Y-89323988D01*
X164539500Y-89606153D01*
X130660000Y-89606153D01*
X130660000Y-87029392D01*
X130731173Y-86231917D01*
X130879088Y-85691229D01*
X159865000Y-85691229D01*
X159865000Y-86308771D01*
X159985476Y-86914446D01*
X160221799Y-87484979D01*
X160564886Y-87998446D01*
X161001554Y-88435114D01*
X161515021Y-88778201D01*
X162085554Y-89014524D01*
X162691229Y-89135000D01*
X163308771Y-89135000D01*
X163914446Y-89014524D01*
X164484979Y-88778201D01*
X164998446Y-88435114D01*
X165435114Y-87998446D01*
X165778201Y-87484979D01*
X166014524Y-86914446D01*
X166135000Y-86308771D01*
X166135000Y-85691229D01*
X166014524Y-85085554D01*
X165778201Y-84515021D01*
X165435114Y-84001554D01*
X164998446Y-83564886D01*
X164484979Y-83221799D01*
X163914446Y-82985476D01*
X163308771Y-82865000D01*
X162691229Y-82865000D01*
X162085554Y-82985476D01*
X161515021Y-83221799D01*
X161001554Y-83564886D01*
X160564886Y-84001554D01*
X160221799Y-84515021D01*
X159985476Y-85085554D01*
X159865000Y-85691229D01*
X130879088Y-85691229D01*
X130934656Y-85488109D01*
X131266638Y-84792095D01*
X131716626Y-84165870D01*
X132270403Y-83629223D01*
X132910451Y-83199129D01*
X133616553Y-82889171D01*
X134371457Y-82707935D01*
X135024207Y-82660000D01*
X201970608Y-82660000D01*
X202768083Y-82731173D01*
G37*
X202768083Y-82731173D02*
X203257272Y-82865000D01*
X202691229Y-82865000D01*
X202085554Y-82985476D01*
X201515021Y-83221799D01*
X201001554Y-83564886D01*
X200564886Y-84001554D01*
X200221799Y-84515021D01*
X199985476Y-85085554D01*
X199865000Y-85691229D01*
X199865000Y-86308771D01*
X199985476Y-86914446D01*
X200221799Y-87484979D01*
X200564886Y-87998446D01*
X201001554Y-88435114D01*
X201515021Y-88778201D01*
X202085554Y-89014524D01*
X202691229Y-89135000D01*
X203308771Y-89135000D01*
X203914446Y-89014524D01*
X204484979Y-88778201D01*
X204998446Y-88435114D01*
X205435114Y-87998446D01*
X205778201Y-87484979D01*
X206014524Y-86914446D01*
X206135000Y-86308771D01*
X206135000Y-85717233D01*
X206292065Y-86371457D01*
X206340000Y-87024207D01*
X206340001Y-117970597D01*
X206268827Y-118768083D01*
X206135000Y-119257273D01*
X206135000Y-118691229D01*
X206014524Y-118085554D01*
X205778201Y-117515021D01*
X205435114Y-117001554D01*
X204998446Y-116564886D01*
X204484979Y-116221799D01*
X203914446Y-115985476D01*
X203308771Y-115865000D01*
X202691229Y-115865000D01*
X202085554Y-115985476D01*
X201690216Y-116149231D01*
X202094193Y-115745254D01*
X202122238Y-115722238D01*
X202214087Y-115610320D01*
X202274676Y-115496966D01*
X202403972Y-115626262D01*
X202557111Y-115728586D01*
X202727271Y-115799068D01*
X202907911Y-115835000D01*
X203092089Y-115835000D01*
X203272729Y-115799068D01*
X203442889Y-115728586D01*
X203596028Y-115626262D01*
X203726262Y-115496028D01*
X203828586Y-115342889D01*
X203899068Y-115172729D01*
X203935000Y-114992089D01*
X203935000Y-114807911D01*
X203899068Y-114627271D01*
X203828586Y-114457111D01*
X203735000Y-114317049D01*
X203735000Y-98636105D01*
X203738556Y-98600000D01*
X203724365Y-98455915D01*
X203682337Y-98317366D01*
X203614087Y-98189680D01*
X203545253Y-98105806D01*
X203545250Y-98105803D01*
X203522237Y-98077762D01*
X203494197Y-98054750D01*
X200045249Y-94605803D01*
X200022228Y-94577752D01*
X199910310Y-94485903D01*
X199782623Y-94417653D01*
X199644075Y-94375625D01*
X199536095Y-94364990D01*
X199499990Y-94361434D01*
X199463885Y-94364990D01*
X195536104Y-94364990D01*
X195500009Y-94361435D01*
X195463914Y-94364990D01*
X195463905Y-94364990D01*
X195355925Y-94375625D01*
X195217377Y-94417653D01*
X195089690Y-94485903D01*
X194977772Y-94577752D01*
X194954756Y-94605797D01*
X194295554Y-95265000D01*
X190592449Y-95265000D01*
X190233259Y-94905811D01*
X190210239Y-94877761D01*
X190098321Y-94785912D01*
X189970634Y-94717662D01*
X189832086Y-94675634D01*
X189724106Y-94664999D01*
X189688001Y-94661443D01*
X189651896Y-94664999D01*
X189036095Y-94664999D01*
X189000000Y-94661444D01*
X188963905Y-94664999D01*
X188963896Y-94664999D01*
X188855916Y-94675634D01*
X188717368Y-94717662D01*
X188589681Y-94785912D01*
X188477763Y-94877761D01*
X188454747Y-94905806D01*
X188092485Y-95268068D01*
X187927271Y-95300932D01*
X187757111Y-95371414D01*
X187603972Y-95473738D01*
X187473738Y-95603972D01*
X187371414Y-95757111D01*
X187319436Y-95882599D01*
X187227271Y-95900932D01*
X187057111Y-95971414D01*
X186903972Y-96073738D01*
X186773738Y-96203972D01*
X186720496Y-96283655D01*
X185620302Y-95183462D01*
X185588486Y-95144694D01*
X185433780Y-95017730D01*
X185257277Y-94923388D01*
X185065761Y-94865292D01*
X184916492Y-94850590D01*
X184866590Y-94845675D01*
X184816688Y-94850590D01*
X184087431Y-94850590D01*
X183916000Y-94679160D01*
X183916000Y-90218840D01*
X183983840Y-90151000D01*
X184045247Y-90151000D01*
X184015000Y-90303061D01*
X184015000Y-90506939D01*
X184054774Y-90706898D01*
X184132795Y-90895256D01*
X184246063Y-91064774D01*
X184262600Y-91081311D01*
X184262600Y-91211337D01*
X184258792Y-91250000D01*
X184262600Y-91288663D01*
X184262600Y-91288673D01*
X184273588Y-91400226D01*
X184273995Y-91404357D01*
X184319018Y-91552782D01*
X184319019Y-91552783D01*
X184392135Y-91689572D01*
X184490532Y-91809469D01*
X184520573Y-91834123D01*
X185865000Y-93178551D01*
X185865000Y-93201939D01*
X185904774Y-93401898D01*
X185982795Y-93590256D01*
X186096063Y-93759774D01*
X186240226Y-93903937D01*
X186409744Y-94017205D01*
X186598102Y-94095226D01*
X186798061Y-94135000D01*
X187001939Y-94135000D01*
X187201898Y-94095226D01*
X187390256Y-94017205D01*
X187559774Y-93903937D01*
X187703937Y-93759774D01*
X187817205Y-93590256D01*
X187895226Y-93401898D01*
X187935000Y-93201939D01*
X187935000Y-92998061D01*
X187895226Y-92798102D01*
X187817205Y-92609744D01*
X187703937Y-92440226D01*
X187559774Y-92296063D01*
X187390256Y-92182795D01*
X187201898Y-92104774D01*
X187001939Y-92065000D01*
X186978551Y-92065000D01*
X185903759Y-90990209D01*
X185967205Y-90895256D01*
X186045226Y-90706898D01*
X186085000Y-90506939D01*
X186085000Y-90303061D01*
X186045226Y-90103102D01*
X185967205Y-89914744D01*
X185870490Y-89770000D01*
X185967205Y-89625256D01*
X186045226Y-89436898D01*
X186085000Y-89236939D01*
X186085000Y-89033061D01*
X186045226Y-88833102D01*
X185967205Y-88644744D01*
X185853937Y-88475226D01*
X185709774Y-88331063D01*
X185540256Y-88217795D01*
X185351898Y-88139774D01*
X185151939Y-88100000D01*
X184948061Y-88100000D01*
X184852541Y-88119000D01*
X183612902Y-88119000D01*
X183563000Y-88114085D01*
X183513098Y-88119000D01*
X183363829Y-88133702D01*
X183172313Y-88191798D01*
X182995810Y-88286140D01*
X182841104Y-88413104D01*
X182809287Y-88451873D01*
X182216873Y-89044287D01*
X182178104Y-89076104D01*
X182051140Y-89230810D01*
X181956798Y-89407314D01*
X181920890Y-89525687D01*
X181898702Y-89598830D01*
X181879085Y-89798000D01*
X181884000Y-89847902D01*
X181884001Y-95050088D01*
X181879085Y-95100000D01*
X181898702Y-95299170D01*
X181955744Y-95487210D01*
X181956799Y-95490687D01*
X182051141Y-95667190D01*
X182170476Y-95812600D01*
X178376311Y-95812600D01*
X178359774Y-95796063D01*
X178190256Y-95682795D01*
X178001898Y-95604774D01*
X177801939Y-95565000D01*
X177598061Y-95565000D01*
X177398102Y-95604774D01*
X177209744Y-95682795D01*
X177040226Y-95796063D01*
X176896063Y-95940226D01*
X176782795Y-96109744D01*
X176704774Y-96298102D01*
X176670995Y-96467922D01*
X176639572Y-96442134D01*
X176502783Y-96369018D01*
X176354357Y-96323994D01*
X176238673Y-96312600D01*
X176238663Y-96312600D01*
X176200000Y-96308792D01*
X176174968Y-96311257D01*
X176159774Y-96296063D01*
X175990256Y-96182795D01*
X175801898Y-96104774D01*
X175601939Y-96065000D01*
X175398061Y-96065000D01*
X175198102Y-96104774D01*
X175009744Y-96182795D01*
X174840226Y-96296063D01*
X174696063Y-96440226D01*
X174582795Y-96609744D01*
X174504774Y-96798102D01*
X174465000Y-96998061D01*
X174465000Y-97201939D01*
X174504774Y-97401898D01*
X174582795Y-97590256D01*
X174696063Y-97759774D01*
X174840226Y-97903937D01*
X175009744Y-98017205D01*
X175198102Y-98095226D01*
X175398061Y-98135000D01*
X175601939Y-98135000D01*
X175801898Y-98095226D01*
X175990256Y-98017205D01*
X175998287Y-98011839D01*
X176215881Y-98229432D01*
X176240531Y-98259469D01*
X176270567Y-98284119D01*
X176270569Y-98284121D01*
X176311080Y-98317367D01*
X176360428Y-98357866D01*
X176462827Y-98412600D01*
X174638662Y-98412600D01*
X174599999Y-98408792D01*
X174561336Y-98412600D01*
X174561327Y-98412600D01*
X174445643Y-98423994D01*
X174297217Y-98469018D01*
X174160428Y-98542134D01*
X174132566Y-98565000D01*
X174098061Y-98565000D01*
X173898102Y-98604774D01*
X173709744Y-98682795D01*
X173540226Y-98796063D01*
X173396063Y-98940226D01*
X173282795Y-99109744D01*
X173204774Y-99298102D01*
X173165000Y-99498061D01*
X173165000Y-99701939D01*
X173204774Y-99901898D01*
X173282795Y-100090256D01*
X173396063Y-100259774D01*
X173540226Y-100403937D01*
X173709744Y-100517205D01*
X173898102Y-100595226D01*
X174098061Y-100635000D01*
X174301939Y-100635000D01*
X174501898Y-100595226D01*
X174690256Y-100517205D01*
X174859774Y-100403937D01*
X175003937Y-100259774D01*
X175117205Y-100090256D01*
X175159810Y-99987400D01*
X179547704Y-99987400D01*
X179596063Y-100059774D01*
X179661369Y-100125080D01*
X178570573Y-101215877D01*
X178540532Y-101240531D01*
X178515879Y-101270571D01*
X178442135Y-101360428D01*
X178369018Y-101497218D01*
X178323995Y-101645643D01*
X178308792Y-101800000D01*
X178312601Y-101838673D01*
X178312600Y-105273848D01*
X175573850Y-108012600D01*
X174976311Y-108012600D01*
X174959774Y-107996063D01*
X174790256Y-107882795D01*
X174601898Y-107804774D01*
X174401939Y-107765000D01*
X174198061Y-107765000D01*
X173998102Y-107804774D01*
X173887400Y-107850629D01*
X173887400Y-106076311D01*
X173903937Y-106059774D01*
X174017205Y-105890256D01*
X174095226Y-105701898D01*
X174135000Y-105501939D01*
X174135000Y-105298061D01*
X174095226Y-105098102D01*
X174017205Y-104909744D01*
X173903937Y-104740226D01*
X173759774Y-104596063D01*
X173590256Y-104482795D01*
X173401898Y-104404774D01*
X173201939Y-104365000D01*
X172998061Y-104365000D01*
X172798102Y-104404774D01*
X172609744Y-104482795D01*
X172440226Y-104596063D01*
X172296063Y-104740226D01*
X172182795Y-104909744D01*
X172104774Y-105098102D01*
X172065000Y-105298061D01*
X172065000Y-105501939D01*
X172104774Y-105701898D01*
X172182795Y-105890256D01*
X172296063Y-106059774D01*
X172312601Y-106076312D01*
X172312600Y-107938672D01*
X172312601Y-107938681D01*
X172312600Y-108961336D01*
X172308792Y-109000000D01*
X172312600Y-109038663D01*
X172312600Y-109038672D01*
X172323994Y-109154356D01*
X172369018Y-109302782D01*
X172442134Y-109439571D01*
X172540531Y-109559469D01*
X172570577Y-109584127D01*
X173515881Y-110529433D01*
X173540531Y-110559469D01*
X173570567Y-110584119D01*
X173570570Y-110584122D01*
X173660427Y-110657865D01*
X173660428Y-110657866D01*
X173797217Y-110730982D01*
X173945643Y-110776006D01*
X174061327Y-110787400D01*
X174061335Y-110787400D01*
X174100000Y-110791208D01*
X174138665Y-110787400D01*
X175375245Y-110787400D01*
X175413908Y-110791208D01*
X175452571Y-110787400D01*
X175452581Y-110787400D01*
X175568265Y-110776006D01*
X175716691Y-110730982D01*
X175853480Y-110657866D01*
X175973377Y-110559469D01*
X175998035Y-110529423D01*
X176391632Y-110135827D01*
X176404774Y-110201898D01*
X176482795Y-110390256D01*
X176596063Y-110559774D01*
X176740226Y-110703937D01*
X176909744Y-110817205D01*
X177098102Y-110895226D01*
X177298061Y-110935000D01*
X177501939Y-110935000D01*
X177701898Y-110895226D01*
X177890256Y-110817205D01*
X178059774Y-110703937D01*
X178203937Y-110559774D01*
X178317205Y-110390256D01*
X178395226Y-110201898D01*
X178435000Y-110001939D01*
X178435000Y-109798061D01*
X178431763Y-109781787D01*
X179265000Y-108948551D01*
X179265001Y-117063885D01*
X179261444Y-117100000D01*
X179275635Y-117244085D01*
X179308899Y-117353740D01*
X179317664Y-117382633D01*
X179385914Y-117510320D01*
X179477763Y-117622238D01*
X179505808Y-117645254D01*
X181954746Y-120094193D01*
X181977762Y-120122238D01*
X182089680Y-120214087D01*
X182217367Y-120282337D01*
X182355915Y-120324365D01*
X182500000Y-120338556D01*
X182536105Y-120335000D01*
X189763895Y-120335000D01*
X189800000Y-120338556D01*
X189836105Y-120335000D01*
X189892182Y-120329477D01*
X189944085Y-120324365D01*
X190082633Y-120282337D01*
X190210320Y-120214087D01*
X190322238Y-120122238D01*
X190345258Y-120094188D01*
X190914197Y-119525250D01*
X190942237Y-119502238D01*
X190965250Y-119474197D01*
X190965253Y-119474194D01*
X191034086Y-119390321D01*
X191034087Y-119390320D01*
X191102337Y-119262633D01*
X191144365Y-119124085D01*
X191155000Y-119016105D01*
X191155000Y-119016096D01*
X191158555Y-118980001D01*
X191155000Y-118943906D01*
X191155000Y-118794883D01*
X191366632Y-118653475D01*
X191573475Y-118446632D01*
X191690000Y-118272240D01*
X191806525Y-118446632D01*
X192013368Y-118653475D01*
X192256589Y-118815990D01*
X192526842Y-118927932D01*
X192813740Y-118985000D01*
X193106260Y-118985000D01*
X193393158Y-118927932D01*
X193663411Y-118815990D01*
X193906632Y-118653475D01*
X194113475Y-118446632D01*
X194230000Y-118272240D01*
X194346525Y-118446632D01*
X194553368Y-118653475D01*
X194796589Y-118815990D01*
X195066842Y-118927932D01*
X195353740Y-118985000D01*
X195646260Y-118985000D01*
X195933158Y-118927932D01*
X196203411Y-118815990D01*
X196446632Y-118653475D01*
X196653475Y-118446632D01*
X196770000Y-118272240D01*
X196886525Y-118446632D01*
X197093368Y-118653475D01*
X197336589Y-118815990D01*
X197606842Y-118927932D01*
X197893740Y-118985000D01*
X198186260Y-118985000D01*
X198473158Y-118927932D01*
X198743411Y-118815990D01*
X198986632Y-118653475D01*
X199193475Y-118446632D01*
X199334797Y-118235129D01*
X199336105Y-118235000D01*
X199444085Y-118224365D01*
X199582633Y-118182337D01*
X199710320Y-118114087D01*
X199822238Y-118022238D01*
X199845259Y-117994188D01*
X200149231Y-117690215D01*
X199985476Y-118085554D01*
X199865000Y-118691229D01*
X199865000Y-119308771D01*
X199985476Y-119914446D01*
X200221799Y-120484979D01*
X200564886Y-120998446D01*
X201001554Y-121435114D01*
X201515021Y-121778201D01*
X202085554Y-122014524D01*
X202691229Y-122135000D01*
X203282767Y-122135000D01*
X202628543Y-122292065D01*
X201975793Y-122340000D01*
X135029392Y-122340000D01*
X134231917Y-122268827D01*
X133488110Y-122065344D01*
X132792096Y-121733363D01*
X132165870Y-121283374D01*
X131629223Y-120729597D01*
X131199129Y-120089549D01*
X130889171Y-119383447D01*
X130722985Y-118691229D01*
X159865000Y-118691229D01*
X159865000Y-119308771D01*
X159985476Y-119914446D01*
X160221799Y-120484979D01*
X160564886Y-120998446D01*
X161001554Y-121435114D01*
X161515021Y-121778201D01*
X162085554Y-122014524D01*
X162691229Y-122135000D01*
X163308771Y-122135000D01*
X163914446Y-122014524D01*
X164484979Y-121778201D01*
X164998446Y-121435114D01*
X165435114Y-120998446D01*
X165778201Y-120484979D01*
X166014524Y-119914446D01*
X166135000Y-119308771D01*
X166135000Y-118691229D01*
X166014524Y-118085554D01*
X165778201Y-117515021D01*
X165435114Y-117001554D01*
X164998446Y-116564886D01*
X164484979Y-116221799D01*
X163914446Y-115985476D01*
X163308771Y-115865000D01*
X162691229Y-115865000D01*
X162085554Y-115985476D01*
X161515021Y-116221799D01*
X161001554Y-116564886D01*
X160564886Y-117001554D01*
X160221799Y-117515021D01*
X159985476Y-118085554D01*
X159865000Y-118691229D01*
X130722985Y-118691229D01*
X130707935Y-118628543D01*
X130660000Y-117975793D01*
X130660000Y-115106153D01*
X164539500Y-115106153D01*
X164539500Y-115393847D01*
X164595626Y-115676012D01*
X164705721Y-115941806D01*
X164865555Y-116181015D01*
X165068985Y-116384445D01*
X165308194Y-116544279D01*
X165573988Y-116654374D01*
X165856153Y-116710500D01*
X166143847Y-116710500D01*
X166426012Y-116654374D01*
X166691806Y-116544279D01*
X166931015Y-116384445D01*
X167134445Y-116181015D01*
X167294279Y-115941806D01*
X167404374Y-115676012D01*
X167460500Y-115393847D01*
X167460500Y-115106153D01*
X167404374Y-114823988D01*
X167294279Y-114558194D01*
X167134445Y-114318985D01*
X166931015Y-114115555D01*
X166691806Y-113955721D01*
X166426012Y-113845626D01*
X166143847Y-113789500D01*
X165856153Y-113789500D01*
X165573988Y-113845626D01*
X165308194Y-113955721D01*
X165068985Y-114115555D01*
X164865555Y-114318985D01*
X164705721Y-114558194D01*
X164595626Y-114823988D01*
X164539500Y-115106153D01*
X130660000Y-115106153D01*
X130660000Y-108760909D01*
X165168696Y-108760909D01*
X165243367Y-109007481D01*
X165503228Y-109130931D01*
X165782180Y-109201313D01*
X166069502Y-109215921D01*
X166354154Y-109174194D01*
X166625196Y-109077737D01*
X166756633Y-109007481D01*
X166831304Y-108760909D01*
X166000000Y-107929605D01*
X165168696Y-108760909D01*
X130660000Y-108760909D01*
X130660000Y-107819502D01*
X164534079Y-107819502D01*
X164575806Y-108104154D01*
X164672263Y-108375196D01*
X164742519Y-108506633D01*
X164989091Y-108581304D01*
X165820395Y-107750000D01*
X166179605Y-107750000D01*
X167010909Y-108581304D01*
X167257481Y-108506633D01*
X167380931Y-108246772D01*
X167451313Y-107967820D01*
X167465921Y-107680498D01*
X167424194Y-107395846D01*
X167327737Y-107124804D01*
X167257481Y-106993367D01*
X167010909Y-106918696D01*
X166179605Y-107750000D01*
X165820395Y-107750000D01*
X164989091Y-106918696D01*
X164742519Y-106993367D01*
X164619069Y-107253228D01*
X164548687Y-107532180D01*
X164534079Y-107819502D01*
X130660000Y-107819502D01*
X130660000Y-106739091D01*
X165168696Y-106739091D01*
X166000000Y-107570395D01*
X166831304Y-106739091D01*
X166756633Y-106492519D01*
X166496772Y-106369069D01*
X166217820Y-106298687D01*
X165930498Y-106284079D01*
X165645846Y-106325806D01*
X165374804Y-106422263D01*
X165243367Y-106492519D01*
X165168696Y-106739091D01*
X130660000Y-106739091D01*
X130660000Y-97106153D01*
X164539500Y-97106153D01*
X164539500Y-97393847D01*
X164595626Y-97676012D01*
X164705721Y-97941806D01*
X164865555Y-98181015D01*
X165068985Y-98384445D01*
X165308194Y-98544279D01*
X165573988Y-98654374D01*
X165856153Y-98710500D01*
X166143847Y-98710500D01*
X166426012Y-98654374D01*
X166691806Y-98544279D01*
X166931015Y-98384445D01*
X167134445Y-98181015D01*
X167294279Y-97941806D01*
X167404374Y-97676012D01*
X167460500Y-97393847D01*
X167460500Y-97106153D01*
X167404374Y-96823988D01*
X167294279Y-96558194D01*
X167134445Y-96318985D01*
X166931015Y-96115555D01*
X166691806Y-95955721D01*
X166426012Y-95845626D01*
X166143847Y-95789500D01*
X165856153Y-95789500D01*
X165573988Y-95845626D01*
X165308194Y-95955721D01*
X165068985Y-96115555D01*
X164865555Y-96318985D01*
X164705721Y-96558194D01*
X164595626Y-96823988D01*
X164539500Y-97106153D01*
X130660000Y-97106153D01*
X130660000Y-89606153D01*
X164539500Y-89606153D01*
X164539500Y-89893847D01*
X164595626Y-90176012D01*
X164705721Y-90441806D01*
X164865555Y-90681015D01*
X165068985Y-90884445D01*
X165308194Y-91044279D01*
X165573988Y-91154374D01*
X165856153Y-91210500D01*
X166143847Y-91210500D01*
X166426012Y-91154374D01*
X166691806Y-91044279D01*
X166931015Y-90884445D01*
X167134445Y-90681015D01*
X167294279Y-90441806D01*
X167404374Y-90176012D01*
X167460500Y-89893847D01*
X167460500Y-89606153D01*
X167404374Y-89323988D01*
X167294279Y-89058194D01*
X167134445Y-88818985D01*
X166931015Y-88615555D01*
X166691806Y-88455721D01*
X166426012Y-88345626D01*
X166143847Y-88289500D01*
X165856153Y-88289500D01*
X165573988Y-88345626D01*
X165308194Y-88455721D01*
X165068985Y-88615555D01*
X164865555Y-88818985D01*
X164705721Y-89058194D01*
X164595626Y-89323988D01*
X164539500Y-89606153D01*
X130660000Y-89606153D01*
X130660000Y-87029392D01*
X130731173Y-86231917D01*
X130879088Y-85691229D01*
X159865000Y-85691229D01*
X159865000Y-86308771D01*
X159985476Y-86914446D01*
X160221799Y-87484979D01*
X160564886Y-87998446D01*
X161001554Y-88435114D01*
X161515021Y-88778201D01*
X162085554Y-89014524D01*
X162691229Y-89135000D01*
X163308771Y-89135000D01*
X163914446Y-89014524D01*
X164484979Y-88778201D01*
X164998446Y-88435114D01*
X165435114Y-87998446D01*
X165778201Y-87484979D01*
X166014524Y-86914446D01*
X166135000Y-86308771D01*
X166135000Y-85691229D01*
X166014524Y-85085554D01*
X165778201Y-84515021D01*
X165435114Y-84001554D01*
X164998446Y-83564886D01*
X164484979Y-83221799D01*
X163914446Y-82985476D01*
X163308771Y-82865000D01*
X162691229Y-82865000D01*
X162085554Y-82985476D01*
X161515021Y-83221799D01*
X161001554Y-83564886D01*
X160564886Y-84001554D01*
X160221799Y-84515021D01*
X159985476Y-85085554D01*
X159865000Y-85691229D01*
X130879088Y-85691229D01*
X130934656Y-85488109D01*
X131266638Y-84792095D01*
X131716626Y-84165870D01*
X132270403Y-83629223D01*
X132910451Y-83199129D01*
X133616553Y-82889171D01*
X134371457Y-82707935D01*
X135024207Y-82660000D01*
X201970608Y-82660000D01*
X202768083Y-82731173D01*
G36*
X194954746Y-99294193D02*
G01*
X194977762Y-99322238D01*
X195089680Y-99414087D01*
X195217367Y-99482337D01*
X195313886Y-99511616D01*
X195355914Y-99524365D01*
X195370132Y-99525765D01*
X195463895Y-99535000D01*
X195463902Y-99535000D01*
X195499999Y-99538555D01*
X195536096Y-99535000D01*
X195903640Y-99535000D01*
X195753138Y-99752796D01*
X195633245Y-100029913D01*
X195608964Y-100135260D01*
X195729622Y-100373000D01*
X197873000Y-100373000D01*
X197873000Y-100353000D01*
X198127000Y-100353000D01*
X198127000Y-100373000D01*
X200270378Y-100373000D01*
X200391036Y-100135260D01*
X200366755Y-100029913D01*
X200246862Y-99752796D01*
X200096360Y-99535000D01*
X200195554Y-99535000D01*
X200865000Y-100204447D01*
X200865001Y-114895552D01*
X199198967Y-116561587D01*
X199193475Y-116553368D01*
X198986632Y-116346525D01*
X198743411Y-116184010D01*
X198473158Y-116072068D01*
X198186260Y-116015000D01*
X197893740Y-116015000D01*
X197606842Y-116072068D01*
X197336589Y-116184010D01*
X197093368Y-116346525D01*
X196886525Y-116553368D01*
X196770000Y-116727760D01*
X196653475Y-116553368D01*
X196446632Y-116346525D01*
X196203411Y-116184010D01*
X195933158Y-116072068D01*
X195646260Y-116015000D01*
X195353740Y-116015000D01*
X195066842Y-116072068D01*
X194796589Y-116184010D01*
X194553368Y-116346525D01*
X194346525Y-116553368D01*
X194230000Y-116727760D01*
X194113475Y-116553368D01*
X193906632Y-116346525D01*
X193663411Y-116184010D01*
X193393158Y-116072068D01*
X193106260Y-116015000D01*
X192813740Y-116015000D01*
X192526842Y-116072068D01*
X192256589Y-116184010D01*
X192013368Y-116346525D01*
X191806525Y-116553368D01*
X191690000Y-116727760D01*
X191573475Y-116553368D01*
X191366632Y-116346525D01*
X191123411Y-116184010D01*
X190853158Y-116072068D01*
X190566260Y-116015000D01*
X190273740Y-116015000D01*
X189986842Y-116072068D01*
X189716589Y-116184010D01*
X189473368Y-116346525D01*
X189341513Y-116478380D01*
X189319502Y-116405820D01*
X189260537Y-116295506D01*
X189181185Y-116198815D01*
X189084494Y-116119463D01*
X188974180Y-116060498D01*
X188854482Y-116024188D01*
X188730000Y-116011928D01*
X187030000Y-116011928D01*
X186905518Y-116024188D01*
X186785820Y-116060498D01*
X186675506Y-116119463D01*
X186578815Y-116198815D01*
X186499463Y-116295506D01*
X186440498Y-116405820D01*
X186404188Y-116525518D01*
X186391928Y-116650000D01*
X186391928Y-118350000D01*
X186404188Y-118474482D01*
X186440498Y-118594180D01*
X186499463Y-118704494D01*
X186578815Y-118801185D01*
X186656574Y-118865000D01*
X182804447Y-118865000D01*
X180735000Y-116795554D01*
X180735000Y-111198061D01*
X181165000Y-111198061D01*
X181165000Y-111401939D01*
X181204774Y-111601898D01*
X181282795Y-111790256D01*
X181396063Y-111959774D01*
X181412600Y-111976311D01*
X181412600Y-112261336D01*
X181408792Y-112300000D01*
X181412600Y-112338663D01*
X181412600Y-112338672D01*
X181423994Y-112454356D01*
X181469018Y-112602782D01*
X181542134Y-112739571D01*
X181640531Y-112859469D01*
X181670577Y-112884127D01*
X182515881Y-113729433D01*
X182540531Y-113759469D01*
X182570567Y-113784119D01*
X182570569Y-113784121D01*
X182589918Y-113800000D01*
X182660428Y-113857866D01*
X182797217Y-113930982D01*
X182945643Y-113976006D01*
X183061327Y-113987400D01*
X183061336Y-113987400D01*
X183099999Y-113991208D01*
X183138662Y-113987400D01*
X193061337Y-113987400D01*
X193100000Y-113991208D01*
X193138663Y-113987400D01*
X193138673Y-113987400D01*
X193254357Y-113976006D01*
X193402783Y-113930982D01*
X193539572Y-113857866D01*
X193659469Y-113759469D01*
X193684128Y-113729422D01*
X195529428Y-111884123D01*
X195559469Y-111859469D01*
X195616271Y-111790256D01*
X195657866Y-111739573D01*
X195730982Y-111602783D01*
X195776006Y-111454358D01*
X195781169Y-111401939D01*
X195787400Y-111338673D01*
X195787400Y-111338666D01*
X195791208Y-111300000D01*
X195787400Y-111261335D01*
X195787400Y-108735755D01*
X195822038Y-108777962D01*
X195956614Y-108888405D01*
X196110150Y-108970472D01*
X196276746Y-109021008D01*
X196450000Y-109038072D01*
X199550000Y-109038072D01*
X199723254Y-109021008D01*
X199889850Y-108970472D01*
X200043386Y-108888405D01*
X200177962Y-108777962D01*
X200288405Y-108643386D01*
X200370472Y-108489850D01*
X200421008Y-108323254D01*
X200438072Y-108150000D01*
X200438072Y-106850000D01*
X200421008Y-106676746D01*
X200370472Y-106510150D01*
X200288405Y-106356614D01*
X200177962Y-106222038D01*
X200043386Y-106111595D01*
X199889850Y-106029528D01*
X199723254Y-105978992D01*
X199550000Y-105961928D01*
X196450000Y-105961928D01*
X196276746Y-105978992D01*
X196110150Y-106029528D01*
X195956614Y-106111595D01*
X195822038Y-106222038D01*
X195787400Y-106264245D01*
X195787400Y-104796785D01*
X195924790Y-104995606D01*
X196141604Y-105205748D01*
X196395249Y-105369554D01*
X196675977Y-105480729D01*
X196973000Y-105535000D01*
X197873000Y-105535000D01*
X197873000Y-104127000D01*
X198127000Y-104127000D01*
X198127000Y-105535000D01*
X199027000Y-105535000D01*
X199324023Y-105480729D01*
X199604751Y-105369554D01*
X199858396Y-105205748D01*
X200075210Y-104995606D01*
X200246862Y-104747204D01*
X200366755Y-104470087D01*
X200391036Y-104364740D01*
X200270378Y-104127000D01*
X198127000Y-104127000D01*
X197873000Y-104127000D01*
X197853000Y-104127000D01*
X197853000Y-103873000D01*
X197873000Y-103873000D01*
X197873000Y-102465000D01*
X198127000Y-102465000D01*
X198127000Y-103873000D01*
X200270378Y-103873000D01*
X200391036Y-103635260D01*
X200366755Y-103529913D01*
X200246862Y-103252796D01*
X200075210Y-103004394D01*
X199858396Y-102794252D01*
X199604751Y-102630446D01*
X199324023Y-102519271D01*
X199027000Y-102465000D01*
X198127000Y-102465000D01*
X197873000Y-102465000D01*
X196973000Y-102465000D01*
X196675977Y-102519271D01*
X196395249Y-102630446D01*
X196141604Y-102794252D01*
X195924790Y-103004394D01*
X195753138Y-103252796D01*
X195750024Y-103259992D01*
X195730982Y-103197217D01*
X195657866Y-103060428D01*
X195559469Y-102940531D01*
X195529434Y-102915882D01*
X194384127Y-101770577D01*
X194359469Y-101740531D01*
X194239572Y-101642134D01*
X194102783Y-101569018D01*
X193954357Y-101523994D01*
X193838673Y-101512600D01*
X193838663Y-101512600D01*
X193800000Y-101508792D01*
X193761337Y-101512600D01*
X191876311Y-101512600D01*
X191859774Y-101496063D01*
X191690256Y-101382795D01*
X191501898Y-101304774D01*
X191301939Y-101265000D01*
X191098061Y-101265000D01*
X190898102Y-101304774D01*
X190709744Y-101382795D01*
X190540226Y-101496063D01*
X190396063Y-101640226D01*
X190282795Y-101809744D01*
X190204774Y-101998102D01*
X190165000Y-102198061D01*
X190165000Y-102401939D01*
X190204774Y-102601898D01*
X190282795Y-102790256D01*
X190396063Y-102959774D01*
X190540226Y-103103937D01*
X190709744Y-103217205D01*
X190898102Y-103295226D01*
X191098061Y-103335000D01*
X191301939Y-103335000D01*
X191501898Y-103295226D01*
X191690256Y-103217205D01*
X191859774Y-103103937D01*
X191876311Y-103087400D01*
X193473850Y-103087400D01*
X194212600Y-103826152D01*
X194212601Y-110973848D01*
X192773850Y-112412600D01*
X183426151Y-112412600D01*
X182988631Y-111975080D01*
X183003937Y-111959774D01*
X183117205Y-111790256D01*
X183195226Y-111601898D01*
X183235000Y-111401939D01*
X183235000Y-111198061D01*
X183195226Y-110998102D01*
X183117205Y-110809744D01*
X183003937Y-110640226D01*
X182859774Y-110496063D01*
X182690256Y-110382795D01*
X182501898Y-110304774D01*
X182301939Y-110265000D01*
X182098061Y-110265000D01*
X181898102Y-110304774D01*
X181709744Y-110382795D01*
X181540226Y-110496063D01*
X181396063Y-110640226D01*
X181282795Y-110809744D01*
X181204774Y-110998102D01*
X181165000Y-111198061D01*
X180735000Y-111198061D01*
X180735000Y-108782951D01*
X180828586Y-108642889D01*
X180899068Y-108472729D01*
X180935000Y-108292089D01*
X180935000Y-108107911D01*
X180899068Y-107927271D01*
X180828586Y-107757111D01*
X180817151Y-107739998D01*
X180917205Y-107590256D01*
X180995226Y-107401898D01*
X180998764Y-107384113D01*
X181109313Y-107443202D01*
X181300829Y-107501298D01*
X181500000Y-107520915D01*
X181549902Y-107516000D01*
X185665000Y-107516000D01*
X185665000Y-107592089D01*
X185700932Y-107772729D01*
X185771414Y-107942889D01*
X185873738Y-108096028D01*
X186003972Y-108226262D01*
X186157111Y-108328586D01*
X186327271Y-108399068D01*
X186507911Y-108435000D01*
X186692089Y-108435000D01*
X186872729Y-108399068D01*
X187042889Y-108328586D01*
X187182951Y-108235000D01*
X187295554Y-108235000D01*
X190568069Y-111507515D01*
X190600932Y-111672729D01*
X190671414Y-111842889D01*
X190773738Y-111996028D01*
X190903972Y-112126262D01*
X191057111Y-112228586D01*
X191227271Y-112299068D01*
X191407911Y-112335000D01*
X191592089Y-112335000D01*
X191772729Y-112299068D01*
X191942889Y-112228586D01*
X192096028Y-112126262D01*
X192226262Y-111996028D01*
X192328586Y-111842889D01*
X192399068Y-111672729D01*
X192435000Y-111492089D01*
X192435000Y-111307911D01*
X192399068Y-111127271D01*
X192328586Y-110957111D01*
X192226262Y-110803972D01*
X192096028Y-110673738D01*
X191942889Y-110571414D01*
X191772729Y-110500932D01*
X191607515Y-110468069D01*
X188645983Y-107506537D01*
X188699171Y-107501298D01*
X188890687Y-107443202D01*
X189067190Y-107348860D01*
X189221896Y-107221896D01*
X189253713Y-107183127D01*
X189420840Y-107016000D01*
X190402541Y-107016000D01*
X190498061Y-107035000D01*
X190701939Y-107035000D01*
X190901898Y-106995226D01*
X191090256Y-106917205D01*
X191259774Y-106803937D01*
X191403937Y-106659774D01*
X191517205Y-106490256D01*
X191595226Y-106301898D01*
X191635000Y-106101939D01*
X191635000Y-105898061D01*
X191595226Y-105698102D01*
X191517205Y-105509744D01*
X191403937Y-105340226D01*
X191259774Y-105196063D01*
X191090256Y-105082795D01*
X190901898Y-105004774D01*
X190701939Y-104965000D01*
X190498061Y-104965000D01*
X190402541Y-104984000D01*
X189752841Y-104984000D01*
X189783133Y-104953708D01*
X189821896Y-104921896D01*
X189948860Y-104767190D01*
X190029209Y-104616866D01*
X190043202Y-104590688D01*
X190101298Y-104399171D01*
X190120915Y-104200000D01*
X190116000Y-104150098D01*
X190116000Y-100864740D01*
X195608964Y-100864740D01*
X195633245Y-100970087D01*
X195753138Y-101247204D01*
X195924790Y-101495606D01*
X196141604Y-101705748D01*
X196395249Y-101869554D01*
X196675977Y-101980729D01*
X196973000Y-102035000D01*
X197873000Y-102035000D01*
X197873000Y-100627000D01*
X198127000Y-100627000D01*
X198127000Y-102035000D01*
X199027000Y-102035000D01*
X199324023Y-101980729D01*
X199604751Y-101869554D01*
X199858396Y-101705748D01*
X200075210Y-101495606D01*
X200246862Y-101247204D01*
X200366755Y-100970087D01*
X200391036Y-100864740D01*
X200270378Y-100627000D01*
X198127000Y-100627000D01*
X197873000Y-100627000D01*
X195729622Y-100627000D01*
X195608964Y-100864740D01*
X190116000Y-100864740D01*
X190116000Y-99049893D01*
X190120914Y-98999999D01*
X190116000Y-98950105D01*
X190116000Y-98950098D01*
X190101298Y-98800829D01*
X190043202Y-98609313D01*
X189948860Y-98432810D01*
X189821896Y-98278104D01*
X189783133Y-98246292D01*
X189071840Y-97535000D01*
X193195554Y-97535000D01*
X194954746Y-99294193D01*
G37*
X194954746Y-99294193D02*
X194977762Y-99322238D01*
X195089680Y-99414087D01*
X195217367Y-99482337D01*
X195313886Y-99511616D01*
X195355914Y-99524365D01*
X195370132Y-99525765D01*
X195463895Y-99535000D01*
X195463902Y-99535000D01*
X195499999Y-99538555D01*
X195536096Y-99535000D01*
X195903640Y-99535000D01*
X195753138Y-99752796D01*
X195633245Y-100029913D01*
X195608964Y-100135260D01*
X195729622Y-100373000D01*
X197873000Y-100373000D01*
X197873000Y-100353000D01*
X198127000Y-100353000D01*
X198127000Y-100373000D01*
X200270378Y-100373000D01*
X200391036Y-100135260D01*
X200366755Y-100029913D01*
X200246862Y-99752796D01*
X200096360Y-99535000D01*
X200195554Y-99535000D01*
X200865000Y-100204447D01*
X200865001Y-114895552D01*
X199198967Y-116561587D01*
X199193475Y-116553368D01*
X198986632Y-116346525D01*
X198743411Y-116184010D01*
X198473158Y-116072068D01*
X198186260Y-116015000D01*
X197893740Y-116015000D01*
X197606842Y-116072068D01*
X197336589Y-116184010D01*
X197093368Y-116346525D01*
X196886525Y-116553368D01*
X196770000Y-116727760D01*
X196653475Y-116553368D01*
X196446632Y-116346525D01*
X196203411Y-116184010D01*
X195933158Y-116072068D01*
X195646260Y-116015000D01*
X195353740Y-116015000D01*
X195066842Y-116072068D01*
X194796589Y-116184010D01*
X194553368Y-116346525D01*
X194346525Y-116553368D01*
X194230000Y-116727760D01*
X194113475Y-116553368D01*
X193906632Y-116346525D01*
X193663411Y-116184010D01*
X193393158Y-116072068D01*
X193106260Y-116015000D01*
X192813740Y-116015000D01*
X192526842Y-116072068D01*
X192256589Y-116184010D01*
X192013368Y-116346525D01*
X191806525Y-116553368D01*
X191690000Y-116727760D01*
X191573475Y-116553368D01*
X191366632Y-116346525D01*
X191123411Y-116184010D01*
X190853158Y-116072068D01*
X190566260Y-116015000D01*
X190273740Y-116015000D01*
X189986842Y-116072068D01*
X189716589Y-116184010D01*
X189473368Y-116346525D01*
X189341513Y-116478380D01*
X189319502Y-116405820D01*
X189260537Y-116295506D01*
X189181185Y-116198815D01*
X189084494Y-116119463D01*
X188974180Y-116060498D01*
X188854482Y-116024188D01*
X188730000Y-116011928D01*
X187030000Y-116011928D01*
X186905518Y-116024188D01*
X186785820Y-116060498D01*
X186675506Y-116119463D01*
X186578815Y-116198815D01*
X186499463Y-116295506D01*
X186440498Y-116405820D01*
X186404188Y-116525518D01*
X186391928Y-116650000D01*
X186391928Y-118350000D01*
X186404188Y-118474482D01*
X186440498Y-118594180D01*
X186499463Y-118704494D01*
X186578815Y-118801185D01*
X186656574Y-118865000D01*
X182804447Y-118865000D01*
X180735000Y-116795554D01*
X180735000Y-111198061D01*
X181165000Y-111198061D01*
X181165000Y-111401939D01*
X181204774Y-111601898D01*
X181282795Y-111790256D01*
X181396063Y-111959774D01*
X181412600Y-111976311D01*
X181412600Y-112261336D01*
X181408792Y-112300000D01*
X181412600Y-112338663D01*
X181412600Y-112338672D01*
X181423994Y-112454356D01*
X181469018Y-112602782D01*
X181542134Y-112739571D01*
X181640531Y-112859469D01*
X181670577Y-112884127D01*
X182515881Y-113729433D01*
X182540531Y-113759469D01*
X182570567Y-113784119D01*
X182570569Y-113784121D01*
X182589918Y-113800000D01*
X182660428Y-113857866D01*
X182797217Y-113930982D01*
X182945643Y-113976006D01*
X183061327Y-113987400D01*
X183061336Y-113987400D01*
X183099999Y-113991208D01*
X183138662Y-113987400D01*
X193061337Y-113987400D01*
X193100000Y-113991208D01*
X193138663Y-113987400D01*
X193138673Y-113987400D01*
X193254357Y-113976006D01*
X193402783Y-113930982D01*
X193539572Y-113857866D01*
X193659469Y-113759469D01*
X193684128Y-113729422D01*
X195529428Y-111884123D01*
X195559469Y-111859469D01*
X195616271Y-111790256D01*
X195657866Y-111739573D01*
X195730982Y-111602783D01*
X195776006Y-111454358D01*
X195781169Y-111401939D01*
X195787400Y-111338673D01*
X195787400Y-111338666D01*
X195791208Y-111300000D01*
X195787400Y-111261335D01*
X195787400Y-108735755D01*
X195822038Y-108777962D01*
X195956614Y-108888405D01*
X196110150Y-108970472D01*
X196276746Y-109021008D01*
X196450000Y-109038072D01*
X199550000Y-109038072D01*
X199723254Y-109021008D01*
X199889850Y-108970472D01*
X200043386Y-108888405D01*
X200177962Y-108777962D01*
X200288405Y-108643386D01*
X200370472Y-108489850D01*
X200421008Y-108323254D01*
X200438072Y-108150000D01*
X200438072Y-106850000D01*
X200421008Y-106676746D01*
X200370472Y-106510150D01*
X200288405Y-106356614D01*
X200177962Y-106222038D01*
X200043386Y-106111595D01*
X199889850Y-106029528D01*
X199723254Y-105978992D01*
X199550000Y-105961928D01*
X196450000Y-105961928D01*
X196276746Y-105978992D01*
X196110150Y-106029528D01*
X195956614Y-106111595D01*
X195822038Y-106222038D01*
X195787400Y-106264245D01*
X195787400Y-104796785D01*
X195924790Y-104995606D01*
X196141604Y-105205748D01*
X196395249Y-105369554D01*
X196675977Y-105480729D01*
X196973000Y-105535000D01*
X197873000Y-105535000D01*
X197873000Y-104127000D01*
X198127000Y-104127000D01*
X198127000Y-105535000D01*
X199027000Y-105535000D01*
X199324023Y-105480729D01*
X199604751Y-105369554D01*
X199858396Y-105205748D01*
X200075210Y-104995606D01*
X200246862Y-104747204D01*
X200366755Y-104470087D01*
X200391036Y-104364740D01*
X200270378Y-104127000D01*
X198127000Y-104127000D01*
X197873000Y-104127000D01*
X197853000Y-104127000D01*
X197853000Y-103873000D01*
X197873000Y-103873000D01*
X197873000Y-102465000D01*
X198127000Y-102465000D01*
X198127000Y-103873000D01*
X200270378Y-103873000D01*
X200391036Y-103635260D01*
X200366755Y-103529913D01*
X200246862Y-103252796D01*
X200075210Y-103004394D01*
X199858396Y-102794252D01*
X199604751Y-102630446D01*
X199324023Y-102519271D01*
X199027000Y-102465000D01*
X198127000Y-102465000D01*
X197873000Y-102465000D01*
X196973000Y-102465000D01*
X196675977Y-102519271D01*
X196395249Y-102630446D01*
X196141604Y-102794252D01*
X195924790Y-103004394D01*
X195753138Y-103252796D01*
X195750024Y-103259992D01*
X195730982Y-103197217D01*
X195657866Y-103060428D01*
X195559469Y-102940531D01*
X195529434Y-102915882D01*
X194384127Y-101770577D01*
X194359469Y-101740531D01*
X194239572Y-101642134D01*
X194102783Y-101569018D01*
X193954357Y-101523994D01*
X193838673Y-101512600D01*
X193838663Y-101512600D01*
X193800000Y-101508792D01*
X193761337Y-101512600D01*
X191876311Y-101512600D01*
X191859774Y-101496063D01*
X191690256Y-101382795D01*
X191501898Y-101304774D01*
X191301939Y-101265000D01*
X191098061Y-101265000D01*
X190898102Y-101304774D01*
X190709744Y-101382795D01*
X190540226Y-101496063D01*
X190396063Y-101640226D01*
X190282795Y-101809744D01*
X190204774Y-101998102D01*
X190165000Y-102198061D01*
X190165000Y-102401939D01*
X190204774Y-102601898D01*
X190282795Y-102790256D01*
X190396063Y-102959774D01*
X190540226Y-103103937D01*
X190709744Y-103217205D01*
X190898102Y-103295226D01*
X191098061Y-103335000D01*
X191301939Y-103335000D01*
X191501898Y-103295226D01*
X191690256Y-103217205D01*
X191859774Y-103103937D01*
X191876311Y-103087400D01*
X193473850Y-103087400D01*
X194212600Y-103826152D01*
X194212601Y-110973848D01*
X192773850Y-112412600D01*
X183426151Y-112412600D01*
X182988631Y-111975080D01*
X183003937Y-111959774D01*
X183117205Y-111790256D01*
X183195226Y-111601898D01*
X183235000Y-111401939D01*
X183235000Y-111198061D01*
X183195226Y-110998102D01*
X183117205Y-110809744D01*
X183003937Y-110640226D01*
X182859774Y-110496063D01*
X182690256Y-110382795D01*
X182501898Y-110304774D01*
X182301939Y-110265000D01*
X182098061Y-110265000D01*
X181898102Y-110304774D01*
X181709744Y-110382795D01*
X181540226Y-110496063D01*
X181396063Y-110640226D01*
X181282795Y-110809744D01*
X181204774Y-110998102D01*
X181165000Y-111198061D01*
X180735000Y-111198061D01*
X180735000Y-108782951D01*
X180828586Y-108642889D01*
X180899068Y-108472729D01*
X180935000Y-108292089D01*
X180935000Y-108107911D01*
X180899068Y-107927271D01*
X180828586Y-107757111D01*
X180817151Y-107739998D01*
X180917205Y-107590256D01*
X180995226Y-107401898D01*
X180998764Y-107384113D01*
X181109313Y-107443202D01*
X181300829Y-107501298D01*
X181500000Y-107520915D01*
X181549902Y-107516000D01*
X185665000Y-107516000D01*
X185665000Y-107592089D01*
X185700932Y-107772729D01*
X185771414Y-107942889D01*
X185873738Y-108096028D01*
X186003972Y-108226262D01*
X186157111Y-108328586D01*
X186327271Y-108399068D01*
X186507911Y-108435000D01*
X186692089Y-108435000D01*
X186872729Y-108399068D01*
X187042889Y-108328586D01*
X187182951Y-108235000D01*
X187295554Y-108235000D01*
X190568069Y-111507515D01*
X190600932Y-111672729D01*
X190671414Y-111842889D01*
X190773738Y-111996028D01*
X190903972Y-112126262D01*
X191057111Y-112228586D01*
X191227271Y-112299068D01*
X191407911Y-112335000D01*
X191592089Y-112335000D01*
X191772729Y-112299068D01*
X191942889Y-112228586D01*
X192096028Y-112126262D01*
X192226262Y-111996028D01*
X192328586Y-111842889D01*
X192399068Y-111672729D01*
X192435000Y-111492089D01*
X192435000Y-111307911D01*
X192399068Y-111127271D01*
X192328586Y-110957111D01*
X192226262Y-110803972D01*
X192096028Y-110673738D01*
X191942889Y-110571414D01*
X191772729Y-110500932D01*
X191607515Y-110468069D01*
X188645983Y-107506537D01*
X188699171Y-107501298D01*
X188890687Y-107443202D01*
X189067190Y-107348860D01*
X189221896Y-107221896D01*
X189253713Y-107183127D01*
X189420840Y-107016000D01*
X190402541Y-107016000D01*
X190498061Y-107035000D01*
X190701939Y-107035000D01*
X190901898Y-106995226D01*
X191090256Y-106917205D01*
X191259774Y-106803937D01*
X191403937Y-106659774D01*
X191517205Y-106490256D01*
X191595226Y-106301898D01*
X191635000Y-106101939D01*
X191635000Y-105898061D01*
X191595226Y-105698102D01*
X191517205Y-105509744D01*
X191403937Y-105340226D01*
X191259774Y-105196063D01*
X191090256Y-105082795D01*
X190901898Y-105004774D01*
X190701939Y-104965000D01*
X190498061Y-104965000D01*
X190402541Y-104984000D01*
X189752841Y-104984000D01*
X189783133Y-104953708D01*
X189821896Y-104921896D01*
X189948860Y-104767190D01*
X190029209Y-104616866D01*
X190043202Y-104590688D01*
X190101298Y-104399171D01*
X190120915Y-104200000D01*
X190116000Y-104150098D01*
X190116000Y-100864740D01*
X195608964Y-100864740D01*
X195633245Y-100970087D01*
X195753138Y-101247204D01*
X195924790Y-101495606D01*
X196141604Y-101705748D01*
X196395249Y-101869554D01*
X196675977Y-101980729D01*
X196973000Y-102035000D01*
X197873000Y-102035000D01*
X197873000Y-100627000D01*
X198127000Y-100627000D01*
X198127000Y-102035000D01*
X199027000Y-102035000D01*
X199324023Y-101980729D01*
X199604751Y-101869554D01*
X199858396Y-101705748D01*
X200075210Y-101495606D01*
X200246862Y-101247204D01*
X200366755Y-100970087D01*
X200391036Y-100864740D01*
X200270378Y-100627000D01*
X198127000Y-100627000D01*
X197873000Y-100627000D01*
X195729622Y-100627000D01*
X195608964Y-100864740D01*
X190116000Y-100864740D01*
X190116000Y-99049893D01*
X190120914Y-98999999D01*
X190116000Y-98950105D01*
X190116000Y-98950098D01*
X190101298Y-98800829D01*
X190043202Y-98609313D01*
X189948860Y-98432810D01*
X189821896Y-98278104D01*
X189783133Y-98246292D01*
X189071840Y-97535000D01*
X193195554Y-97535000D01*
X194954746Y-99294193D01*
G36*
X187004774Y-100098102D02*
G01*
X186965000Y-100298061D01*
X186965000Y-100501939D01*
X187004774Y-100701898D01*
X187082795Y-100890256D01*
X187196063Y-101059774D01*
X187340226Y-101203937D01*
X187509744Y-101317205D01*
X187698102Y-101395226D01*
X187898061Y-101435000D01*
X188084000Y-101435000D01*
X188084001Y-103779158D01*
X187421205Y-104441954D01*
X187340226Y-104496063D01*
X187196063Y-104640226D01*
X187082795Y-104809744D01*
X187004774Y-104998102D01*
X186965000Y-105198061D01*
X186965000Y-105401939D01*
X186981323Y-105484000D01*
X181920841Y-105484000D01*
X181358046Y-104921205D01*
X181303937Y-104840226D01*
X181159774Y-104696063D01*
X180990256Y-104582795D01*
X180801898Y-104504774D01*
X180601939Y-104465000D01*
X180487401Y-104465000D01*
X180487401Y-103959809D01*
X180590256Y-103917205D01*
X180759774Y-103803937D01*
X180903937Y-103659774D01*
X181017205Y-103490256D01*
X181095226Y-103301898D01*
X181135000Y-103101939D01*
X181135000Y-102898061D01*
X181095226Y-102698102D01*
X181017205Y-102509744D01*
X180903937Y-102340226D01*
X180759774Y-102196063D01*
X180590256Y-102082795D01*
X180401898Y-102004774D01*
X180201939Y-101965000D01*
X180048550Y-101965000D01*
X182026152Y-99987400D01*
X187050629Y-99987400D01*
X187004774Y-100098102D01*
G37*
X187004774Y-100098102D02*
X186965000Y-100298061D01*
X186965000Y-100501939D01*
X187004774Y-100701898D01*
X187082795Y-100890256D01*
X187196063Y-101059774D01*
X187340226Y-101203937D01*
X187509744Y-101317205D01*
X187698102Y-101395226D01*
X187898061Y-101435000D01*
X188084000Y-101435000D01*
X188084001Y-103779158D01*
X187421205Y-104441954D01*
X187340226Y-104496063D01*
X187196063Y-104640226D01*
X187082795Y-104809744D01*
X187004774Y-104998102D01*
X186965000Y-105198061D01*
X186965000Y-105401939D01*
X186981323Y-105484000D01*
X181920841Y-105484000D01*
X181358046Y-104921205D01*
X181303937Y-104840226D01*
X181159774Y-104696063D01*
X180990256Y-104582795D01*
X180801898Y-104504774D01*
X180601939Y-104465000D01*
X180487401Y-104465000D01*
X180487401Y-103959809D01*
X180590256Y-103917205D01*
X180759774Y-103803937D01*
X180903937Y-103659774D01*
X181017205Y-103490256D01*
X181095226Y-103301898D01*
X181135000Y-103101939D01*
X181135000Y-102898061D01*
X181095226Y-102698102D01*
X181017205Y-102509744D01*
X180903937Y-102340226D01*
X180759774Y-102196063D01*
X180590256Y-102082795D01*
X180401898Y-102004774D01*
X180201939Y-101965000D01*
X180048550Y-101965000D01*
X182026152Y-99987400D01*
X187050629Y-99987400D01*
X187004774Y-100098102D01*
%TD*%
M02*
