%TF.GenerationSoftware,KiCad,Pcbnew,(5.1.6)-1*%
%TF.CreationDate,2020-12-03T13:02:19+08:00*%
%TF.ProjectId,SuperCap_UPS,53757065-7243-4617-905f-5550532e6b69,rev?*%
%TF.SameCoordinates,Original*%
%TF.FileFunction,Soldermask,Top*%
%TF.FilePolarity,Negative*%
%FSLAX46Y46*%
G04 Gerber Fmt 4.6, Leading zero omitted, Abs format (unit mm)*
G04 Created by KiCad (PCBNEW (5.1.6)-1) date 2020-12-03 13:02:19*
%MOMM*%
%LPD*%
G01*
G04 APERTURE LIST*
%ADD10O,1.800000X1.800000*%
%ADD11R,1.800000X1.800000*%
%ADD12C,5.100000*%
%ADD13O,3.700000X1.900000*%
%ADD14R,3.850000X4.800000*%
%ADD15R,1.150000X0.950000*%
%ADD16R,1.550000X0.950000*%
%ADD17R,3.100000X2.600000*%
%ADD18C,1.854200*%
G04 APERTURE END LIST*
D10*
%TO.C,J2*%
X198040000Y-117500000D03*
X195500000Y-117500000D03*
X192960000Y-117500000D03*
X190420000Y-117500000D03*
D11*
X187880000Y-117500000D03*
%TD*%
D12*
%TO.C,REF\u002A\u002A*%
X163000000Y-86000000D03*
%TD*%
%TO.C,REF\u002A\u002A*%
X163000000Y-119000000D03*
%TD*%
%TO.C,REF\u002A\u002A*%
X203000000Y-119000000D03*
%TD*%
%TO.C,REF\u002A\u002A*%
X203000000Y-86000000D03*
%TD*%
D13*
%TO.C,J1*%
X198000000Y-97000000D03*
X198000000Y-100500000D03*
X198000000Y-104000000D03*
G36*
G01*
X199586111Y-108450000D02*
X196413889Y-108450000D01*
G75*
G02*
X196150000Y-108186111I0J263889D01*
G01*
X196150000Y-106813889D01*
G75*
G02*
X196413889Y-106550000I263889J0D01*
G01*
X199586111Y-106550000D01*
G75*
G02*
X199850000Y-106813889I0J-263889D01*
G01*
X199850000Y-108186111D01*
G75*
G02*
X199586111Y-108450000I-263889J0D01*
G01*
G37*
%TD*%
%TO.C,R9*%
G36*
G01*
X174300000Y-111581250D02*
X174300000Y-111018750D01*
G75*
G02*
X174543750Y-110775000I243750J0D01*
G01*
X175031250Y-110775000D01*
G75*
G02*
X175275000Y-111018750I0J-243750D01*
G01*
X175275000Y-111581250D01*
G75*
G02*
X175031250Y-111825000I-243750J0D01*
G01*
X174543750Y-111825000D01*
G75*
G02*
X174300000Y-111581250I0J243750D01*
G01*
G37*
G36*
G01*
X172725000Y-111581250D02*
X172725000Y-111018750D01*
G75*
G02*
X172968750Y-110775000I243750J0D01*
G01*
X173456250Y-110775000D01*
G75*
G02*
X173700000Y-111018750I0J-243750D01*
G01*
X173700000Y-111581250D01*
G75*
G02*
X173456250Y-111825000I-243750J0D01*
G01*
X172968750Y-111825000D01*
G75*
G02*
X172725000Y-111581250I0J243750D01*
G01*
G37*
%TD*%
%TO.C,R8*%
G36*
G01*
X170300000Y-111581250D02*
X170300000Y-111018750D01*
G75*
G02*
X170543750Y-110775000I243750J0D01*
G01*
X171031250Y-110775000D01*
G75*
G02*
X171275000Y-111018750I0J-243750D01*
G01*
X171275000Y-111581250D01*
G75*
G02*
X171031250Y-111825000I-243750J0D01*
G01*
X170543750Y-111825000D01*
G75*
G02*
X170300000Y-111581250I0J243750D01*
G01*
G37*
G36*
G01*
X168725000Y-111581250D02*
X168725000Y-111018750D01*
G75*
G02*
X168968750Y-110775000I243750J0D01*
G01*
X169456250Y-110775000D01*
G75*
G02*
X169700000Y-111018750I0J-243750D01*
G01*
X169700000Y-111581250D01*
G75*
G02*
X169456250Y-111825000I-243750J0D01*
G01*
X168968750Y-111825000D01*
G75*
G02*
X168725000Y-111581250I0J243750D01*
G01*
G37*
%TD*%
%TO.C,R7*%
G36*
G01*
X192700000Y-94218750D02*
X192700000Y-94781250D01*
G75*
G02*
X192456250Y-95025000I-243750J0D01*
G01*
X191968750Y-95025000D01*
G75*
G02*
X191725000Y-94781250I0J243750D01*
G01*
X191725000Y-94218750D01*
G75*
G02*
X191968750Y-93975000I243750J0D01*
G01*
X192456250Y-93975000D01*
G75*
G02*
X192700000Y-94218750I0J-243750D01*
G01*
G37*
G36*
G01*
X194275000Y-94218750D02*
X194275000Y-94781250D01*
G75*
G02*
X194031250Y-95025000I-243750J0D01*
G01*
X193543750Y-95025000D01*
G75*
G02*
X193300000Y-94781250I0J243750D01*
G01*
X193300000Y-94218750D01*
G75*
G02*
X193543750Y-93975000I243750J0D01*
G01*
X194031250Y-93975000D01*
G75*
G02*
X194275000Y-94218750I0J-243750D01*
G01*
G37*
%TD*%
%TO.C,R6*%
G36*
G01*
X189300000Y-94781250D02*
X189300000Y-94218750D01*
G75*
G02*
X189543750Y-93975000I243750J0D01*
G01*
X190031250Y-93975000D01*
G75*
G02*
X190275000Y-94218750I0J-243750D01*
G01*
X190275000Y-94781250D01*
G75*
G02*
X190031250Y-95025000I-243750J0D01*
G01*
X189543750Y-95025000D01*
G75*
G02*
X189300000Y-94781250I0J243750D01*
G01*
G37*
G36*
G01*
X187725000Y-94781250D02*
X187725000Y-94218750D01*
G75*
G02*
X187968750Y-93975000I243750J0D01*
G01*
X188456250Y-93975000D01*
G75*
G02*
X188700000Y-94218750I0J-243750D01*
G01*
X188700000Y-94781250D01*
G75*
G02*
X188456250Y-95025000I-243750J0D01*
G01*
X187968750Y-95025000D01*
G75*
G02*
X187725000Y-94781250I0J243750D01*
G01*
G37*
%TD*%
%TO.C,R5*%
G36*
G01*
X178300000Y-111581250D02*
X178300000Y-111018750D01*
G75*
G02*
X178543750Y-110775000I243750J0D01*
G01*
X179031250Y-110775000D01*
G75*
G02*
X179275000Y-111018750I0J-243750D01*
G01*
X179275000Y-111581250D01*
G75*
G02*
X179031250Y-111825000I-243750J0D01*
G01*
X178543750Y-111825000D01*
G75*
G02*
X178300000Y-111581250I0J243750D01*
G01*
G37*
G36*
G01*
X176725000Y-111581250D02*
X176725000Y-111018750D01*
G75*
G02*
X176968750Y-110775000I243750J0D01*
G01*
X177456250Y-110775000D01*
G75*
G02*
X177700000Y-111018750I0J-243750D01*
G01*
X177700000Y-111581250D01*
G75*
G02*
X177456250Y-111825000I-243750J0D01*
G01*
X176968750Y-111825000D01*
G75*
G02*
X176725000Y-111581250I0J243750D01*
G01*
G37*
%TD*%
%TO.C,R4*%
G36*
G01*
X182825000Y-109043518D02*
X182825000Y-111956482D01*
G75*
G02*
X182556482Y-112225000I-268518J0D01*
G01*
X181643518Y-112225000D01*
G75*
G02*
X181375000Y-111956482I0J268518D01*
G01*
X181375000Y-109043518D01*
G75*
G02*
X181643518Y-108775000I268518J0D01*
G01*
X182556482Y-108775000D01*
G75*
G02*
X182825000Y-109043518I0J-268518D01*
G01*
G37*
G36*
G01*
X188625000Y-109043518D02*
X188625000Y-111956482D01*
G75*
G02*
X188356482Y-112225000I-268518J0D01*
G01*
X187443518Y-112225000D01*
G75*
G02*
X187175000Y-111956482I0J268518D01*
G01*
X187175000Y-109043518D01*
G75*
G02*
X187443518Y-108775000I268518J0D01*
G01*
X188356482Y-108775000D01*
G75*
G02*
X188625000Y-109043518I0J-268518D01*
G01*
G37*
%TD*%
%TO.C,R3*%
G36*
G01*
X174300000Y-94781250D02*
X174300000Y-94218750D01*
G75*
G02*
X174543750Y-93975000I243750J0D01*
G01*
X175031250Y-93975000D01*
G75*
G02*
X175275000Y-94218750I0J-243750D01*
G01*
X175275000Y-94781250D01*
G75*
G02*
X175031250Y-95025000I-243750J0D01*
G01*
X174543750Y-95025000D01*
G75*
G02*
X174300000Y-94781250I0J243750D01*
G01*
G37*
G36*
G01*
X172725000Y-94781250D02*
X172725000Y-94218750D01*
G75*
G02*
X172968750Y-93975000I243750J0D01*
G01*
X173456250Y-93975000D01*
G75*
G02*
X173700000Y-94218750I0J-243750D01*
G01*
X173700000Y-94781250D01*
G75*
G02*
X173456250Y-95025000I-243750J0D01*
G01*
X172968750Y-95025000D01*
G75*
G02*
X172725000Y-94781250I0J243750D01*
G01*
G37*
%TD*%
%TO.C,R2*%
G36*
G01*
X169700000Y-94218750D02*
X169700000Y-94781250D01*
G75*
G02*
X169456250Y-95025000I-243750J0D01*
G01*
X168968750Y-95025000D01*
G75*
G02*
X168725000Y-94781250I0J243750D01*
G01*
X168725000Y-94218750D01*
G75*
G02*
X168968750Y-93975000I243750J0D01*
G01*
X169456250Y-93975000D01*
G75*
G02*
X169700000Y-94218750I0J-243750D01*
G01*
G37*
G36*
G01*
X171275000Y-94218750D02*
X171275000Y-94781250D01*
G75*
G02*
X171031250Y-95025000I-243750J0D01*
G01*
X170543750Y-95025000D01*
G75*
G02*
X170300000Y-94781250I0J243750D01*
G01*
X170300000Y-94218750D01*
G75*
G02*
X170543750Y-93975000I243750J0D01*
G01*
X171031250Y-93975000D01*
G75*
G02*
X171275000Y-94218750I0J-243750D01*
G01*
G37*
%TD*%
%TO.C,R1*%
G36*
G01*
X178300000Y-94781250D02*
X178300000Y-94218750D01*
G75*
G02*
X178543750Y-93975000I243750J0D01*
G01*
X179031250Y-93975000D01*
G75*
G02*
X179275000Y-94218750I0J-243750D01*
G01*
X179275000Y-94781250D01*
G75*
G02*
X179031250Y-95025000I-243750J0D01*
G01*
X178543750Y-95025000D01*
G75*
G02*
X178300000Y-94781250I0J243750D01*
G01*
G37*
G36*
G01*
X176725000Y-94781250D02*
X176725000Y-94218750D01*
G75*
G02*
X176968750Y-93975000I243750J0D01*
G01*
X177456250Y-93975000D01*
G75*
G02*
X177700000Y-94218750I0J-243750D01*
G01*
X177700000Y-94781250D01*
G75*
G02*
X177456250Y-95025000I-243750J0D01*
G01*
X176968750Y-95025000D01*
G75*
G02*
X176725000Y-94781250I0J243750D01*
G01*
G37*
%TD*%
D14*
%TO.C,Q2*%
X188350000Y-88500000D03*
D15*
X190750000Y-86595000D03*
X190750000Y-87865000D03*
X190750000Y-89135000D03*
X190750000Y-90405000D03*
D16*
X185050000Y-90405000D03*
X185050000Y-89135000D03*
X185050000Y-87865000D03*
X185050000Y-86595000D03*
%TD*%
D14*
%TO.C,Q1*%
X176350000Y-88500000D03*
D15*
X173950000Y-90405000D03*
X173950000Y-89135000D03*
X173950000Y-87865000D03*
X173950000Y-86595000D03*
D16*
X179650000Y-86595000D03*
X179650000Y-87865000D03*
X179650000Y-89135000D03*
X179650000Y-90405000D03*
%TD*%
%TO.C,C5*%
G36*
G01*
X192725000Y-107105000D02*
X192725000Y-104895000D01*
G75*
G02*
X192995000Y-104625000I270000J0D01*
G01*
X193805000Y-104625000D01*
G75*
G02*
X194075000Y-104895000I0J-270000D01*
G01*
X194075000Y-107105000D01*
G75*
G02*
X193805000Y-107375000I-270000J0D01*
G01*
X192995000Y-107375000D01*
G75*
G02*
X192725000Y-107105000I0J270000D01*
G01*
G37*
G36*
G01*
X189925000Y-107105000D02*
X189925000Y-104895000D01*
G75*
G02*
X190195000Y-104625000I270000J0D01*
G01*
X191005000Y-104625000D01*
G75*
G02*
X191275000Y-104895000I0J-270000D01*
G01*
X191275000Y-107105000D01*
G75*
G02*
X191005000Y-107375000I-270000J0D01*
G01*
X190195000Y-107375000D01*
G75*
G02*
X189925000Y-107105000I0J270000D01*
G01*
G37*
%TD*%
%TO.C,C4*%
G36*
G01*
X185300000Y-94781250D02*
X185300000Y-94218750D01*
G75*
G02*
X185543750Y-93975000I243750J0D01*
G01*
X186031250Y-93975000D01*
G75*
G02*
X186275000Y-94218750I0J-243750D01*
G01*
X186275000Y-94781250D01*
G75*
G02*
X186031250Y-95025000I-243750J0D01*
G01*
X185543750Y-95025000D01*
G75*
G02*
X185300000Y-94781250I0J243750D01*
G01*
G37*
G36*
G01*
X183725000Y-94781250D02*
X183725000Y-94218750D01*
G75*
G02*
X183968750Y-93975000I243750J0D01*
G01*
X184456250Y-93975000D01*
G75*
G02*
X184700000Y-94218750I0J-243750D01*
G01*
X184700000Y-94781250D01*
G75*
G02*
X184456250Y-95025000I-243750J0D01*
G01*
X183968750Y-95025000D01*
G75*
G02*
X183725000Y-94781250I0J243750D01*
G01*
G37*
%TD*%
%TO.C,C3*%
G36*
G01*
X192725000Y-100105000D02*
X192725000Y-97895000D01*
G75*
G02*
X192995000Y-97625000I270000J0D01*
G01*
X193805000Y-97625000D01*
G75*
G02*
X194075000Y-97895000I0J-270000D01*
G01*
X194075000Y-100105000D01*
G75*
G02*
X193805000Y-100375000I-270000J0D01*
G01*
X192995000Y-100375000D01*
G75*
G02*
X192725000Y-100105000I0J270000D01*
G01*
G37*
G36*
G01*
X189925000Y-100105000D02*
X189925000Y-97895000D01*
G75*
G02*
X190195000Y-97625000I270000J0D01*
G01*
X191005000Y-97625000D01*
G75*
G02*
X191275000Y-97895000I0J-270000D01*
G01*
X191275000Y-100105000D01*
G75*
G02*
X191005000Y-100375000I-270000J0D01*
G01*
X190195000Y-100375000D01*
G75*
G02*
X189925000Y-100105000I0J270000D01*
G01*
G37*
%TD*%
D17*
%TO.C,L1*%
X173200000Y-105325000D03*
X173200000Y-99675000D03*
%TD*%
%TO.C,U1*%
G36*
G01*
X184540000Y-103175000D02*
X182860000Y-103175000D01*
G75*
G02*
X182725000Y-103040000I0J135000D01*
G01*
X182725000Y-101960000D01*
G75*
G02*
X182860000Y-101825000I135000J0D01*
G01*
X184540000Y-101825000D01*
G75*
G02*
X184675000Y-101960000I0J-135000D01*
G01*
X184675000Y-103040000D01*
G75*
G02*
X184540000Y-103175000I-135000J0D01*
G01*
G37*
G36*
G01*
X182340000Y-104950000D02*
X182060000Y-104950000D01*
G75*
G02*
X182025000Y-104915000I0J35000D01*
G01*
X182025000Y-103885000D01*
G75*
G02*
X182060000Y-103850000I35000J0D01*
G01*
X182340000Y-103850000D01*
G75*
G02*
X182375000Y-103885000I0J-35000D01*
G01*
X182375000Y-104915000D01*
G75*
G02*
X182340000Y-104950000I-35000J0D01*
G01*
G37*
G36*
G01*
X182840000Y-104950000D02*
X182560000Y-104950000D01*
G75*
G02*
X182525000Y-104915000I0J35000D01*
G01*
X182525000Y-103885000D01*
G75*
G02*
X182560000Y-103850000I35000J0D01*
G01*
X182840000Y-103850000D01*
G75*
G02*
X182875000Y-103885000I0J-35000D01*
G01*
X182875000Y-104915000D01*
G75*
G02*
X182840000Y-104950000I-35000J0D01*
G01*
G37*
G36*
G01*
X183340000Y-104950000D02*
X183060000Y-104950000D01*
G75*
G02*
X183025000Y-104915000I0J35000D01*
G01*
X183025000Y-103885000D01*
G75*
G02*
X183060000Y-103850000I35000J0D01*
G01*
X183340000Y-103850000D01*
G75*
G02*
X183375000Y-103885000I0J-35000D01*
G01*
X183375000Y-104915000D01*
G75*
G02*
X183340000Y-104950000I-35000J0D01*
G01*
G37*
G36*
G01*
X183840000Y-104950000D02*
X183560000Y-104950000D01*
G75*
G02*
X183525000Y-104915000I0J35000D01*
G01*
X183525000Y-103885000D01*
G75*
G02*
X183560000Y-103850000I35000J0D01*
G01*
X183840000Y-103850000D01*
G75*
G02*
X183875000Y-103885000I0J-35000D01*
G01*
X183875000Y-104915000D01*
G75*
G02*
X183840000Y-104950000I-35000J0D01*
G01*
G37*
G36*
G01*
X184340000Y-104950000D02*
X184060000Y-104950000D01*
G75*
G02*
X184025000Y-104915000I0J35000D01*
G01*
X184025000Y-103885000D01*
G75*
G02*
X184060000Y-103850000I35000J0D01*
G01*
X184340000Y-103850000D01*
G75*
G02*
X184375000Y-103885000I0J-35000D01*
G01*
X184375000Y-104915000D01*
G75*
G02*
X184340000Y-104950000I-35000J0D01*
G01*
G37*
G36*
G01*
X184840000Y-104950000D02*
X184560000Y-104950000D01*
G75*
G02*
X184525000Y-104915000I0J35000D01*
G01*
X184525000Y-103885000D01*
G75*
G02*
X184560000Y-103850000I35000J0D01*
G01*
X184840000Y-103850000D01*
G75*
G02*
X184875000Y-103885000I0J-35000D01*
G01*
X184875000Y-104915000D01*
G75*
G02*
X184840000Y-104950000I-35000J0D01*
G01*
G37*
G36*
G01*
X185340000Y-104950000D02*
X185060000Y-104950000D01*
G75*
G02*
X185025000Y-104915000I0J35000D01*
G01*
X185025000Y-103885000D01*
G75*
G02*
X185060000Y-103850000I35000J0D01*
G01*
X185340000Y-103850000D01*
G75*
G02*
X185375000Y-103885000I0J-35000D01*
G01*
X185375000Y-104915000D01*
G75*
G02*
X185340000Y-104950000I-35000J0D01*
G01*
G37*
G36*
G01*
X185340000Y-101150000D02*
X185060000Y-101150000D01*
G75*
G02*
X185025000Y-101115000I0J35000D01*
G01*
X185025000Y-100085000D01*
G75*
G02*
X185060000Y-100050000I35000J0D01*
G01*
X185340000Y-100050000D01*
G75*
G02*
X185375000Y-100085000I0J-35000D01*
G01*
X185375000Y-101115000D01*
G75*
G02*
X185340000Y-101150000I-35000J0D01*
G01*
G37*
G36*
G01*
X184840000Y-101150000D02*
X184560000Y-101150000D01*
G75*
G02*
X184525000Y-101115000I0J35000D01*
G01*
X184525000Y-100085000D01*
G75*
G02*
X184560000Y-100050000I35000J0D01*
G01*
X184840000Y-100050000D01*
G75*
G02*
X184875000Y-100085000I0J-35000D01*
G01*
X184875000Y-101115000D01*
G75*
G02*
X184840000Y-101150000I-35000J0D01*
G01*
G37*
G36*
G01*
X184340000Y-101150000D02*
X184060000Y-101150000D01*
G75*
G02*
X184025000Y-101115000I0J35000D01*
G01*
X184025000Y-100085000D01*
G75*
G02*
X184060000Y-100050000I35000J0D01*
G01*
X184340000Y-100050000D01*
G75*
G02*
X184375000Y-100085000I0J-35000D01*
G01*
X184375000Y-101115000D01*
G75*
G02*
X184340000Y-101150000I-35000J0D01*
G01*
G37*
G36*
G01*
X183840000Y-101150000D02*
X183560000Y-101150000D01*
G75*
G02*
X183525000Y-101115000I0J35000D01*
G01*
X183525000Y-100085000D01*
G75*
G02*
X183560000Y-100050000I35000J0D01*
G01*
X183840000Y-100050000D01*
G75*
G02*
X183875000Y-100085000I0J-35000D01*
G01*
X183875000Y-101115000D01*
G75*
G02*
X183840000Y-101150000I-35000J0D01*
G01*
G37*
G36*
G01*
X183340000Y-101150000D02*
X183060000Y-101150000D01*
G75*
G02*
X183025000Y-101115000I0J35000D01*
G01*
X183025000Y-100085000D01*
G75*
G02*
X183060000Y-100050000I35000J0D01*
G01*
X183340000Y-100050000D01*
G75*
G02*
X183375000Y-100085000I0J-35000D01*
G01*
X183375000Y-101115000D01*
G75*
G02*
X183340000Y-101150000I-35000J0D01*
G01*
G37*
G36*
G01*
X182840000Y-101150000D02*
X182560000Y-101150000D01*
G75*
G02*
X182525000Y-101115000I0J35000D01*
G01*
X182525000Y-100085000D01*
G75*
G02*
X182560000Y-100050000I35000J0D01*
G01*
X182840000Y-100050000D01*
G75*
G02*
X182875000Y-100085000I0J-35000D01*
G01*
X182875000Y-101115000D01*
G75*
G02*
X182840000Y-101150000I-35000J0D01*
G01*
G37*
G36*
G01*
X182340000Y-101150000D02*
X182060000Y-101150000D01*
G75*
G02*
X182025000Y-101115000I0J35000D01*
G01*
X182025000Y-100085000D01*
G75*
G02*
X182060000Y-100050000I35000J0D01*
G01*
X182340000Y-100050000D01*
G75*
G02*
X182375000Y-100085000I0J-35000D01*
G01*
X182375000Y-101115000D01*
G75*
G02*
X182340000Y-101150000I-35000J0D01*
G01*
G37*
G36*
G01*
X186615000Y-103675000D02*
X185585000Y-103675000D01*
G75*
G02*
X185550000Y-103640000I0J35000D01*
G01*
X185550000Y-103360000D01*
G75*
G02*
X185585000Y-103325000I35000J0D01*
G01*
X186615000Y-103325000D01*
G75*
G02*
X186650000Y-103360000I0J-35000D01*
G01*
X186650000Y-103640000D01*
G75*
G02*
X186615000Y-103675000I-35000J0D01*
G01*
G37*
G36*
G01*
X186615000Y-103175000D02*
X185585000Y-103175000D01*
G75*
G02*
X185550000Y-103140000I0J35000D01*
G01*
X185550000Y-102860000D01*
G75*
G02*
X185585000Y-102825000I35000J0D01*
G01*
X186615000Y-102825000D01*
G75*
G02*
X186650000Y-102860000I0J-35000D01*
G01*
X186650000Y-103140000D01*
G75*
G02*
X186615000Y-103175000I-35000J0D01*
G01*
G37*
G36*
G01*
X186615000Y-102675000D02*
X185585000Y-102675000D01*
G75*
G02*
X185550000Y-102640000I0J35000D01*
G01*
X185550000Y-102360000D01*
G75*
G02*
X185585000Y-102325000I35000J0D01*
G01*
X186615000Y-102325000D01*
G75*
G02*
X186650000Y-102360000I0J-35000D01*
G01*
X186650000Y-102640000D01*
G75*
G02*
X186615000Y-102675000I-35000J0D01*
G01*
G37*
G36*
G01*
X186615000Y-102175000D02*
X185585000Y-102175000D01*
G75*
G02*
X185550000Y-102140000I0J35000D01*
G01*
X185550000Y-101860000D01*
G75*
G02*
X185585000Y-101825000I35000J0D01*
G01*
X186615000Y-101825000D01*
G75*
G02*
X186650000Y-101860000I0J-35000D01*
G01*
X186650000Y-102140000D01*
G75*
G02*
X186615000Y-102175000I-35000J0D01*
G01*
G37*
G36*
G01*
X186615000Y-101675000D02*
X185585000Y-101675000D01*
G75*
G02*
X185550000Y-101640000I0J35000D01*
G01*
X185550000Y-101360000D01*
G75*
G02*
X185585000Y-101325000I35000J0D01*
G01*
X186615000Y-101325000D01*
G75*
G02*
X186650000Y-101360000I0J-35000D01*
G01*
X186650000Y-101640000D01*
G75*
G02*
X186615000Y-101675000I-35000J0D01*
G01*
G37*
G36*
G01*
X181815000Y-101675000D02*
X180785000Y-101675000D01*
G75*
G02*
X180750000Y-101640000I0J35000D01*
G01*
X180750000Y-101360000D01*
G75*
G02*
X180785000Y-101325000I35000J0D01*
G01*
X181815000Y-101325000D01*
G75*
G02*
X181850000Y-101360000I0J-35000D01*
G01*
X181850000Y-101640000D01*
G75*
G02*
X181815000Y-101675000I-35000J0D01*
G01*
G37*
G36*
G01*
X181815000Y-102175000D02*
X180785000Y-102175000D01*
G75*
G02*
X180750000Y-102140000I0J35000D01*
G01*
X180750000Y-101860000D01*
G75*
G02*
X180785000Y-101825000I35000J0D01*
G01*
X181815000Y-101825000D01*
G75*
G02*
X181850000Y-101860000I0J-35000D01*
G01*
X181850000Y-102140000D01*
G75*
G02*
X181815000Y-102175000I-35000J0D01*
G01*
G37*
G36*
G01*
X181815000Y-102675000D02*
X180785000Y-102675000D01*
G75*
G02*
X180750000Y-102640000I0J35000D01*
G01*
X180750000Y-102360000D01*
G75*
G02*
X180785000Y-102325000I35000J0D01*
G01*
X181815000Y-102325000D01*
G75*
G02*
X181850000Y-102360000I0J-35000D01*
G01*
X181850000Y-102640000D01*
G75*
G02*
X181815000Y-102675000I-35000J0D01*
G01*
G37*
G36*
G01*
X181815000Y-103175000D02*
X180785000Y-103175000D01*
G75*
G02*
X180750000Y-103140000I0J35000D01*
G01*
X180750000Y-102860000D01*
G75*
G02*
X180785000Y-102825000I35000J0D01*
G01*
X181815000Y-102825000D01*
G75*
G02*
X181850000Y-102860000I0J-35000D01*
G01*
X181850000Y-103140000D01*
G75*
G02*
X181815000Y-103175000I-35000J0D01*
G01*
G37*
G36*
G01*
X181815000Y-103675000D02*
X180785000Y-103675000D01*
G75*
G02*
X180750000Y-103640000I0J35000D01*
G01*
X180750000Y-103360000D01*
G75*
G02*
X180785000Y-103325000I35000J0D01*
G01*
X181815000Y-103325000D01*
G75*
G02*
X181850000Y-103360000I0J-35000D01*
G01*
X181850000Y-103640000D01*
G75*
G02*
X181815000Y-103675000I-35000J0D01*
G01*
G37*
%TD*%
D18*
%TO.C,C2*%
X166000000Y-115250000D03*
X166000000Y-107750000D03*
%TD*%
%TO.C,C1*%
X166000000Y-97250000D03*
X166000000Y-89750000D03*
%TD*%
M02*
