%TF.GenerationSoftware,KiCad,Pcbnew,(5.1.6)-1*%
%TF.CreationDate,2020-12-03T13:02:19+08:00*%
%TF.ProjectId,SuperCap_UPS,53757065-7243-4617-905f-5550532e6b69,rev?*%
%TF.SameCoordinates,Original*%
%TF.FileFunction,Legend,Top*%
%TF.FilePolarity,Positive*%
%FSLAX46Y46*%
G04 Gerber Fmt 4.6, Leading zero omitted, Abs format (unit mm)*
G04 Created by KiCad (PCBNEW (5.1.6)-1) date 2020-12-03 13:02:19*
%MOMM*%
%LPD*%
G01*
G04 APERTURE LIST*
%ADD10C,0.150000*%
%ADD11C,0.120000*%
%ADD12C,0.200000*%
%ADD13C,0.127000*%
%ADD14C,0.203200*%
%ADD15C,0.015000*%
%ADD16C,0.500000*%
G04 APERTURE END LIST*
D10*
X197409523Y-115502380D02*
X197409523Y-114502380D01*
X197790476Y-114502380D01*
X197885714Y-114550000D01*
X197933333Y-114597619D01*
X197980952Y-114692857D01*
X197980952Y-114835714D01*
X197933333Y-114930952D01*
X197885714Y-114978571D01*
X197790476Y-115026190D01*
X197409523Y-115026190D01*
X198742857Y-114978571D02*
X198409523Y-114978571D01*
X198409523Y-115502380D02*
X198409523Y-114502380D01*
X198885714Y-114502380D01*
X194764285Y-115404761D02*
X194907142Y-115452380D01*
X195145238Y-115452380D01*
X195240476Y-115404761D01*
X195288095Y-115357142D01*
X195335714Y-115261904D01*
X195335714Y-115166666D01*
X195288095Y-115071428D01*
X195240476Y-115023809D01*
X195145238Y-114976190D01*
X194954761Y-114928571D01*
X194859523Y-114880952D01*
X194811904Y-114833333D01*
X194764285Y-114738095D01*
X194764285Y-114642857D01*
X194811904Y-114547619D01*
X194859523Y-114500000D01*
X194954761Y-114452380D01*
X195192857Y-114452380D01*
X195335714Y-114500000D01*
X196288095Y-114500000D02*
X196192857Y-114452380D01*
X196050000Y-114452380D01*
X195907142Y-114500000D01*
X195811904Y-114595238D01*
X195764285Y-114690476D01*
X195716666Y-114880952D01*
X195716666Y-115023809D01*
X195764285Y-115214285D01*
X195811904Y-115309523D01*
X195907142Y-115404761D01*
X196050000Y-115452380D01*
X196145238Y-115452380D01*
X196288095Y-115404761D01*
X196335714Y-115357142D01*
X196335714Y-115023809D01*
X196145238Y-115023809D01*
X192809523Y-115357142D02*
X192761904Y-115404761D01*
X192619047Y-115452380D01*
X192523809Y-115452380D01*
X192380952Y-115404761D01*
X192285714Y-115309523D01*
X192238095Y-115214285D01*
X192190476Y-115023809D01*
X192190476Y-114880952D01*
X192238095Y-114690476D01*
X192285714Y-114595238D01*
X192380952Y-114500000D01*
X192523809Y-114452380D01*
X192619047Y-114452380D01*
X192761904Y-114500000D01*
X192809523Y-114547619D01*
X193761904Y-114500000D02*
X193666666Y-114452380D01*
X193523809Y-114452380D01*
X193380952Y-114500000D01*
X193285714Y-114595238D01*
X193238095Y-114690476D01*
X193190476Y-114880952D01*
X193190476Y-115023809D01*
X193238095Y-115214285D01*
X193285714Y-115309523D01*
X193380952Y-115404761D01*
X193523809Y-115452380D01*
X193619047Y-115452380D01*
X193761904Y-115404761D01*
X193809523Y-115357142D01*
X193809523Y-115023809D01*
X193619047Y-115023809D01*
X189828571Y-115452380D02*
X189828571Y-114452380D01*
X190304761Y-115452380D02*
X190304761Y-114452380D01*
X190638095Y-115166666D01*
X190971428Y-114452380D01*
X190971428Y-115452380D01*
X187738095Y-114928571D02*
X187404761Y-114928571D01*
X187404761Y-115452380D02*
X187404761Y-114452380D01*
X187880952Y-114452380D01*
X188738095Y-115452380D02*
X188261904Y-115452380D01*
X188261904Y-114452380D01*
D11*
%TO.C,J2*%
X186550000Y-118830000D02*
X186550000Y-117500000D01*
X187880000Y-118830000D02*
X186550000Y-118830000D01*
X189150000Y-118830000D02*
X189150000Y-116170000D01*
X189150000Y-116170000D02*
X199370000Y-116170000D01*
X189150000Y-118830000D02*
X199370000Y-118830000D01*
X199370000Y-118830000D02*
X199370000Y-116170000D01*
%TO.C,J1*%
X195400000Y-107800000D02*
X195400000Y-107200000D01*
X196000000Y-107500000D02*
X195400000Y-107800000D01*
X195400000Y-107200000D02*
X196000000Y-107500000D01*
X202800000Y-110060000D02*
X202800000Y-94440000D01*
X196690000Y-99450000D02*
X196690000Y-98050000D01*
X196690000Y-102950000D02*
X196690000Y-101550000D01*
X196690000Y-106450000D02*
X196690000Y-105050000D01*
X196690000Y-94440000D02*
X196690000Y-95950000D01*
X196690000Y-110060000D02*
X196690000Y-108550000D01*
X206110000Y-94440000D02*
X196690000Y-94440000D01*
X206110000Y-110060000D02*
X206110000Y-94440000D01*
X196690000Y-110060000D02*
X206110000Y-110060000D01*
%TO.C,R9*%
X173837221Y-111810000D02*
X174162779Y-111810000D01*
X173837221Y-110790000D02*
X174162779Y-110790000D01*
%TO.C,R8*%
X169837221Y-111810000D02*
X170162779Y-111810000D01*
X169837221Y-110790000D02*
X170162779Y-110790000D01*
%TO.C,R7*%
X193162779Y-93990000D02*
X192837221Y-93990000D01*
X193162779Y-95010000D02*
X192837221Y-95010000D01*
%TO.C,R6*%
X188837221Y-95010000D02*
X189162779Y-95010000D01*
X188837221Y-93990000D02*
X189162779Y-93990000D01*
%TO.C,R5*%
X177837221Y-111810000D02*
X178162779Y-111810000D01*
X177837221Y-110790000D02*
X178162779Y-110790000D01*
%TO.C,R4*%
X187052064Y-108790000D02*
X182947936Y-108790000D01*
X187052064Y-112210000D02*
X182947936Y-112210000D01*
%TO.C,R3*%
X173837221Y-95010000D02*
X174162779Y-95010000D01*
X173837221Y-93990000D02*
X174162779Y-93990000D01*
%TO.C,R2*%
X170162779Y-93990000D02*
X169837221Y-93990000D01*
X170162779Y-95010000D02*
X169837221Y-95010000D01*
%TO.C,R1*%
X177837221Y-95010000D02*
X178162779Y-95010000D01*
X177837221Y-93990000D02*
X178162779Y-93990000D01*
D12*
%TO.C,Q2*%
X183900000Y-86600000D02*
G75*
G03*
X183900000Y-86600000I-100000J0D01*
G01*
D13*
X185300000Y-85950000D02*
X190300000Y-85950000D01*
X185300000Y-91050000D02*
X190300000Y-91050000D01*
D12*
%TO.C,Q1*%
X181000000Y-90400000D02*
G75*
G03*
X181000000Y-90400000I-100000J0D01*
G01*
D13*
X179400000Y-91050000D02*
X174400000Y-91050000D01*
X179400000Y-85950000D02*
X174400000Y-85950000D01*
D11*
%TO.C,C5*%
X191397936Y-107360000D02*
X192602064Y-107360000D01*
X191397936Y-104640000D02*
X192602064Y-104640000D01*
%TO.C,C4*%
X184837221Y-95010000D02*
X185162779Y-95010000D01*
X184837221Y-93990000D02*
X185162779Y-93990000D01*
%TO.C,C3*%
X191397936Y-100360000D02*
X192602064Y-100360000D01*
X191397936Y-97640000D02*
X192602064Y-97640000D01*
%TO.C,L1*%
X177300000Y-104500000D02*
X177300000Y-100500000D01*
X169100000Y-104500000D02*
X169100000Y-100500000D01*
%TO.C,U1*%
X181700000Y-104500000D02*
X181200000Y-104500000D01*
X181200000Y-104500000D02*
X181200000Y-104000000D01*
X181200000Y-101000000D02*
X181200000Y-100500000D01*
X181200000Y-100500000D02*
X181700000Y-100500000D01*
X181700000Y-104750000D02*
X180950000Y-104750000D01*
X180950000Y-104750000D02*
X180950000Y-104000000D01*
X185700000Y-104500000D02*
X186200000Y-104500000D01*
X186200000Y-104500000D02*
X186200000Y-104000000D01*
X186200000Y-101000000D02*
X186200000Y-100500000D01*
X186200000Y-100500000D02*
X185700000Y-100500000D01*
X181950000Y-105000000D02*
X186700000Y-105000000D01*
X186700000Y-105000000D02*
X186700000Y-100000000D01*
X186700000Y-100000000D02*
X180700000Y-100000000D01*
X180700000Y-100000000D02*
X180700000Y-103750000D01*
%TO.C,C2*%
X131500000Y-103500000D02*
X159000000Y-103500000D01*
X159000000Y-119500000D02*
X159000000Y-103500000D01*
X131500000Y-119500000D02*
X131500000Y-103500000D01*
X131500000Y-119500000D02*
X159000000Y-119500000D01*
D14*
X165365000Y-111997840D02*
X166000000Y-111997840D01*
X166000000Y-111997840D02*
X166635000Y-111997840D01*
X165365000Y-111002160D02*
X166000000Y-111002160D01*
X166000000Y-111002160D02*
X166635000Y-111002160D01*
X166000000Y-111997840D02*
X166000000Y-114000000D01*
X166000000Y-111002160D02*
X166000000Y-109000000D01*
D11*
%TO.C,C1*%
X131500000Y-85500000D02*
X159000000Y-85500000D01*
X159000000Y-101500000D02*
X159000000Y-85500000D01*
X131500000Y-101500000D02*
X131500000Y-85500000D01*
X131500000Y-101500000D02*
X159000000Y-101500000D01*
D14*
X165365000Y-93997840D02*
X166000000Y-93997840D01*
X166000000Y-93997840D02*
X166635000Y-93997840D01*
X165365000Y-93002160D02*
X166000000Y-93002160D01*
X166000000Y-93002160D02*
X166635000Y-93002160D01*
X166000000Y-93997840D02*
X166000000Y-96000000D01*
X166000000Y-93002160D02*
X166000000Y-91000000D01*
%TO.C,J2*%
D10*
X185002380Y-117833333D02*
X185716666Y-117833333D01*
X185859523Y-117880952D01*
X185954761Y-117976190D01*
X186002380Y-118119047D01*
X186002380Y-118214285D01*
X185097619Y-117404761D02*
X185050000Y-117357142D01*
X185002380Y-117261904D01*
X185002380Y-117023809D01*
X185050000Y-116928571D01*
X185097619Y-116880952D01*
X185192857Y-116833333D01*
X185288095Y-116833333D01*
X185430952Y-116880952D01*
X186002380Y-117452380D01*
X186002380Y-116833333D01*
%TO.C,J1*%
X194452380Y-102583333D02*
X195166666Y-102583333D01*
X195309523Y-102630952D01*
X195404761Y-102726190D01*
X195452380Y-102869047D01*
X195452380Y-102964285D01*
X195452380Y-101583333D02*
X195452380Y-102154761D01*
X195452380Y-101869047D02*
X194452380Y-101869047D01*
X194595238Y-101964285D01*
X194690476Y-102059523D01*
X194738095Y-102154761D01*
%TO.C,R9*%
X173833333Y-110322380D02*
X173500000Y-109846190D01*
X173261904Y-110322380D02*
X173261904Y-109322380D01*
X173642857Y-109322380D01*
X173738095Y-109370000D01*
X173785714Y-109417619D01*
X173833333Y-109512857D01*
X173833333Y-109655714D01*
X173785714Y-109750952D01*
X173738095Y-109798571D01*
X173642857Y-109846190D01*
X173261904Y-109846190D01*
X174309523Y-110322380D02*
X174500000Y-110322380D01*
X174595238Y-110274761D01*
X174642857Y-110227142D01*
X174738095Y-110084285D01*
X174785714Y-109893809D01*
X174785714Y-109512857D01*
X174738095Y-109417619D01*
X174690476Y-109370000D01*
X174595238Y-109322380D01*
X174404761Y-109322380D01*
X174309523Y-109370000D01*
X174261904Y-109417619D01*
X174214285Y-109512857D01*
X174214285Y-109750952D01*
X174261904Y-109846190D01*
X174309523Y-109893809D01*
X174404761Y-109941428D01*
X174595238Y-109941428D01*
X174690476Y-109893809D01*
X174738095Y-109846190D01*
X174785714Y-109750952D01*
%TO.C,R8*%
X169833333Y-110322380D02*
X169500000Y-109846190D01*
X169261904Y-110322380D02*
X169261904Y-109322380D01*
X169642857Y-109322380D01*
X169738095Y-109370000D01*
X169785714Y-109417619D01*
X169833333Y-109512857D01*
X169833333Y-109655714D01*
X169785714Y-109750952D01*
X169738095Y-109798571D01*
X169642857Y-109846190D01*
X169261904Y-109846190D01*
X170404761Y-109750952D02*
X170309523Y-109703333D01*
X170261904Y-109655714D01*
X170214285Y-109560476D01*
X170214285Y-109512857D01*
X170261904Y-109417619D01*
X170309523Y-109370000D01*
X170404761Y-109322380D01*
X170595238Y-109322380D01*
X170690476Y-109370000D01*
X170738095Y-109417619D01*
X170785714Y-109512857D01*
X170785714Y-109560476D01*
X170738095Y-109655714D01*
X170690476Y-109703333D01*
X170595238Y-109750952D01*
X170404761Y-109750952D01*
X170309523Y-109798571D01*
X170261904Y-109846190D01*
X170214285Y-109941428D01*
X170214285Y-110131904D01*
X170261904Y-110227142D01*
X170309523Y-110274761D01*
X170404761Y-110322380D01*
X170595238Y-110322380D01*
X170690476Y-110274761D01*
X170738095Y-110227142D01*
X170785714Y-110131904D01*
X170785714Y-109941428D01*
X170738095Y-109846190D01*
X170690476Y-109798571D01*
X170595238Y-109750952D01*
%TO.C,R7*%
X192833333Y-96382380D02*
X192500000Y-95906190D01*
X192261904Y-96382380D02*
X192261904Y-95382380D01*
X192642857Y-95382380D01*
X192738095Y-95430000D01*
X192785714Y-95477619D01*
X192833333Y-95572857D01*
X192833333Y-95715714D01*
X192785714Y-95810952D01*
X192738095Y-95858571D01*
X192642857Y-95906190D01*
X192261904Y-95906190D01*
X193166666Y-95382380D02*
X193833333Y-95382380D01*
X193404761Y-96382380D01*
%TO.C,R6*%
X188833333Y-93522380D02*
X188500000Y-93046190D01*
X188261904Y-93522380D02*
X188261904Y-92522380D01*
X188642857Y-92522380D01*
X188738095Y-92570000D01*
X188785714Y-92617619D01*
X188833333Y-92712857D01*
X188833333Y-92855714D01*
X188785714Y-92950952D01*
X188738095Y-92998571D01*
X188642857Y-93046190D01*
X188261904Y-93046190D01*
X189690476Y-92522380D02*
X189500000Y-92522380D01*
X189404761Y-92570000D01*
X189357142Y-92617619D01*
X189261904Y-92760476D01*
X189214285Y-92950952D01*
X189214285Y-93331904D01*
X189261904Y-93427142D01*
X189309523Y-93474761D01*
X189404761Y-93522380D01*
X189595238Y-93522380D01*
X189690476Y-93474761D01*
X189738095Y-93427142D01*
X189785714Y-93331904D01*
X189785714Y-93093809D01*
X189738095Y-92998571D01*
X189690476Y-92950952D01*
X189595238Y-92903333D01*
X189404761Y-92903333D01*
X189309523Y-92950952D01*
X189261904Y-92998571D01*
X189214285Y-93093809D01*
%TO.C,R5*%
X177833333Y-110322380D02*
X177500000Y-109846190D01*
X177261904Y-110322380D02*
X177261904Y-109322380D01*
X177642857Y-109322380D01*
X177738095Y-109370000D01*
X177785714Y-109417619D01*
X177833333Y-109512857D01*
X177833333Y-109655714D01*
X177785714Y-109750952D01*
X177738095Y-109798571D01*
X177642857Y-109846190D01*
X177261904Y-109846190D01*
X178738095Y-109322380D02*
X178261904Y-109322380D01*
X178214285Y-109798571D01*
X178261904Y-109750952D01*
X178357142Y-109703333D01*
X178595238Y-109703333D01*
X178690476Y-109750952D01*
X178738095Y-109798571D01*
X178785714Y-109893809D01*
X178785714Y-110131904D01*
X178738095Y-110227142D01*
X178690476Y-110274761D01*
X178595238Y-110322380D01*
X178357142Y-110322380D01*
X178261904Y-110274761D01*
X178214285Y-110227142D01*
%TO.C,R4*%
X184833333Y-113572380D02*
X184500000Y-113096190D01*
X184261904Y-113572380D02*
X184261904Y-112572380D01*
X184642857Y-112572380D01*
X184738095Y-112620000D01*
X184785714Y-112667619D01*
X184833333Y-112762857D01*
X184833333Y-112905714D01*
X184785714Y-113000952D01*
X184738095Y-113048571D01*
X184642857Y-113096190D01*
X184261904Y-113096190D01*
X185690476Y-112905714D02*
X185690476Y-113572380D01*
X185452380Y-112524761D02*
X185214285Y-113239047D01*
X185833333Y-113239047D01*
%TO.C,R3*%
X173833333Y-93522380D02*
X173500000Y-93046190D01*
X173261904Y-93522380D02*
X173261904Y-92522380D01*
X173642857Y-92522380D01*
X173738095Y-92570000D01*
X173785714Y-92617619D01*
X173833333Y-92712857D01*
X173833333Y-92855714D01*
X173785714Y-92950952D01*
X173738095Y-92998571D01*
X173642857Y-93046190D01*
X173261904Y-93046190D01*
X174166666Y-92522380D02*
X174785714Y-92522380D01*
X174452380Y-92903333D01*
X174595238Y-92903333D01*
X174690476Y-92950952D01*
X174738095Y-92998571D01*
X174785714Y-93093809D01*
X174785714Y-93331904D01*
X174738095Y-93427142D01*
X174690476Y-93474761D01*
X174595238Y-93522380D01*
X174309523Y-93522380D01*
X174214285Y-93474761D01*
X174166666Y-93427142D01*
%TO.C,R2*%
X169833333Y-96382380D02*
X169500000Y-95906190D01*
X169261904Y-96382380D02*
X169261904Y-95382380D01*
X169642857Y-95382380D01*
X169738095Y-95430000D01*
X169785714Y-95477619D01*
X169833333Y-95572857D01*
X169833333Y-95715714D01*
X169785714Y-95810952D01*
X169738095Y-95858571D01*
X169642857Y-95906190D01*
X169261904Y-95906190D01*
X170214285Y-95477619D02*
X170261904Y-95430000D01*
X170357142Y-95382380D01*
X170595238Y-95382380D01*
X170690476Y-95430000D01*
X170738095Y-95477619D01*
X170785714Y-95572857D01*
X170785714Y-95668095D01*
X170738095Y-95810952D01*
X170166666Y-96382380D01*
X170785714Y-96382380D01*
%TO.C,R1*%
X177833333Y-93522380D02*
X177500000Y-93046190D01*
X177261904Y-93522380D02*
X177261904Y-92522380D01*
X177642857Y-92522380D01*
X177738095Y-92570000D01*
X177785714Y-92617619D01*
X177833333Y-92712857D01*
X177833333Y-92855714D01*
X177785714Y-92950952D01*
X177738095Y-92998571D01*
X177642857Y-93046190D01*
X177261904Y-93046190D01*
X178785714Y-93522380D02*
X178214285Y-93522380D01*
X178500000Y-93522380D02*
X178500000Y-92522380D01*
X178404761Y-92665238D01*
X178309523Y-92760476D01*
X178214285Y-92808095D01*
%TO.C,Q2*%
D15*
X185955047Y-85179076D02*
X185894095Y-85148600D01*
X185833142Y-85087647D01*
X185741714Y-84996219D01*
X185680761Y-84965742D01*
X185619809Y-84965742D01*
X185650285Y-85118123D02*
X185589333Y-85087647D01*
X185528380Y-85026695D01*
X185497904Y-84904790D01*
X185497904Y-84691457D01*
X185528380Y-84569552D01*
X185589333Y-84508600D01*
X185650285Y-84478123D01*
X185772190Y-84478123D01*
X185833142Y-84508600D01*
X185894095Y-84569552D01*
X185924571Y-84691457D01*
X185924571Y-84904790D01*
X185894095Y-85026695D01*
X185833142Y-85087647D01*
X185772190Y-85118123D01*
X185650285Y-85118123D01*
X186168380Y-84539076D02*
X186198857Y-84508600D01*
X186259809Y-84478123D01*
X186412190Y-84478123D01*
X186473142Y-84508600D01*
X186503619Y-84539076D01*
X186534095Y-84600028D01*
X186534095Y-84660980D01*
X186503619Y-84752409D01*
X186137904Y-85118123D01*
X186534095Y-85118123D01*
%TO.C,Q1*%
X178623047Y-92521876D02*
X178562095Y-92491400D01*
X178501142Y-92430447D01*
X178409714Y-92339019D01*
X178348761Y-92308542D01*
X178287809Y-92308542D01*
X178318285Y-92460923D02*
X178257333Y-92430447D01*
X178196380Y-92369495D01*
X178165904Y-92247590D01*
X178165904Y-92034257D01*
X178196380Y-91912352D01*
X178257333Y-91851400D01*
X178318285Y-91820923D01*
X178440190Y-91820923D01*
X178501142Y-91851400D01*
X178562095Y-91912352D01*
X178592571Y-92034257D01*
X178592571Y-92247590D01*
X178562095Y-92369495D01*
X178501142Y-92430447D01*
X178440190Y-92460923D01*
X178318285Y-92460923D01*
X179202095Y-92460923D02*
X178836380Y-92460923D01*
X179019238Y-92460923D02*
X179019238Y-91820923D01*
X178958285Y-91912352D01*
X178897333Y-91973304D01*
X178836380Y-92003780D01*
%TO.C,C5*%
D10*
X191833333Y-104077142D02*
X191785714Y-104124761D01*
X191642857Y-104172380D01*
X191547619Y-104172380D01*
X191404761Y-104124761D01*
X191309523Y-104029523D01*
X191261904Y-103934285D01*
X191214285Y-103743809D01*
X191214285Y-103600952D01*
X191261904Y-103410476D01*
X191309523Y-103315238D01*
X191404761Y-103220000D01*
X191547619Y-103172380D01*
X191642857Y-103172380D01*
X191785714Y-103220000D01*
X191833333Y-103267619D01*
X192738095Y-103172380D02*
X192261904Y-103172380D01*
X192214285Y-103648571D01*
X192261904Y-103600952D01*
X192357142Y-103553333D01*
X192595238Y-103553333D01*
X192690476Y-103600952D01*
X192738095Y-103648571D01*
X192785714Y-103743809D01*
X192785714Y-103981904D01*
X192738095Y-104077142D01*
X192690476Y-104124761D01*
X192595238Y-104172380D01*
X192357142Y-104172380D01*
X192261904Y-104124761D01*
X192214285Y-104077142D01*
%TO.C,C4*%
X183533333Y-93557142D02*
X183485714Y-93604761D01*
X183342857Y-93652380D01*
X183247619Y-93652380D01*
X183104761Y-93604761D01*
X183009523Y-93509523D01*
X182961904Y-93414285D01*
X182914285Y-93223809D01*
X182914285Y-93080952D01*
X182961904Y-92890476D01*
X183009523Y-92795238D01*
X183104761Y-92700000D01*
X183247619Y-92652380D01*
X183342857Y-92652380D01*
X183485714Y-92700000D01*
X183533333Y-92747619D01*
X184390476Y-92985714D02*
X184390476Y-93652380D01*
X184152380Y-92604761D02*
X183914285Y-93319047D01*
X184533333Y-93319047D01*
%TO.C,C3*%
X191833333Y-97077142D02*
X191785714Y-97124761D01*
X191642857Y-97172380D01*
X191547619Y-97172380D01*
X191404761Y-97124761D01*
X191309523Y-97029523D01*
X191261904Y-96934285D01*
X191214285Y-96743809D01*
X191214285Y-96600952D01*
X191261904Y-96410476D01*
X191309523Y-96315238D01*
X191404761Y-96220000D01*
X191547619Y-96172380D01*
X191642857Y-96172380D01*
X191785714Y-96220000D01*
X191833333Y-96267619D01*
X192166666Y-96172380D02*
X192785714Y-96172380D01*
X192452380Y-96553333D01*
X192595238Y-96553333D01*
X192690476Y-96600952D01*
X192738095Y-96648571D01*
X192785714Y-96743809D01*
X192785714Y-96981904D01*
X192738095Y-97077142D01*
X192690476Y-97124761D01*
X192595238Y-97172380D01*
X192309523Y-97172380D01*
X192214285Y-97124761D01*
X192166666Y-97077142D01*
%TO.C,L1*%
X179052380Y-102766666D02*
X179052380Y-103242857D01*
X178052380Y-103242857D01*
X179052380Y-101909523D02*
X179052380Y-102480952D01*
X179052380Y-102195238D02*
X178052380Y-102195238D01*
X178195238Y-102290476D01*
X178290476Y-102385714D01*
X178338095Y-102480952D01*
%TO.C,U1*%
X187152380Y-103011904D02*
X187961904Y-103011904D01*
X188057142Y-102964285D01*
X188104761Y-102916666D01*
X188152380Y-102821428D01*
X188152380Y-102630952D01*
X188104761Y-102535714D01*
X188057142Y-102488095D01*
X187961904Y-102440476D01*
X187152380Y-102440476D01*
X188152380Y-101440476D02*
X188152380Y-102011904D01*
X188152380Y-101726190D02*
X187152380Y-101726190D01*
X187295238Y-101821428D01*
X187390476Y-101916666D01*
X187438095Y-102011904D01*
%TO.C,C2*%
D13*
X164947714Y-111601600D02*
X164976742Y-111630628D01*
X165005771Y-111717714D01*
X165005771Y-111775771D01*
X164976742Y-111862857D01*
X164918685Y-111920914D01*
X164860628Y-111949942D01*
X164744514Y-111978971D01*
X164657428Y-111978971D01*
X164541314Y-111949942D01*
X164483257Y-111920914D01*
X164425200Y-111862857D01*
X164396171Y-111775771D01*
X164396171Y-111717714D01*
X164425200Y-111630628D01*
X164454228Y-111601600D01*
X164454228Y-111369371D02*
X164425200Y-111340342D01*
X164396171Y-111282285D01*
X164396171Y-111137142D01*
X164425200Y-111079085D01*
X164454228Y-111050057D01*
X164512285Y-111021028D01*
X164570342Y-111021028D01*
X164657428Y-111050057D01*
X165005771Y-111398400D01*
X165005771Y-111021028D01*
X167516742Y-114852800D02*
X167545771Y-114765714D01*
X167545771Y-114620571D01*
X167516742Y-114562514D01*
X167487714Y-114533485D01*
X167429657Y-114504457D01*
X167371600Y-114504457D01*
X167313542Y-114533485D01*
X167284514Y-114562514D01*
X167255485Y-114620571D01*
X167226457Y-114736685D01*
X167197428Y-114794742D01*
X167168400Y-114823771D01*
X167110342Y-114852800D01*
X167052285Y-114852800D01*
X166994228Y-114823771D01*
X166965200Y-114794742D01*
X166936171Y-114736685D01*
X166936171Y-114591542D01*
X166965200Y-114504457D01*
X167139371Y-113981942D02*
X167545771Y-113981942D01*
X167139371Y-114243200D02*
X167458685Y-114243200D01*
X167516742Y-114214171D01*
X167545771Y-114156114D01*
X167545771Y-114069028D01*
X167516742Y-114010971D01*
X167487714Y-113981942D01*
X167139371Y-113691657D02*
X167748971Y-113691657D01*
X167168400Y-113691657D02*
X167139371Y-113633600D01*
X167139371Y-113517485D01*
X167168400Y-113459428D01*
X167197428Y-113430400D01*
X167255485Y-113401371D01*
X167429657Y-113401371D01*
X167487714Y-113430400D01*
X167516742Y-113459428D01*
X167545771Y-113517485D01*
X167545771Y-113633600D01*
X167516742Y-113691657D01*
X167516742Y-112907885D02*
X167545771Y-112965942D01*
X167545771Y-113082057D01*
X167516742Y-113140114D01*
X167458685Y-113169142D01*
X167226457Y-113169142D01*
X167168400Y-113140114D01*
X167139371Y-113082057D01*
X167139371Y-112965942D01*
X167168400Y-112907885D01*
X167226457Y-112878857D01*
X167284514Y-112878857D01*
X167342571Y-113169142D01*
X167545771Y-112617600D02*
X167139371Y-112617600D01*
X167255485Y-112617600D02*
X167197428Y-112588571D01*
X167168400Y-112559542D01*
X167139371Y-112501485D01*
X167139371Y-112443428D01*
X167487714Y-111891885D02*
X167516742Y-111920914D01*
X167545771Y-112008000D01*
X167545771Y-112066057D01*
X167516742Y-112153142D01*
X167458685Y-112211200D01*
X167400628Y-112240228D01*
X167284514Y-112269257D01*
X167197428Y-112269257D01*
X167081314Y-112240228D01*
X167023257Y-112211200D01*
X166965200Y-112153142D01*
X166936171Y-112066057D01*
X166936171Y-112008000D01*
X166965200Y-111920914D01*
X166994228Y-111891885D01*
X167545771Y-111369371D02*
X167226457Y-111369371D01*
X167168400Y-111398400D01*
X167139371Y-111456457D01*
X167139371Y-111572571D01*
X167168400Y-111630628D01*
X167516742Y-111369371D02*
X167545771Y-111427428D01*
X167545771Y-111572571D01*
X167516742Y-111630628D01*
X167458685Y-111659657D01*
X167400628Y-111659657D01*
X167342571Y-111630628D01*
X167313542Y-111572571D01*
X167313542Y-111427428D01*
X167284514Y-111369371D01*
X167139371Y-111079085D02*
X167748971Y-111079085D01*
X167168400Y-111079085D02*
X167139371Y-111021028D01*
X167139371Y-110904914D01*
X167168400Y-110846857D01*
X167197428Y-110817828D01*
X167255485Y-110788800D01*
X167429657Y-110788800D01*
X167487714Y-110817828D01*
X167516742Y-110846857D01*
X167545771Y-110904914D01*
X167545771Y-111021028D01*
X167516742Y-111079085D01*
X167545771Y-110266285D02*
X167226457Y-110266285D01*
X167168400Y-110295314D01*
X167139371Y-110353371D01*
X167139371Y-110469485D01*
X167168400Y-110527542D01*
X167516742Y-110266285D02*
X167545771Y-110324342D01*
X167545771Y-110469485D01*
X167516742Y-110527542D01*
X167458685Y-110556571D01*
X167400628Y-110556571D01*
X167342571Y-110527542D01*
X167313542Y-110469485D01*
X167313542Y-110324342D01*
X167284514Y-110266285D01*
X167516742Y-109714742D02*
X167545771Y-109772800D01*
X167545771Y-109888914D01*
X167516742Y-109946971D01*
X167487714Y-109976000D01*
X167429657Y-110005028D01*
X167255485Y-110005028D01*
X167197428Y-109976000D01*
X167168400Y-109946971D01*
X167139371Y-109888914D01*
X167139371Y-109772800D01*
X167168400Y-109714742D01*
X167545771Y-109453485D02*
X167139371Y-109453485D01*
X166936171Y-109453485D02*
X166965200Y-109482514D01*
X166994228Y-109453485D01*
X166965200Y-109424457D01*
X166936171Y-109453485D01*
X166994228Y-109453485D01*
X167139371Y-109250285D02*
X167139371Y-109018057D01*
X166936171Y-109163200D02*
X167458685Y-109163200D01*
X167516742Y-109134171D01*
X167545771Y-109076114D01*
X167545771Y-109018057D01*
X167545771Y-108727771D02*
X167516742Y-108785828D01*
X167487714Y-108814857D01*
X167429657Y-108843885D01*
X167255485Y-108843885D01*
X167197428Y-108814857D01*
X167168400Y-108785828D01*
X167139371Y-108727771D01*
X167139371Y-108640685D01*
X167168400Y-108582628D01*
X167197428Y-108553600D01*
X167255485Y-108524571D01*
X167429657Y-108524571D01*
X167487714Y-108553600D01*
X167516742Y-108582628D01*
X167545771Y-108640685D01*
X167545771Y-108727771D01*
X167545771Y-108263314D02*
X167139371Y-108263314D01*
X167255485Y-108263314D02*
X167197428Y-108234285D01*
X167168400Y-108205257D01*
X167139371Y-108147200D01*
X167139371Y-108089142D01*
D16*
X134000000Y-106309523D02*
X134285714Y-106404761D01*
X134761904Y-106404761D01*
X134952380Y-106309523D01*
X135047619Y-106214285D01*
X135142857Y-106023809D01*
X135142857Y-105833333D01*
X135047619Y-105642857D01*
X134952380Y-105547619D01*
X134761904Y-105452380D01*
X134380952Y-105357142D01*
X134190476Y-105261904D01*
X134095238Y-105166666D01*
X134000000Y-104976190D01*
X134000000Y-104785714D01*
X134095238Y-104595238D01*
X134190476Y-104500000D01*
X134380952Y-104404761D01*
X134857142Y-104404761D01*
X135142857Y-104500000D01*
X136857142Y-105071428D02*
X136857142Y-106404761D01*
X136000000Y-105071428D02*
X136000000Y-106119047D01*
X136095238Y-106309523D01*
X136285714Y-106404761D01*
X136571428Y-106404761D01*
X136761904Y-106309523D01*
X136857142Y-106214285D01*
X137809523Y-105071428D02*
X137809523Y-107071428D01*
X137809523Y-105166666D02*
X138000000Y-105071428D01*
X138380952Y-105071428D01*
X138571428Y-105166666D01*
X138666666Y-105261904D01*
X138761904Y-105452380D01*
X138761904Y-106023809D01*
X138666666Y-106214285D01*
X138571428Y-106309523D01*
X138380952Y-106404761D01*
X138000000Y-106404761D01*
X137809523Y-106309523D01*
X140380952Y-106309523D02*
X140190476Y-106404761D01*
X139809523Y-106404761D01*
X139619047Y-106309523D01*
X139523809Y-106119047D01*
X139523809Y-105357142D01*
X139619047Y-105166666D01*
X139809523Y-105071428D01*
X140190476Y-105071428D01*
X140380952Y-105166666D01*
X140476190Y-105357142D01*
X140476190Y-105547619D01*
X139523809Y-105738095D01*
X141333333Y-106404761D02*
X141333333Y-105071428D01*
X141333333Y-105452380D02*
X141428571Y-105261904D01*
X141523809Y-105166666D01*
X141714285Y-105071428D01*
X141904761Y-105071428D01*
X143714285Y-106214285D02*
X143619047Y-106309523D01*
X143333333Y-106404761D01*
X143142857Y-106404761D01*
X142857142Y-106309523D01*
X142666666Y-106119047D01*
X142571428Y-105928571D01*
X142476190Y-105547619D01*
X142476190Y-105261904D01*
X142571428Y-104880952D01*
X142666666Y-104690476D01*
X142857142Y-104500000D01*
X143142857Y-104404761D01*
X143333333Y-104404761D01*
X143619047Y-104500000D01*
X143714285Y-104595238D01*
X145428571Y-106404761D02*
X145428571Y-105357142D01*
X145333333Y-105166666D01*
X145142857Y-105071428D01*
X144761904Y-105071428D01*
X144571428Y-105166666D01*
X145428571Y-106309523D02*
X145238095Y-106404761D01*
X144761904Y-106404761D01*
X144571428Y-106309523D01*
X144476190Y-106119047D01*
X144476190Y-105928571D01*
X144571428Y-105738095D01*
X144761904Y-105642857D01*
X145238095Y-105642857D01*
X145428571Y-105547619D01*
X146380952Y-105071428D02*
X146380952Y-107071428D01*
X146380952Y-105166666D02*
X146571428Y-105071428D01*
X146952380Y-105071428D01*
X147142857Y-105166666D01*
X147238095Y-105261904D01*
X147333333Y-105452380D01*
X147333333Y-106023809D01*
X147238095Y-106214285D01*
X147142857Y-106309523D01*
X146952380Y-106404761D01*
X146571428Y-106404761D01*
X146380952Y-106309523D01*
X149047619Y-106404761D02*
X149047619Y-105357142D01*
X148952380Y-105166666D01*
X148761904Y-105071428D01*
X148380952Y-105071428D01*
X148190476Y-105166666D01*
X149047619Y-106309523D02*
X148857142Y-106404761D01*
X148380952Y-106404761D01*
X148190476Y-106309523D01*
X148095238Y-106119047D01*
X148095238Y-105928571D01*
X148190476Y-105738095D01*
X148380952Y-105642857D01*
X148857142Y-105642857D01*
X149047619Y-105547619D01*
X150857142Y-106309523D02*
X150666666Y-106404761D01*
X150285714Y-106404761D01*
X150095238Y-106309523D01*
X150000000Y-106214285D01*
X149904761Y-106023809D01*
X149904761Y-105452380D01*
X150000000Y-105261904D01*
X150095238Y-105166666D01*
X150285714Y-105071428D01*
X150666666Y-105071428D01*
X150857142Y-105166666D01*
X151714285Y-106404761D02*
X151714285Y-105071428D01*
X151714285Y-104404761D02*
X151619047Y-104500000D01*
X151714285Y-104595238D01*
X151809523Y-104500000D01*
X151714285Y-104404761D01*
X151714285Y-104595238D01*
X152380952Y-105071428D02*
X153142857Y-105071428D01*
X152666666Y-104404761D02*
X152666666Y-106119047D01*
X152761904Y-106309523D01*
X152952380Y-106404761D01*
X153142857Y-106404761D01*
X154095238Y-106404761D02*
X153904761Y-106309523D01*
X153809523Y-106214285D01*
X153714285Y-106023809D01*
X153714285Y-105452380D01*
X153809523Y-105261904D01*
X153904761Y-105166666D01*
X154095238Y-105071428D01*
X154380952Y-105071428D01*
X154571428Y-105166666D01*
X154666666Y-105261904D01*
X154761904Y-105452380D01*
X154761904Y-106023809D01*
X154666666Y-106214285D01*
X154571428Y-106309523D01*
X154380952Y-106404761D01*
X154095238Y-106404761D01*
X155619047Y-106404761D02*
X155619047Y-105071428D01*
X155619047Y-105452380D02*
X155714285Y-105261904D01*
X155809523Y-105166666D01*
X156000000Y-105071428D01*
X156190476Y-105071428D01*
D10*
X165309428Y-113658952D02*
X165309428Y-112897047D01*
X165690380Y-113278000D02*
X164928476Y-113278000D01*
%TO.C,C1*%
D13*
X164947714Y-93601600D02*
X164976742Y-93630628D01*
X165005771Y-93717714D01*
X165005771Y-93775771D01*
X164976742Y-93862857D01*
X164918685Y-93920914D01*
X164860628Y-93949942D01*
X164744514Y-93978971D01*
X164657428Y-93978971D01*
X164541314Y-93949942D01*
X164483257Y-93920914D01*
X164425200Y-93862857D01*
X164396171Y-93775771D01*
X164396171Y-93717714D01*
X164425200Y-93630628D01*
X164454228Y-93601600D01*
X165005771Y-93021028D02*
X165005771Y-93369371D01*
X165005771Y-93195200D02*
X164396171Y-93195200D01*
X164483257Y-93253257D01*
X164541314Y-93311314D01*
X164570342Y-93369371D01*
X167516742Y-96852800D02*
X167545771Y-96765714D01*
X167545771Y-96620571D01*
X167516742Y-96562514D01*
X167487714Y-96533485D01*
X167429657Y-96504457D01*
X167371600Y-96504457D01*
X167313542Y-96533485D01*
X167284514Y-96562514D01*
X167255485Y-96620571D01*
X167226457Y-96736685D01*
X167197428Y-96794742D01*
X167168400Y-96823771D01*
X167110342Y-96852800D01*
X167052285Y-96852800D01*
X166994228Y-96823771D01*
X166965200Y-96794742D01*
X166936171Y-96736685D01*
X166936171Y-96591542D01*
X166965200Y-96504457D01*
X167139371Y-95981942D02*
X167545771Y-95981942D01*
X167139371Y-96243200D02*
X167458685Y-96243200D01*
X167516742Y-96214171D01*
X167545771Y-96156114D01*
X167545771Y-96069028D01*
X167516742Y-96010971D01*
X167487714Y-95981942D01*
X167139371Y-95691657D02*
X167748971Y-95691657D01*
X167168400Y-95691657D02*
X167139371Y-95633600D01*
X167139371Y-95517485D01*
X167168400Y-95459428D01*
X167197428Y-95430400D01*
X167255485Y-95401371D01*
X167429657Y-95401371D01*
X167487714Y-95430400D01*
X167516742Y-95459428D01*
X167545771Y-95517485D01*
X167545771Y-95633600D01*
X167516742Y-95691657D01*
X167516742Y-94907885D02*
X167545771Y-94965942D01*
X167545771Y-95082057D01*
X167516742Y-95140114D01*
X167458685Y-95169142D01*
X167226457Y-95169142D01*
X167168400Y-95140114D01*
X167139371Y-95082057D01*
X167139371Y-94965942D01*
X167168400Y-94907885D01*
X167226457Y-94878857D01*
X167284514Y-94878857D01*
X167342571Y-95169142D01*
X167545771Y-94617600D02*
X167139371Y-94617600D01*
X167255485Y-94617600D02*
X167197428Y-94588571D01*
X167168400Y-94559542D01*
X167139371Y-94501485D01*
X167139371Y-94443428D01*
X167487714Y-93891885D02*
X167516742Y-93920914D01*
X167545771Y-94008000D01*
X167545771Y-94066057D01*
X167516742Y-94153142D01*
X167458685Y-94211200D01*
X167400628Y-94240228D01*
X167284514Y-94269257D01*
X167197428Y-94269257D01*
X167081314Y-94240228D01*
X167023257Y-94211200D01*
X166965200Y-94153142D01*
X166936171Y-94066057D01*
X166936171Y-94008000D01*
X166965200Y-93920914D01*
X166994228Y-93891885D01*
X167545771Y-93369371D02*
X167226457Y-93369371D01*
X167168400Y-93398400D01*
X167139371Y-93456457D01*
X167139371Y-93572571D01*
X167168400Y-93630628D01*
X167516742Y-93369371D02*
X167545771Y-93427428D01*
X167545771Y-93572571D01*
X167516742Y-93630628D01*
X167458685Y-93659657D01*
X167400628Y-93659657D01*
X167342571Y-93630628D01*
X167313542Y-93572571D01*
X167313542Y-93427428D01*
X167284514Y-93369371D01*
X167139371Y-93079085D02*
X167748971Y-93079085D01*
X167168400Y-93079085D02*
X167139371Y-93021028D01*
X167139371Y-92904914D01*
X167168400Y-92846857D01*
X167197428Y-92817828D01*
X167255485Y-92788800D01*
X167429657Y-92788800D01*
X167487714Y-92817828D01*
X167516742Y-92846857D01*
X167545771Y-92904914D01*
X167545771Y-93021028D01*
X167516742Y-93079085D01*
X167545771Y-92266285D02*
X167226457Y-92266285D01*
X167168400Y-92295314D01*
X167139371Y-92353371D01*
X167139371Y-92469485D01*
X167168400Y-92527542D01*
X167516742Y-92266285D02*
X167545771Y-92324342D01*
X167545771Y-92469485D01*
X167516742Y-92527542D01*
X167458685Y-92556571D01*
X167400628Y-92556571D01*
X167342571Y-92527542D01*
X167313542Y-92469485D01*
X167313542Y-92324342D01*
X167284514Y-92266285D01*
X167516742Y-91714742D02*
X167545771Y-91772800D01*
X167545771Y-91888914D01*
X167516742Y-91946971D01*
X167487714Y-91976000D01*
X167429657Y-92005028D01*
X167255485Y-92005028D01*
X167197428Y-91976000D01*
X167168400Y-91946971D01*
X167139371Y-91888914D01*
X167139371Y-91772800D01*
X167168400Y-91714742D01*
X167545771Y-91453485D02*
X167139371Y-91453485D01*
X166936171Y-91453485D02*
X166965200Y-91482514D01*
X166994228Y-91453485D01*
X166965200Y-91424457D01*
X166936171Y-91453485D01*
X166994228Y-91453485D01*
X167139371Y-91250285D02*
X167139371Y-91018057D01*
X166936171Y-91163200D02*
X167458685Y-91163200D01*
X167516742Y-91134171D01*
X167545771Y-91076114D01*
X167545771Y-91018057D01*
X167545771Y-90727771D02*
X167516742Y-90785828D01*
X167487714Y-90814857D01*
X167429657Y-90843885D01*
X167255485Y-90843885D01*
X167197428Y-90814857D01*
X167168400Y-90785828D01*
X167139371Y-90727771D01*
X167139371Y-90640685D01*
X167168400Y-90582628D01*
X167197428Y-90553600D01*
X167255485Y-90524571D01*
X167429657Y-90524571D01*
X167487714Y-90553600D01*
X167516742Y-90582628D01*
X167545771Y-90640685D01*
X167545771Y-90727771D01*
X167545771Y-90263314D02*
X167139371Y-90263314D01*
X167255485Y-90263314D02*
X167197428Y-90234285D01*
X167168400Y-90205257D01*
X167139371Y-90147200D01*
X167139371Y-90089142D01*
D16*
X134000000Y-88309523D02*
X134285714Y-88404761D01*
X134761904Y-88404761D01*
X134952380Y-88309523D01*
X135047619Y-88214285D01*
X135142857Y-88023809D01*
X135142857Y-87833333D01*
X135047619Y-87642857D01*
X134952380Y-87547619D01*
X134761904Y-87452380D01*
X134380952Y-87357142D01*
X134190476Y-87261904D01*
X134095238Y-87166666D01*
X134000000Y-86976190D01*
X134000000Y-86785714D01*
X134095238Y-86595238D01*
X134190476Y-86500000D01*
X134380952Y-86404761D01*
X134857142Y-86404761D01*
X135142857Y-86500000D01*
X136857142Y-87071428D02*
X136857142Y-88404761D01*
X136000000Y-87071428D02*
X136000000Y-88119047D01*
X136095238Y-88309523D01*
X136285714Y-88404761D01*
X136571428Y-88404761D01*
X136761904Y-88309523D01*
X136857142Y-88214285D01*
X137809523Y-87071428D02*
X137809523Y-89071428D01*
X137809523Y-87166666D02*
X138000000Y-87071428D01*
X138380952Y-87071428D01*
X138571428Y-87166666D01*
X138666666Y-87261904D01*
X138761904Y-87452380D01*
X138761904Y-88023809D01*
X138666666Y-88214285D01*
X138571428Y-88309523D01*
X138380952Y-88404761D01*
X138000000Y-88404761D01*
X137809523Y-88309523D01*
X140380952Y-88309523D02*
X140190476Y-88404761D01*
X139809523Y-88404761D01*
X139619047Y-88309523D01*
X139523809Y-88119047D01*
X139523809Y-87357142D01*
X139619047Y-87166666D01*
X139809523Y-87071428D01*
X140190476Y-87071428D01*
X140380952Y-87166666D01*
X140476190Y-87357142D01*
X140476190Y-87547619D01*
X139523809Y-87738095D01*
X141333333Y-88404761D02*
X141333333Y-87071428D01*
X141333333Y-87452380D02*
X141428571Y-87261904D01*
X141523809Y-87166666D01*
X141714285Y-87071428D01*
X141904761Y-87071428D01*
X143714285Y-88214285D02*
X143619047Y-88309523D01*
X143333333Y-88404761D01*
X143142857Y-88404761D01*
X142857142Y-88309523D01*
X142666666Y-88119047D01*
X142571428Y-87928571D01*
X142476190Y-87547619D01*
X142476190Y-87261904D01*
X142571428Y-86880952D01*
X142666666Y-86690476D01*
X142857142Y-86500000D01*
X143142857Y-86404761D01*
X143333333Y-86404761D01*
X143619047Y-86500000D01*
X143714285Y-86595238D01*
X145428571Y-88404761D02*
X145428571Y-87357142D01*
X145333333Y-87166666D01*
X145142857Y-87071428D01*
X144761904Y-87071428D01*
X144571428Y-87166666D01*
X145428571Y-88309523D02*
X145238095Y-88404761D01*
X144761904Y-88404761D01*
X144571428Y-88309523D01*
X144476190Y-88119047D01*
X144476190Y-87928571D01*
X144571428Y-87738095D01*
X144761904Y-87642857D01*
X145238095Y-87642857D01*
X145428571Y-87547619D01*
X146380952Y-87071428D02*
X146380952Y-89071428D01*
X146380952Y-87166666D02*
X146571428Y-87071428D01*
X146952380Y-87071428D01*
X147142857Y-87166666D01*
X147238095Y-87261904D01*
X147333333Y-87452380D01*
X147333333Y-88023809D01*
X147238095Y-88214285D01*
X147142857Y-88309523D01*
X146952380Y-88404761D01*
X146571428Y-88404761D01*
X146380952Y-88309523D01*
X149047619Y-88404761D02*
X149047619Y-87357142D01*
X148952380Y-87166666D01*
X148761904Y-87071428D01*
X148380952Y-87071428D01*
X148190476Y-87166666D01*
X149047619Y-88309523D02*
X148857142Y-88404761D01*
X148380952Y-88404761D01*
X148190476Y-88309523D01*
X148095238Y-88119047D01*
X148095238Y-87928571D01*
X148190476Y-87738095D01*
X148380952Y-87642857D01*
X148857142Y-87642857D01*
X149047619Y-87547619D01*
X150857142Y-88309523D02*
X150666666Y-88404761D01*
X150285714Y-88404761D01*
X150095238Y-88309523D01*
X150000000Y-88214285D01*
X149904761Y-88023809D01*
X149904761Y-87452380D01*
X150000000Y-87261904D01*
X150095238Y-87166666D01*
X150285714Y-87071428D01*
X150666666Y-87071428D01*
X150857142Y-87166666D01*
X151714285Y-88404761D02*
X151714285Y-87071428D01*
X151714285Y-86404761D02*
X151619047Y-86500000D01*
X151714285Y-86595238D01*
X151809523Y-86500000D01*
X151714285Y-86404761D01*
X151714285Y-86595238D01*
X152380952Y-87071428D02*
X153142857Y-87071428D01*
X152666666Y-86404761D02*
X152666666Y-88119047D01*
X152761904Y-88309523D01*
X152952380Y-88404761D01*
X153142857Y-88404761D01*
X154095238Y-88404761D02*
X153904761Y-88309523D01*
X153809523Y-88214285D01*
X153714285Y-88023809D01*
X153714285Y-87452380D01*
X153809523Y-87261904D01*
X153904761Y-87166666D01*
X154095238Y-87071428D01*
X154380952Y-87071428D01*
X154571428Y-87166666D01*
X154666666Y-87261904D01*
X154761904Y-87452380D01*
X154761904Y-88023809D01*
X154666666Y-88214285D01*
X154571428Y-88309523D01*
X154380952Y-88404761D01*
X154095238Y-88404761D01*
X155619047Y-88404761D02*
X155619047Y-87071428D01*
X155619047Y-87452380D02*
X155714285Y-87261904D01*
X155809523Y-87166666D01*
X156000000Y-87071428D01*
X156190476Y-87071428D01*
D10*
X165309428Y-95658952D02*
X165309428Y-94897047D01*
X165690380Y-95278000D02*
X164928476Y-95278000D01*
%TD*%
M02*
