%TF.GenerationSoftware,KiCad,Pcbnew,(5.1.6)-1*%
%TF.CreationDate,2020-12-03T13:02:19+08:00*%
%TF.ProjectId,SuperCap_UPS,53757065-7243-4617-905f-5550532e6b69,rev?*%
%TF.SameCoordinates,Original*%
%TF.FileFunction,Copper,L1,Top*%
%TF.FilePolarity,Positive*%
%FSLAX46Y46*%
G04 Gerber Fmt 4.6, Leading zero omitted, Abs format (unit mm)*
G04 Created by KiCad (PCBNEW (5.1.6)-1) date 2020-12-03 13:02:19*
%MOMM*%
%LPD*%
G01*
G04 APERTURE LIST*
%TA.AperFunction,ComponentPad*%
%ADD10O,1.700000X1.700000*%
%TD*%
%TA.AperFunction,ComponentPad*%
%ADD11R,1.700000X1.700000*%
%TD*%
%TA.AperFunction,ComponentPad*%
%ADD12C,5.000000*%
%TD*%
%TA.AperFunction,ComponentPad*%
%ADD13O,3.600000X1.800000*%
%TD*%
%TA.AperFunction,SMDPad,CuDef*%
%ADD14R,3.750000X4.700000*%
%TD*%
%TA.AperFunction,SMDPad,CuDef*%
%ADD15R,1.050000X0.850000*%
%TD*%
%TA.AperFunction,SMDPad,CuDef*%
%ADD16R,1.450000X0.850000*%
%TD*%
%TA.AperFunction,SMDPad,CuDef*%
%ADD17R,3.000000X2.500000*%
%TD*%
%TA.AperFunction,ComponentPad*%
%ADD18C,1.651000*%
%TD*%
%TA.AperFunction,ViaPad*%
%ADD19C,0.800000*%
%TD*%
%TA.AperFunction,ViaPad*%
%ADD20C,0.600000*%
%TD*%
%TA.AperFunction,Conductor*%
%ADD21C,0.762000*%
%TD*%
%TA.AperFunction,Conductor*%
%ADD22C,0.304800*%
%TD*%
%TA.AperFunction,Conductor*%
%ADD23C,0.200000*%
%TD*%
%TA.AperFunction,Conductor*%
%ADD24C,0.254000*%
%TD*%
G04 APERTURE END LIST*
D10*
%TO.P,J2,5*%
%TO.N,Net-(J2-Pad5)*%
X198040000Y-117500000D03*
%TO.P,J2,4*%
%TO.N,Net-(J2-Pad4)*%
X195500000Y-117500000D03*
%TO.P,J2,3*%
%TO.N,Net-(J2-Pad3)*%
X192960000Y-117500000D03*
%TO.P,J2,2*%
%TO.N,Net-(J2-Pad2)*%
X190420000Y-117500000D03*
D11*
%TO.P,J2,1*%
%TO.N,Net-(J2-Pad1)*%
X187880000Y-117500000D03*
%TD*%
D12*
%TO.P,REF\u002A\u002A,*%
%TO.N,*%
X163000000Y-86000000D03*
%TD*%
%TO.P,REF\u002A\u002A,*%
%TO.N,*%
X163000000Y-119000000D03*
%TD*%
%TO.P,REF\u002A\u002A,*%
%TO.N,*%
X203000000Y-119000000D03*
%TD*%
%TO.P,REF\u002A\u002A,*%
%TO.N,*%
X203000000Y-86000000D03*
%TD*%
D13*
%TO.P,J1,4*%
%TO.N,Vin*%
X198000000Y-97000000D03*
%TO.P,J1,3*%
%TO.N,GND*%
X198000000Y-100500000D03*
%TO.P,J1,2*%
X198000000Y-104000000D03*
%TO.P,J1,1*%
%TO.N,Vout*%
%TA.AperFunction,ComponentPad*%
G36*
G01*
X199550000Y-108400000D02*
X196450000Y-108400000D01*
G75*
G02*
X196200000Y-108150000I0J250000D01*
G01*
X196200000Y-106850000D01*
G75*
G02*
X196450000Y-106600000I250000J0D01*
G01*
X199550000Y-106600000D01*
G75*
G02*
X199800000Y-106850000I0J-250000D01*
G01*
X199800000Y-108150000D01*
G75*
G02*
X199550000Y-108400000I-250000J0D01*
G01*
G37*
%TD.AperFunction*%
%TD*%
%TO.P,R9,2*%
%TO.N,GND*%
%TA.AperFunction,SMDPad,CuDef*%
G36*
G01*
X174350000Y-111556250D02*
X174350000Y-111043750D01*
G75*
G02*
X174568750Y-110825000I218750J0D01*
G01*
X175006250Y-110825000D01*
G75*
G02*
X175225000Y-111043750I0J-218750D01*
G01*
X175225000Y-111556250D01*
G75*
G02*
X175006250Y-111775000I-218750J0D01*
G01*
X174568750Y-111775000D01*
G75*
G02*
X174350000Y-111556250I0J218750D01*
G01*
G37*
%TD.AperFunction*%
%TO.P,R9,1*%
%TO.N,Net-(R8-Pad2)*%
%TA.AperFunction,SMDPad,CuDef*%
G36*
G01*
X172775000Y-111556250D02*
X172775000Y-111043750D01*
G75*
G02*
X172993750Y-110825000I218750J0D01*
G01*
X173431250Y-110825000D01*
G75*
G02*
X173650000Y-111043750I0J-218750D01*
G01*
X173650000Y-111556250D01*
G75*
G02*
X173431250Y-111775000I-218750J0D01*
G01*
X172993750Y-111775000D01*
G75*
G02*
X172775000Y-111556250I0J218750D01*
G01*
G37*
%TD.AperFunction*%
%TD*%
%TO.P,R8,2*%
%TO.N,Net-(R8-Pad2)*%
%TA.AperFunction,SMDPad,CuDef*%
G36*
G01*
X170350000Y-111556250D02*
X170350000Y-111043750D01*
G75*
G02*
X170568750Y-110825000I218750J0D01*
G01*
X171006250Y-110825000D01*
G75*
G02*
X171225000Y-111043750I0J-218750D01*
G01*
X171225000Y-111556250D01*
G75*
G02*
X171006250Y-111775000I-218750J0D01*
G01*
X170568750Y-111775000D01*
G75*
G02*
X170350000Y-111556250I0J218750D01*
G01*
G37*
%TD.AperFunction*%
%TO.P,R8,1*%
%TO.N,Net-(C1-Pad1)*%
%TA.AperFunction,SMDPad,CuDef*%
G36*
G01*
X168775000Y-111556250D02*
X168775000Y-111043750D01*
G75*
G02*
X168993750Y-110825000I218750J0D01*
G01*
X169431250Y-110825000D01*
G75*
G02*
X169650000Y-111043750I0J-218750D01*
G01*
X169650000Y-111556250D01*
G75*
G02*
X169431250Y-111775000I-218750J0D01*
G01*
X168993750Y-111775000D01*
G75*
G02*
X168775000Y-111556250I0J218750D01*
G01*
G37*
%TD.AperFunction*%
%TD*%
%TO.P,R7,2*%
%TO.N,Net-(R6-Pad2)*%
%TA.AperFunction,SMDPad,CuDef*%
G36*
G01*
X192650000Y-94243750D02*
X192650000Y-94756250D01*
G75*
G02*
X192431250Y-94975000I-218750J0D01*
G01*
X191993750Y-94975000D01*
G75*
G02*
X191775000Y-94756250I0J218750D01*
G01*
X191775000Y-94243750D01*
G75*
G02*
X191993750Y-94025000I218750J0D01*
G01*
X192431250Y-94025000D01*
G75*
G02*
X192650000Y-94243750I0J-218750D01*
G01*
G37*
%TD.AperFunction*%
%TO.P,R7,1*%
%TO.N,GND*%
%TA.AperFunction,SMDPad,CuDef*%
G36*
G01*
X194225000Y-94243750D02*
X194225000Y-94756250D01*
G75*
G02*
X194006250Y-94975000I-218750J0D01*
G01*
X193568750Y-94975000D01*
G75*
G02*
X193350000Y-94756250I0J218750D01*
G01*
X193350000Y-94243750D01*
G75*
G02*
X193568750Y-94025000I218750J0D01*
G01*
X194006250Y-94025000D01*
G75*
G02*
X194225000Y-94243750I0J-218750D01*
G01*
G37*
%TD.AperFunction*%
%TD*%
%TO.P,R6,2*%
%TO.N,Net-(R6-Pad2)*%
%TA.AperFunction,SMDPad,CuDef*%
G36*
G01*
X189350000Y-94756250D02*
X189350000Y-94243750D01*
G75*
G02*
X189568750Y-94025000I218750J0D01*
G01*
X190006250Y-94025000D01*
G75*
G02*
X190225000Y-94243750I0J-218750D01*
G01*
X190225000Y-94756250D01*
G75*
G02*
X190006250Y-94975000I-218750J0D01*
G01*
X189568750Y-94975000D01*
G75*
G02*
X189350000Y-94756250I0J218750D01*
G01*
G37*
%TD.AperFunction*%
%TO.P,R6,1*%
%TO.N,Vout*%
%TA.AperFunction,SMDPad,CuDef*%
G36*
G01*
X187775000Y-94756250D02*
X187775000Y-94243750D01*
G75*
G02*
X187993750Y-94025000I218750J0D01*
G01*
X188431250Y-94025000D01*
G75*
G02*
X188650000Y-94243750I0J-218750D01*
G01*
X188650000Y-94756250D01*
G75*
G02*
X188431250Y-94975000I-218750J0D01*
G01*
X187993750Y-94975000D01*
G75*
G02*
X187775000Y-94756250I0J218750D01*
G01*
G37*
%TD.AperFunction*%
%TD*%
%TO.P,R5,2*%
%TO.N,GND*%
%TA.AperFunction,SMDPad,CuDef*%
G36*
G01*
X178350000Y-111556250D02*
X178350000Y-111043750D01*
G75*
G02*
X178568750Y-110825000I218750J0D01*
G01*
X179006250Y-110825000D01*
G75*
G02*
X179225000Y-111043750I0J-218750D01*
G01*
X179225000Y-111556250D01*
G75*
G02*
X179006250Y-111775000I-218750J0D01*
G01*
X178568750Y-111775000D01*
G75*
G02*
X178350000Y-111556250I0J218750D01*
G01*
G37*
%TD.AperFunction*%
%TO.P,R5,1*%
%TO.N,Net-(R5-Pad1)*%
%TA.AperFunction,SMDPad,CuDef*%
G36*
G01*
X176775000Y-111556250D02*
X176775000Y-111043750D01*
G75*
G02*
X176993750Y-110825000I218750J0D01*
G01*
X177431250Y-110825000D01*
G75*
G02*
X177650000Y-111043750I0J-218750D01*
G01*
X177650000Y-111556250D01*
G75*
G02*
X177431250Y-111775000I-218750J0D01*
G01*
X176993750Y-111775000D01*
G75*
G02*
X176775000Y-111556250I0J218750D01*
G01*
G37*
%TD.AperFunction*%
%TD*%
%TO.P,R4,2*%
%TO.N,Net-(C3-Pad1)*%
%TA.AperFunction,SMDPad,CuDef*%
G36*
G01*
X182775000Y-109074999D02*
X182775000Y-111925001D01*
G75*
G02*
X182525001Y-112175000I-249999J0D01*
G01*
X181674999Y-112175000D01*
G75*
G02*
X181425000Y-111925001I0J249999D01*
G01*
X181425000Y-109074999D01*
G75*
G02*
X181674999Y-108825000I249999J0D01*
G01*
X182525001Y-108825000D01*
G75*
G02*
X182775000Y-109074999I0J-249999D01*
G01*
G37*
%TD.AperFunction*%
%TO.P,R4,1*%
%TO.N,Net-(Q2-Pad2)*%
%TA.AperFunction,SMDPad,CuDef*%
G36*
G01*
X188575000Y-109074999D02*
X188575000Y-111925001D01*
G75*
G02*
X188325001Y-112175000I-249999J0D01*
G01*
X187474999Y-112175000D01*
G75*
G02*
X187225000Y-111925001I0J249999D01*
G01*
X187225000Y-109074999D01*
G75*
G02*
X187474999Y-108825000I249999J0D01*
G01*
X188325001Y-108825000D01*
G75*
G02*
X188575000Y-109074999I0J-249999D01*
G01*
G37*
%TD.AperFunction*%
%TD*%
%TO.P,R3,2*%
%TO.N,GND*%
%TA.AperFunction,SMDPad,CuDef*%
G36*
G01*
X174350000Y-94756250D02*
X174350000Y-94243750D01*
G75*
G02*
X174568750Y-94025000I218750J0D01*
G01*
X175006250Y-94025000D01*
G75*
G02*
X175225000Y-94243750I0J-218750D01*
G01*
X175225000Y-94756250D01*
G75*
G02*
X175006250Y-94975000I-218750J0D01*
G01*
X174568750Y-94975000D01*
G75*
G02*
X174350000Y-94756250I0J218750D01*
G01*
G37*
%TD.AperFunction*%
%TO.P,R3,1*%
%TO.N,Net-(R2-Pad1)*%
%TA.AperFunction,SMDPad,CuDef*%
G36*
G01*
X172775000Y-94756250D02*
X172775000Y-94243750D01*
G75*
G02*
X172993750Y-94025000I218750J0D01*
G01*
X173431250Y-94025000D01*
G75*
G02*
X173650000Y-94243750I0J-218750D01*
G01*
X173650000Y-94756250D01*
G75*
G02*
X173431250Y-94975000I-218750J0D01*
G01*
X172993750Y-94975000D01*
G75*
G02*
X172775000Y-94756250I0J218750D01*
G01*
G37*
%TD.AperFunction*%
%TD*%
%TO.P,R2,2*%
%TO.N,Vin*%
%TA.AperFunction,SMDPad,CuDef*%
G36*
G01*
X169650000Y-94243750D02*
X169650000Y-94756250D01*
G75*
G02*
X169431250Y-94975000I-218750J0D01*
G01*
X168993750Y-94975000D01*
G75*
G02*
X168775000Y-94756250I0J218750D01*
G01*
X168775000Y-94243750D01*
G75*
G02*
X168993750Y-94025000I218750J0D01*
G01*
X169431250Y-94025000D01*
G75*
G02*
X169650000Y-94243750I0J-218750D01*
G01*
G37*
%TD.AperFunction*%
%TO.P,R2,1*%
%TO.N,Net-(R2-Pad1)*%
%TA.AperFunction,SMDPad,CuDef*%
G36*
G01*
X171225000Y-94243750D02*
X171225000Y-94756250D01*
G75*
G02*
X171006250Y-94975000I-218750J0D01*
G01*
X170568750Y-94975000D01*
G75*
G02*
X170350000Y-94756250I0J218750D01*
G01*
X170350000Y-94243750D01*
G75*
G02*
X170568750Y-94025000I218750J0D01*
G01*
X171006250Y-94025000D01*
G75*
G02*
X171225000Y-94243750I0J-218750D01*
G01*
G37*
%TD.AperFunction*%
%TD*%
%TO.P,R1,2*%
%TO.N,Net-(R1-Pad2)*%
%TA.AperFunction,SMDPad,CuDef*%
G36*
G01*
X178350000Y-94756250D02*
X178350000Y-94243750D01*
G75*
G02*
X178568750Y-94025000I218750J0D01*
G01*
X179006250Y-94025000D01*
G75*
G02*
X179225000Y-94243750I0J-218750D01*
G01*
X179225000Y-94756250D01*
G75*
G02*
X179006250Y-94975000I-218750J0D01*
G01*
X178568750Y-94975000D01*
G75*
G02*
X178350000Y-94756250I0J218750D01*
G01*
G37*
%TD.AperFunction*%
%TO.P,R1,1*%
%TO.N,Vin*%
%TA.AperFunction,SMDPad,CuDef*%
G36*
G01*
X176775000Y-94756250D02*
X176775000Y-94243750D01*
G75*
G02*
X176993750Y-94025000I218750J0D01*
G01*
X177431250Y-94025000D01*
G75*
G02*
X177650000Y-94243750I0J-218750D01*
G01*
X177650000Y-94756250D01*
G75*
G02*
X177431250Y-94975000I-218750J0D01*
G01*
X176993750Y-94975000D01*
G75*
G02*
X176775000Y-94756250I0J218750D01*
G01*
G37*
%TD.AperFunction*%
%TD*%
D14*
%TO.P,Q2,3*%
%TO.N,Vout*%
X188350000Y-88500000D03*
D15*
X190750000Y-86595000D03*
X190750000Y-87865000D03*
X190750000Y-89135000D03*
X190750000Y-90405000D03*
D16*
%TO.P,Q2,1*%
%TO.N,Net-(Q1-Pad1)*%
X185050000Y-90405000D03*
%TO.P,Q2,2*%
%TO.N,Net-(Q2-Pad2)*%
X185050000Y-89135000D03*
X185050000Y-87865000D03*
X185050000Y-86595000D03*
%TD*%
D14*
%TO.P,Q1,3*%
%TO.N,Vin*%
X176350000Y-88500000D03*
D15*
X173950000Y-90405000D03*
X173950000Y-89135000D03*
X173950000Y-87865000D03*
X173950000Y-86595000D03*
D16*
%TO.P,Q1,1*%
%TO.N,Net-(Q1-Pad1)*%
X179650000Y-86595000D03*
%TO.P,Q1,2*%
%TO.N,Net-(C3-Pad1)*%
X179650000Y-87865000D03*
X179650000Y-89135000D03*
X179650000Y-90405000D03*
%TD*%
%TO.P,C5,2*%
%TO.N,GND*%
%TA.AperFunction,SMDPad,CuDef*%
G36*
G01*
X192775000Y-107075000D02*
X192775000Y-104925000D01*
G75*
G02*
X193025000Y-104675000I250000J0D01*
G01*
X193775000Y-104675000D01*
G75*
G02*
X194025000Y-104925000I0J-250000D01*
G01*
X194025000Y-107075000D01*
G75*
G02*
X193775000Y-107325000I-250000J0D01*
G01*
X193025000Y-107325000D01*
G75*
G02*
X192775000Y-107075000I0J250000D01*
G01*
G37*
%TD.AperFunction*%
%TO.P,C5,1*%
%TO.N,Vout*%
%TA.AperFunction,SMDPad,CuDef*%
G36*
G01*
X189975000Y-107075000D02*
X189975000Y-104925000D01*
G75*
G02*
X190225000Y-104675000I250000J0D01*
G01*
X190975000Y-104675000D01*
G75*
G02*
X191225000Y-104925000I0J-250000D01*
G01*
X191225000Y-107075000D01*
G75*
G02*
X190975000Y-107325000I-250000J0D01*
G01*
X190225000Y-107325000D01*
G75*
G02*
X189975000Y-107075000I0J250000D01*
G01*
G37*
%TD.AperFunction*%
%TD*%
%TO.P,C4,2*%
%TO.N,GND*%
%TA.AperFunction,SMDPad,CuDef*%
G36*
G01*
X185350000Y-94756250D02*
X185350000Y-94243750D01*
G75*
G02*
X185568750Y-94025000I218750J0D01*
G01*
X186006250Y-94025000D01*
G75*
G02*
X186225000Y-94243750I0J-218750D01*
G01*
X186225000Y-94756250D01*
G75*
G02*
X186006250Y-94975000I-218750J0D01*
G01*
X185568750Y-94975000D01*
G75*
G02*
X185350000Y-94756250I0J218750D01*
G01*
G37*
%TD.AperFunction*%
%TO.P,C4,1*%
%TO.N,Net-(C4-Pad1)*%
%TA.AperFunction,SMDPad,CuDef*%
G36*
G01*
X183775000Y-94756250D02*
X183775000Y-94243750D01*
G75*
G02*
X183993750Y-94025000I218750J0D01*
G01*
X184431250Y-94025000D01*
G75*
G02*
X184650000Y-94243750I0J-218750D01*
G01*
X184650000Y-94756250D01*
G75*
G02*
X184431250Y-94975000I-218750J0D01*
G01*
X183993750Y-94975000D01*
G75*
G02*
X183775000Y-94756250I0J218750D01*
G01*
G37*
%TD.AperFunction*%
%TD*%
%TO.P,C3,2*%
%TO.N,GND*%
%TA.AperFunction,SMDPad,CuDef*%
G36*
G01*
X192775000Y-100075000D02*
X192775000Y-97925000D01*
G75*
G02*
X193025000Y-97675000I250000J0D01*
G01*
X193775000Y-97675000D01*
G75*
G02*
X194025000Y-97925000I0J-250000D01*
G01*
X194025000Y-100075000D01*
G75*
G02*
X193775000Y-100325000I-250000J0D01*
G01*
X193025000Y-100325000D01*
G75*
G02*
X192775000Y-100075000I0J250000D01*
G01*
G37*
%TD.AperFunction*%
%TO.P,C3,1*%
%TO.N,Net-(C3-Pad1)*%
%TA.AperFunction,SMDPad,CuDef*%
G36*
G01*
X189975000Y-100075000D02*
X189975000Y-97925000D01*
G75*
G02*
X190225000Y-97675000I250000J0D01*
G01*
X190975000Y-97675000D01*
G75*
G02*
X191225000Y-97925000I0J-250000D01*
G01*
X191225000Y-100075000D01*
G75*
G02*
X190975000Y-100325000I-250000J0D01*
G01*
X190225000Y-100325000D01*
G75*
G02*
X189975000Y-100075000I0J250000D01*
G01*
G37*
%TD.AperFunction*%
%TD*%
D17*
%TO.P,L1,2*%
%TO.N,Net-(C1-Pad1)*%
X173200000Y-105325000D03*
%TO.P,L1,1*%
%TO.N,Net-(L1-Pad1)*%
X173200000Y-99675000D03*
%TD*%
%TO.P,U1,25*%
%TO.N,GND*%
%TA.AperFunction,SMDPad,CuDef*%
G36*
G01*
X184500000Y-103125000D02*
X182900000Y-103125000D01*
G75*
G02*
X182775000Y-103000000I0J125000D01*
G01*
X182775000Y-102000000D01*
G75*
G02*
X182900000Y-101875000I125000J0D01*
G01*
X184500000Y-101875000D01*
G75*
G02*
X184625000Y-102000000I0J-125000D01*
G01*
X184625000Y-103000000D01*
G75*
G02*
X184500000Y-103125000I-125000J0D01*
G01*
G37*
%TD.AperFunction*%
%TO.P,U1,1*%
%TO.N,Vout*%
%TA.AperFunction,SMDPad,CuDef*%
G36*
G01*
X182300000Y-104900000D02*
X182100000Y-104900000D01*
G75*
G02*
X182075000Y-104875000I0J25000D01*
G01*
X182075000Y-103925000D01*
G75*
G02*
X182100000Y-103900000I25000J0D01*
G01*
X182300000Y-103900000D01*
G75*
G02*
X182325000Y-103925000I0J-25000D01*
G01*
X182325000Y-104875000D01*
G75*
G02*
X182300000Y-104900000I-25000J0D01*
G01*
G37*
%TD.AperFunction*%
%TO.P,U1,2*%
%TO.N,Net-(R5-Pad1)*%
%TA.AperFunction,SMDPad,CuDef*%
G36*
G01*
X182800000Y-104900000D02*
X182600000Y-104900000D01*
G75*
G02*
X182575000Y-104875000I0J25000D01*
G01*
X182575000Y-103925000D01*
G75*
G02*
X182600000Y-103900000I25000J0D01*
G01*
X182800000Y-103900000D01*
G75*
G02*
X182825000Y-103925000I0J-25000D01*
G01*
X182825000Y-104875000D01*
G75*
G02*
X182800000Y-104900000I-25000J0D01*
G01*
G37*
%TD.AperFunction*%
%TO.P,U1,3*%
%TO.N,Net-(J2-Pad2)*%
%TA.AperFunction,SMDPad,CuDef*%
G36*
G01*
X183300000Y-104900000D02*
X183100000Y-104900000D01*
G75*
G02*
X183075000Y-104875000I0J25000D01*
G01*
X183075000Y-103925000D01*
G75*
G02*
X183100000Y-103900000I25000J0D01*
G01*
X183300000Y-103900000D01*
G75*
G02*
X183325000Y-103925000I0J-25000D01*
G01*
X183325000Y-104875000D01*
G75*
G02*
X183300000Y-104900000I-25000J0D01*
G01*
G37*
%TD.AperFunction*%
%TO.P,U1,4*%
%TO.N,GND*%
%TA.AperFunction,SMDPad,CuDef*%
G36*
G01*
X183800000Y-104900000D02*
X183600000Y-104900000D01*
G75*
G02*
X183575000Y-104875000I0J25000D01*
G01*
X183575000Y-103925000D01*
G75*
G02*
X183600000Y-103900000I25000J0D01*
G01*
X183800000Y-103900000D01*
G75*
G02*
X183825000Y-103925000I0J-25000D01*
G01*
X183825000Y-104875000D01*
G75*
G02*
X183800000Y-104900000I-25000J0D01*
G01*
G37*
%TD.AperFunction*%
%TO.P,U1,5*%
%TA.AperFunction,SMDPad,CuDef*%
G36*
G01*
X184300000Y-104900000D02*
X184100000Y-104900000D01*
G75*
G02*
X184075000Y-104875000I0J25000D01*
G01*
X184075000Y-103925000D01*
G75*
G02*
X184100000Y-103900000I25000J0D01*
G01*
X184300000Y-103900000D01*
G75*
G02*
X184325000Y-103925000I0J-25000D01*
G01*
X184325000Y-104875000D01*
G75*
G02*
X184300000Y-104900000I-25000J0D01*
G01*
G37*
%TD.AperFunction*%
%TO.P,U1,6*%
%TO.N,Net-(C3-Pad1)*%
%TA.AperFunction,SMDPad,CuDef*%
G36*
G01*
X184800000Y-104900000D02*
X184600000Y-104900000D01*
G75*
G02*
X184575000Y-104875000I0J25000D01*
G01*
X184575000Y-103925000D01*
G75*
G02*
X184600000Y-103900000I25000J0D01*
G01*
X184800000Y-103900000D01*
G75*
G02*
X184825000Y-103925000I0J-25000D01*
G01*
X184825000Y-104875000D01*
G75*
G02*
X184800000Y-104900000I-25000J0D01*
G01*
G37*
%TD.AperFunction*%
%TO.P,U1,7*%
%TO.N,Net-(Q2-Pad2)*%
%TA.AperFunction,SMDPad,CuDef*%
G36*
G01*
X185300000Y-104900000D02*
X185100000Y-104900000D01*
G75*
G02*
X185075000Y-104875000I0J25000D01*
G01*
X185075000Y-103925000D01*
G75*
G02*
X185100000Y-103900000I25000J0D01*
G01*
X185300000Y-103900000D01*
G75*
G02*
X185325000Y-103925000I0J-25000D01*
G01*
X185325000Y-104875000D01*
G75*
G02*
X185300000Y-104900000I-25000J0D01*
G01*
G37*
%TD.AperFunction*%
%TO.P,U1,13*%
%TO.N,Net-(J2-Pad3)*%
%TA.AperFunction,SMDPad,CuDef*%
G36*
G01*
X185300000Y-101100000D02*
X185100000Y-101100000D01*
G75*
G02*
X185075000Y-101075000I0J25000D01*
G01*
X185075000Y-100125000D01*
G75*
G02*
X185100000Y-100100000I25000J0D01*
G01*
X185300000Y-100100000D01*
G75*
G02*
X185325000Y-100125000I0J-25000D01*
G01*
X185325000Y-101075000D01*
G75*
G02*
X185300000Y-101100000I-25000J0D01*
G01*
G37*
%TD.AperFunction*%
%TO.P,U1,14*%
%TO.N,Net-(J2-Pad5)*%
%TA.AperFunction,SMDPad,CuDef*%
G36*
G01*
X184800000Y-101100000D02*
X184600000Y-101100000D01*
G75*
G02*
X184575000Y-101075000I0J25000D01*
G01*
X184575000Y-100125000D01*
G75*
G02*
X184600000Y-100100000I25000J0D01*
G01*
X184800000Y-100100000D01*
G75*
G02*
X184825000Y-100125000I0J-25000D01*
G01*
X184825000Y-101075000D01*
G75*
G02*
X184800000Y-101100000I-25000J0D01*
G01*
G37*
%TD.AperFunction*%
%TO.P,U1,15*%
%TO.N,Net-(Q1-Pad1)*%
%TA.AperFunction,SMDPad,CuDef*%
G36*
G01*
X184300000Y-101100000D02*
X184100000Y-101100000D01*
G75*
G02*
X184075000Y-101075000I0J25000D01*
G01*
X184075000Y-100125000D01*
G75*
G02*
X184100000Y-100100000I25000J0D01*
G01*
X184300000Y-100100000D01*
G75*
G02*
X184325000Y-100125000I0J-25000D01*
G01*
X184325000Y-101075000D01*
G75*
G02*
X184300000Y-101100000I-25000J0D01*
G01*
G37*
%TD.AperFunction*%
%TO.P,U1,16*%
%TO.N,Net-(R1-Pad2)*%
%TA.AperFunction,SMDPad,CuDef*%
G36*
G01*
X183800000Y-101100000D02*
X183600000Y-101100000D01*
G75*
G02*
X183575000Y-101075000I0J25000D01*
G01*
X183575000Y-100125000D01*
G75*
G02*
X183600000Y-100100000I25000J0D01*
G01*
X183800000Y-100100000D01*
G75*
G02*
X183825000Y-100125000I0J-25000D01*
G01*
X183825000Y-101075000D01*
G75*
G02*
X183800000Y-101100000I-25000J0D01*
G01*
G37*
%TD.AperFunction*%
%TO.P,U1,17*%
%TO.N,Net-(C4-Pad1)*%
%TA.AperFunction,SMDPad,CuDef*%
G36*
G01*
X183300000Y-101100000D02*
X183100000Y-101100000D01*
G75*
G02*
X183075000Y-101075000I0J25000D01*
G01*
X183075000Y-100125000D01*
G75*
G02*
X183100000Y-100100000I25000J0D01*
G01*
X183300000Y-100100000D01*
G75*
G02*
X183325000Y-100125000I0J-25000D01*
G01*
X183325000Y-101075000D01*
G75*
G02*
X183300000Y-101100000I-25000J0D01*
G01*
G37*
%TD.AperFunction*%
%TO.P,U1,18*%
%TO.N,Net-(R6-Pad2)*%
%TA.AperFunction,SMDPad,CuDef*%
G36*
G01*
X182800000Y-101100000D02*
X182600000Y-101100000D01*
G75*
G02*
X182575000Y-101075000I0J25000D01*
G01*
X182575000Y-100125000D01*
G75*
G02*
X182600000Y-100100000I25000J0D01*
G01*
X182800000Y-100100000D01*
G75*
G02*
X182825000Y-100125000I0J-25000D01*
G01*
X182825000Y-101075000D01*
G75*
G02*
X182800000Y-101100000I-25000J0D01*
G01*
G37*
%TD.AperFunction*%
%TO.P,U1,19*%
%TO.N,Net-(R2-Pad1)*%
%TA.AperFunction,SMDPad,CuDef*%
G36*
G01*
X182300000Y-101100000D02*
X182100000Y-101100000D01*
G75*
G02*
X182075000Y-101075000I0J25000D01*
G01*
X182075000Y-100125000D01*
G75*
G02*
X182100000Y-100100000I25000J0D01*
G01*
X182300000Y-100100000D01*
G75*
G02*
X182325000Y-100125000I0J-25000D01*
G01*
X182325000Y-101075000D01*
G75*
G02*
X182300000Y-101100000I-25000J0D01*
G01*
G37*
%TD.AperFunction*%
%TO.P,U1,8*%
%TO.N,Net-(J2-Pad1)*%
%TA.AperFunction,SMDPad,CuDef*%
G36*
G01*
X186575000Y-103625000D02*
X185625000Y-103625000D01*
G75*
G02*
X185600000Y-103600000I0J25000D01*
G01*
X185600000Y-103400000D01*
G75*
G02*
X185625000Y-103375000I25000J0D01*
G01*
X186575000Y-103375000D01*
G75*
G02*
X186600000Y-103400000I0J-25000D01*
G01*
X186600000Y-103600000D01*
G75*
G02*
X186575000Y-103625000I-25000J0D01*
G01*
G37*
%TD.AperFunction*%
%TO.P,U1,9*%
%TO.N,Net-(C1-Pad2)*%
%TA.AperFunction,SMDPad,CuDef*%
G36*
G01*
X186575000Y-103125000D02*
X185625000Y-103125000D01*
G75*
G02*
X185600000Y-103100000I0J25000D01*
G01*
X185600000Y-102900000D01*
G75*
G02*
X185625000Y-102875000I25000J0D01*
G01*
X186575000Y-102875000D01*
G75*
G02*
X186600000Y-102900000I0J-25000D01*
G01*
X186600000Y-103100000D01*
G75*
G02*
X186575000Y-103125000I-25000J0D01*
G01*
G37*
%TD.AperFunction*%
%TO.P,U1,10*%
%TO.N,Net-(R6-Pad2)*%
%TA.AperFunction,SMDPad,CuDef*%
G36*
G01*
X186575000Y-102625000D02*
X185625000Y-102625000D01*
G75*
G02*
X185600000Y-102600000I0J25000D01*
G01*
X185600000Y-102400000D01*
G75*
G02*
X185625000Y-102375000I25000J0D01*
G01*
X186575000Y-102375000D01*
G75*
G02*
X186600000Y-102400000I0J-25000D01*
G01*
X186600000Y-102600000D01*
G75*
G02*
X186575000Y-102625000I-25000J0D01*
G01*
G37*
%TD.AperFunction*%
%TO.P,U1,11*%
%TO.N,Net-(J2-Pad4)*%
%TA.AperFunction,SMDPad,CuDef*%
G36*
G01*
X186575000Y-102125000D02*
X185625000Y-102125000D01*
G75*
G02*
X185600000Y-102100000I0J25000D01*
G01*
X185600000Y-101900000D01*
G75*
G02*
X185625000Y-101875000I25000J0D01*
G01*
X186575000Y-101875000D01*
G75*
G02*
X186600000Y-101900000I0J-25000D01*
G01*
X186600000Y-102100000D01*
G75*
G02*
X186575000Y-102125000I-25000J0D01*
G01*
G37*
%TD.AperFunction*%
%TO.P,U1,12*%
%TO.N,Net-(R8-Pad2)*%
%TA.AperFunction,SMDPad,CuDef*%
G36*
G01*
X186575000Y-101625000D02*
X185625000Y-101625000D01*
G75*
G02*
X185600000Y-101600000I0J25000D01*
G01*
X185600000Y-101400000D01*
G75*
G02*
X185625000Y-101375000I25000J0D01*
G01*
X186575000Y-101375000D01*
G75*
G02*
X186600000Y-101400000I0J-25000D01*
G01*
X186600000Y-101600000D01*
G75*
G02*
X186575000Y-101625000I-25000J0D01*
G01*
G37*
%TD.AperFunction*%
%TO.P,U1,20*%
%TO.N,Net-(U1-Pad20)*%
%TA.AperFunction,SMDPad,CuDef*%
G36*
G01*
X181775000Y-101625000D02*
X180825000Y-101625000D01*
G75*
G02*
X180800000Y-101600000I0J25000D01*
G01*
X180800000Y-101400000D01*
G75*
G02*
X180825000Y-101375000I25000J0D01*
G01*
X181775000Y-101375000D01*
G75*
G02*
X181800000Y-101400000I0J-25000D01*
G01*
X181800000Y-101600000D01*
G75*
G02*
X181775000Y-101625000I-25000J0D01*
G01*
G37*
%TD.AperFunction*%
%TO.P,U1,21*%
%TO.N,Net-(L1-Pad1)*%
%TA.AperFunction,SMDPad,CuDef*%
G36*
G01*
X181775000Y-102125000D02*
X180825000Y-102125000D01*
G75*
G02*
X180800000Y-102100000I0J25000D01*
G01*
X180800000Y-101900000D01*
G75*
G02*
X180825000Y-101875000I25000J0D01*
G01*
X181775000Y-101875000D01*
G75*
G02*
X181800000Y-101900000I0J-25000D01*
G01*
X181800000Y-102100000D01*
G75*
G02*
X181775000Y-102125000I-25000J0D01*
G01*
G37*
%TD.AperFunction*%
%TO.P,U1,22*%
%TA.AperFunction,SMDPad,CuDef*%
G36*
G01*
X181775000Y-102625000D02*
X180825000Y-102625000D01*
G75*
G02*
X180800000Y-102600000I0J25000D01*
G01*
X180800000Y-102400000D01*
G75*
G02*
X180825000Y-102375000I25000J0D01*
G01*
X181775000Y-102375000D01*
G75*
G02*
X181800000Y-102400000I0J-25000D01*
G01*
X181800000Y-102600000D01*
G75*
G02*
X181775000Y-102625000I-25000J0D01*
G01*
G37*
%TD.AperFunction*%
%TO.P,U1,23*%
%TO.N,Net-(C1-Pad1)*%
%TA.AperFunction,SMDPad,CuDef*%
G36*
G01*
X181775000Y-103125000D02*
X180825000Y-103125000D01*
G75*
G02*
X180800000Y-103100000I0J25000D01*
G01*
X180800000Y-102900000D01*
G75*
G02*
X180825000Y-102875000I25000J0D01*
G01*
X181775000Y-102875000D01*
G75*
G02*
X181800000Y-102900000I0J-25000D01*
G01*
X181800000Y-103100000D01*
G75*
G02*
X181775000Y-103125000I-25000J0D01*
G01*
G37*
%TD.AperFunction*%
%TO.P,U1,24*%
%TO.N,Vout*%
%TA.AperFunction,SMDPad,CuDef*%
G36*
G01*
X181775000Y-103625000D02*
X180825000Y-103625000D01*
G75*
G02*
X180800000Y-103600000I0J25000D01*
G01*
X180800000Y-103400000D01*
G75*
G02*
X180825000Y-103375000I25000J0D01*
G01*
X181775000Y-103375000D01*
G75*
G02*
X181800000Y-103400000I0J-25000D01*
G01*
X181800000Y-103600000D01*
G75*
G02*
X181775000Y-103625000I-25000J0D01*
G01*
G37*
%TD.AperFunction*%
%TD*%
D18*
%TO.P,C2,1*%
%TO.N,Net-(C1-Pad2)*%
X166000000Y-115250000D03*
%TO.P,C2,2*%
%TO.N,GND*%
X166000000Y-107750000D03*
%TD*%
%TO.P,C1,1*%
%TO.N,Net-(C1-Pad1)*%
X166000000Y-97250000D03*
%TO.P,C1,2*%
%TO.N,Net-(C1-Pad2)*%
X166000000Y-89750000D03*
%TD*%
D19*
%TO.N,Net-(C1-Pad1)*%
X180100000Y-103000000D03*
X173100000Y-105400000D03*
%TO.N,Net-(L1-Pad1)*%
X174200000Y-99600000D03*
X180400000Y-99400000D03*
D20*
%TO.N,GND*%
X184300000Y-102500000D03*
X183100000Y-102500000D03*
D19*
X185500000Y-93200000D03*
X181000000Y-108300000D03*
X181700000Y-107600000D03*
D20*
X183700000Y-102500000D03*
D19*
%TO.N,Net-(C3-Pad1)*%
X182200000Y-111300000D03*
X191200000Y-102300000D03*
%TO.N,Net-(Q1-Pad1)*%
X186900000Y-93100000D03*
X185050000Y-90405000D03*
%TO.N,Net-(Q2-Pad2)*%
X185050000Y-89135000D03*
X188000000Y-105300000D03*
%TO.N,Net-(R1-Pad2)*%
X177700000Y-96600000D03*
X184000000Y-97100000D03*
%TO.N,Net-(R2-Pad1)*%
X175500000Y-97100000D03*
X181600000Y-98400000D03*
%TO.N,Net-(R5-Pad1)*%
X177400000Y-109900000D03*
X180000000Y-107100000D03*
%TO.N,Net-(R6-Pad2)*%
X182300000Y-97600000D03*
X185600000Y-98300000D03*
%TO.N,Net-(R8-Pad2)*%
X188000000Y-100400000D03*
X174300000Y-108800000D03*
%TO.N,Vout*%
X190600000Y-106000000D03*
X180500000Y-105500000D03*
D20*
%TO.N,Net-(J2-Pad5)*%
X187500000Y-96800000D03*
%TO.N,Net-(J2-Pad4)*%
X189400000Y-96000000D03*
X202300000Y-113800000D03*
%TO.N,Net-(J2-Pad3)*%
X188200000Y-96200000D03*
X203000000Y-114900000D03*
%TO.N,Net-(J2-Pad2)*%
X180000000Y-108200000D03*
%TO.N,Net-(J2-Pad1)*%
X186600000Y-107500000D03*
X191500000Y-111400000D03*
%TD*%
D21*
%TO.N,Net-(C1-Pad2)*%
X163000000Y-92250000D02*
X166000000Y-89250000D01*
X163000000Y-112250000D02*
X166000000Y-115250000D01*
X163000000Y-92250000D02*
X163000000Y-112250000D01*
X166000000Y-115250000D02*
X188250000Y-115250000D01*
X188250000Y-115250000D02*
X190100000Y-113400000D01*
X190100000Y-113400000D02*
X190100000Y-109200000D01*
X190100000Y-109200000D02*
X189200000Y-108300000D01*
X189200000Y-108300000D02*
X189200000Y-104400000D01*
D22*
X186713552Y-103004810D02*
X186100000Y-103004810D01*
X186808742Y-103100000D02*
X186713552Y-103004810D01*
X189200000Y-104400000D02*
X189200000Y-103800000D01*
X188500000Y-103100000D02*
X186808742Y-103100000D01*
X189200000Y-103800000D02*
X188500000Y-103100000D01*
D21*
%TO.N,Net-(C1-Pad1)*%
X166000000Y-97250000D02*
X166000000Y-102900000D01*
X168425000Y-105325000D02*
X173200000Y-105325000D01*
X166000000Y-102900000D02*
X168425000Y-105325000D01*
D22*
X169212500Y-106112500D02*
X168425000Y-105325000D01*
X169212500Y-111300000D02*
X169212500Y-106112500D01*
X173200000Y-105325000D02*
X173200000Y-104900000D01*
X180100000Y-103000000D02*
X181086091Y-103000000D01*
%TO.N,Net-(L1-Pad1)*%
X181300000Y-102500000D02*
X181300000Y-102000000D01*
X181300000Y-102000000D02*
X180400000Y-102000000D01*
X180400000Y-102000000D02*
X179933410Y-101533410D01*
X179933410Y-101533410D02*
X179933410Y-99866590D01*
X179933410Y-99866590D02*
X180400000Y-99400000D01*
X180400000Y-99400000D02*
X180400000Y-99400000D01*
D21*
%TO.N,GND*%
X193400000Y-99000000D02*
X193400000Y-106000000D01*
X198000000Y-104000000D02*
X198000000Y-100500000D01*
X193400000Y-99000000D02*
X194900000Y-100500000D01*
X194900000Y-100500000D02*
X198000000Y-100500000D01*
X193400000Y-99000000D02*
X193400000Y-96700000D01*
X193787500Y-96312500D02*
X193787500Y-94500000D01*
X193400000Y-96700000D02*
X193787500Y-96312500D01*
X174787500Y-111300000D02*
X174787500Y-112687500D01*
X174787500Y-112687500D02*
X175400000Y-113300000D01*
X175400000Y-113300000D02*
X178000000Y-113300000D01*
X178787500Y-112512500D02*
X178787500Y-111300000D01*
X178000000Y-113300000D02*
X178787500Y-112512500D01*
X166000000Y-107750000D02*
X166000000Y-111800000D01*
X167500000Y-113300000D02*
X175400000Y-113300000D01*
X166000000Y-111800000D02*
X167500000Y-113300000D01*
D22*
X183700000Y-104400000D02*
X184195190Y-104400000D01*
X183700000Y-104400000D02*
X183700000Y-102500000D01*
D21*
X183906010Y-105393990D02*
X183906010Y-104400000D01*
X181700000Y-107600000D02*
X183906010Y-105393990D01*
X185787500Y-93487500D02*
X185500000Y-93200000D01*
X185787500Y-94500000D02*
X185787500Y-93487500D01*
D22*
X183700000Y-102500000D02*
X183700000Y-102500000D01*
X183700000Y-102500000D02*
X183700000Y-102500000D01*
%TO.N,Net-(C3-Pad1)*%
X184700000Y-104400000D02*
X184700000Y-105800000D01*
X182100000Y-108400000D02*
X182100000Y-110500000D01*
X184700000Y-105800000D02*
X182100000Y-108400000D01*
D21*
X179650000Y-87865000D02*
X179650000Y-89135000D01*
X179650000Y-90405000D02*
X179650000Y-89135000D01*
X180500000Y-110500000D02*
X182100000Y-110500000D01*
X180300000Y-110500000D02*
X180500000Y-110500000D01*
X178200000Y-108400000D02*
X180300000Y-110500000D01*
X180500000Y-91255000D02*
X180500000Y-95700000D01*
X179650000Y-90405000D02*
X180500000Y-91255000D01*
X180500000Y-95700000D02*
X178200000Y-98000000D01*
X178200000Y-98000000D02*
X178200000Y-108400000D01*
D22*
X190600000Y-99000000D02*
X190600000Y-101700000D01*
X190600000Y-101700000D02*
X191200000Y-102300000D01*
X191200000Y-102300000D02*
X191200000Y-102300000D01*
%TO.N,Net-(C4-Pad1)*%
X183200000Y-95512500D02*
X184212500Y-94500000D01*
X183200000Y-100600000D02*
X183200000Y-95512500D01*
D21*
%TO.N,Net-(Q1-Pad1)*%
X181137000Y-86595000D02*
X182500000Y-87958000D01*
X179650000Y-86595000D02*
X181137000Y-86595000D01*
X182500000Y-88780802D02*
X184124198Y-90405000D01*
X184124198Y-90405000D02*
X185050000Y-90405000D01*
X182500000Y-87958000D02*
X182500000Y-88780802D01*
D22*
X184752401Y-98647599D02*
X184209620Y-99190380D01*
X184209620Y-99190380D02*
X184209620Y-100600000D01*
X184752401Y-97247599D02*
X184752401Y-98647599D01*
X186900000Y-93100000D02*
X186900000Y-95100000D01*
X186900000Y-95100000D02*
X184752401Y-97247599D01*
D21*
X185050000Y-90405000D02*
X185050000Y-90405000D01*
D22*
%TO.N,Net-(Q2-Pad2)*%
X185204810Y-106009099D02*
X185204810Y-104400000D01*
X185204810Y-106704810D02*
X185204810Y-106009099D01*
D21*
X185050000Y-86595000D02*
X185050000Y-87865000D01*
X185050000Y-89135000D02*
X185050000Y-89135000D01*
X185050000Y-89135000D02*
X185050000Y-87865000D01*
D22*
X185204810Y-106009099D02*
X185204810Y-109904810D01*
X185800000Y-110500000D02*
X187900000Y-110500000D01*
X185204810Y-109904810D02*
X185800000Y-110500000D01*
X188000000Y-110400000D02*
X187900000Y-110500000D01*
X188000000Y-105300000D02*
X188000000Y-110400000D01*
%TO.N,Net-(R1-Pad2)*%
X178787500Y-94500000D02*
X178787500Y-95512500D01*
X178787500Y-95512500D02*
X177700000Y-96600000D01*
X177700000Y-96600000D02*
X177700000Y-96600000D01*
X183704810Y-97395190D02*
X183704810Y-100600000D01*
X184000000Y-97100000D02*
X183704810Y-97395190D01*
%TO.N,Net-(R2-Pad1)*%
X170787500Y-94500000D02*
X173212500Y-94500000D01*
X173212500Y-94500000D02*
X173212500Y-96012500D01*
X173212500Y-96012500D02*
X174300000Y-97100000D01*
X174300000Y-97100000D02*
X175500000Y-97100000D01*
X175500000Y-97100000D02*
X175500000Y-97100000D01*
X181600000Y-100000000D02*
X182200000Y-100600000D01*
X181600000Y-98400000D02*
X181600000Y-100000000D01*
%TO.N,Net-(R5-Pad1)*%
X177212500Y-111300000D02*
X177000000Y-111300000D01*
X177400000Y-111112500D02*
X177212500Y-111300000D01*
X177400000Y-109900000D02*
X177400000Y-111112500D01*
D23*
X180000000Y-107100000D02*
X181700000Y-105400000D01*
X182700000Y-104934636D02*
X182700000Y-104400000D01*
X182234636Y-105400000D02*
X182700000Y-104934636D01*
X181700000Y-105400000D02*
X182234636Y-105400000D01*
D22*
%TO.N,Net-(R6-Pad2)*%
X182677410Y-97977410D02*
X182677410Y-100363502D01*
X182300000Y-97600000D02*
X182677410Y-97977410D01*
X189787500Y-94500000D02*
X192212500Y-94500000D01*
D23*
X192212500Y-95587500D02*
X192212500Y-94500000D01*
X191200000Y-96600000D02*
X192212500Y-95587500D01*
X186100000Y-102500000D02*
X188800000Y-102500000D01*
X189600000Y-101700000D02*
X189600000Y-97200000D01*
X188800000Y-102500000D02*
X189600000Y-101700000D01*
X189600000Y-97200000D02*
X190200000Y-96600000D01*
X190200000Y-96600000D02*
X191200000Y-96600000D01*
X185600000Y-98300000D02*
X185600000Y-97500000D01*
X185600000Y-97500000D02*
X187600000Y-95500000D01*
X188787500Y-95500000D02*
X189787500Y-94500000D01*
X187600000Y-95500000D02*
X188787500Y-95500000D01*
D22*
%TO.N,Net-(R8-Pad2)*%
X170787500Y-111300000D02*
X173212500Y-111300000D01*
X186100000Y-101500000D02*
X186700000Y-101500000D01*
X173212500Y-109887500D02*
X174300000Y-108800000D01*
X173212500Y-111300000D02*
X173212500Y-109887500D01*
X186900000Y-101500000D02*
X188000000Y-100400000D01*
X186100000Y-101500000D02*
X186900000Y-101500000D01*
D21*
%TO.N,Vout*%
X190750000Y-86595000D02*
X190750000Y-87865000D01*
X190750000Y-89135000D02*
X190750000Y-90405000D01*
X190750000Y-89135000D02*
X190750000Y-87865000D01*
X190600000Y-106000000D02*
X190600000Y-106000000D01*
X190600000Y-108100000D02*
X191500000Y-109000000D01*
X196500000Y-109000000D02*
X198000000Y-107500000D01*
X191500000Y-109000000D02*
X196500000Y-109000000D01*
X190600000Y-106000000D02*
X190600000Y-108100000D01*
X180500000Y-105500000D02*
X181500000Y-104500000D01*
X181500000Y-104500000D02*
X181993990Y-104500000D01*
D22*
X181500000Y-103700000D02*
X181300000Y-103500000D01*
X181500000Y-104500000D02*
X181500000Y-103700000D01*
D21*
X190750000Y-90405000D02*
X190750000Y-91750000D01*
X190750000Y-91750000D02*
X190500000Y-92000000D01*
X188985000Y-87865000D02*
X188350000Y-88500000D01*
X190750000Y-87865000D02*
X188985000Y-87865000D01*
X190237500Y-92000000D02*
X190400000Y-92000000D01*
X188212500Y-94500000D02*
X188212500Y-94025000D01*
X188212500Y-94025000D02*
X190237500Y-92000000D01*
X190500000Y-92000000D02*
X190400000Y-92000000D01*
X179500000Y-104500000D02*
X180500000Y-105500000D01*
X179200000Y-104200000D02*
X179500000Y-104500000D01*
X183000000Y-92000000D02*
X182000000Y-93000000D01*
X190400000Y-92000000D02*
X183000000Y-92000000D01*
X182000000Y-96000000D02*
X179200000Y-98800000D01*
X182000000Y-93000000D02*
X182000000Y-96000000D01*
X179200000Y-98800000D02*
X179200000Y-104200000D01*
%TO.N,Vin*%
X172832500Y-90405000D02*
X173950000Y-90405000D01*
X169212500Y-94025000D02*
X172832500Y-90405000D01*
X169212500Y-94500000D02*
X169212500Y-94025000D01*
X173950000Y-90405000D02*
X173950000Y-89135000D01*
X173950000Y-87865000D02*
X173950000Y-86595000D01*
X173950000Y-89135000D02*
X173950000Y-87865000D01*
X177212500Y-94500000D02*
X177000000Y-94500000D01*
X173950000Y-91450000D02*
X173950000Y-90405000D01*
X177000000Y-94500000D02*
X173950000Y-91450000D01*
X175715000Y-87865000D02*
X176350000Y-88500000D01*
X173950000Y-87865000D02*
X175715000Y-87865000D01*
X173950000Y-86595000D02*
X175105000Y-86595000D01*
X193200000Y-84900000D02*
X198000000Y-89700000D01*
X198000000Y-89700000D02*
X198000000Y-97000000D01*
X177500000Y-84900000D02*
X193200000Y-84900000D01*
X176350000Y-88500000D02*
X176350000Y-86050000D01*
X176350000Y-86050000D02*
X177500000Y-84900000D01*
D23*
%TO.N,Net-(J2-Pad5)*%
X185936001Y-99000001D02*
X187500000Y-97436002D01*
X185765363Y-99000001D02*
X185936001Y-99000001D01*
X184700000Y-100600000D02*
X184700000Y-100065364D01*
X184700000Y-100065364D02*
X185765363Y-99000001D01*
X187500000Y-97436002D02*
X187500000Y-96800000D01*
X187500000Y-96800000D02*
X187500000Y-96800000D01*
%TO.N,Net-(J2-Pad4)*%
X187436002Y-102000000D02*
X188800000Y-100636002D01*
X186100000Y-102000000D02*
X187436002Y-102000000D01*
X188800000Y-100636002D02*
X188800000Y-96300000D01*
X188800000Y-96300000D02*
X189100000Y-96000000D01*
X189100000Y-96000000D02*
X189400000Y-96000000D01*
X189400000Y-96000000D02*
X189400000Y-96000000D01*
X202300000Y-113800000D02*
X197400000Y-113800000D01*
X195500000Y-115700000D02*
X195500000Y-117500000D01*
X197400000Y-113800000D02*
X195500000Y-115700000D01*
%TO.N,Net-(J2-Pad3)*%
X185200000Y-100600000D02*
X188200000Y-97600000D01*
X188200000Y-97600000D02*
X188200000Y-96200000D01*
X188200000Y-96200000D02*
X188200000Y-96200000D01*
X203000000Y-114900000D02*
X201000000Y-114900000D01*
X201000000Y-114900000D02*
X199600000Y-116300000D01*
X199600000Y-116300000D02*
X199600000Y-118500000D01*
X199600000Y-118500000D02*
X198000000Y-120100000D01*
X195560000Y-120100000D02*
X192960000Y-117500000D01*
X198000000Y-120100000D02*
X195560000Y-120100000D01*
%TO.N,Net-(J2-Pad2)*%
X183200000Y-105000334D02*
X180900334Y-107300000D01*
X183200000Y-104400000D02*
X183200000Y-105000334D01*
X180900334Y-107300000D02*
X180900000Y-107300000D01*
X180900000Y-107300000D02*
X180000000Y-108200000D01*
X180000000Y-108200000D02*
X180000000Y-108200000D01*
%TO.N,Net-(J2-Pad1)*%
X186100000Y-103500000D02*
X187000000Y-104400000D01*
X187000000Y-104400000D02*
X187000000Y-107100000D01*
X187000000Y-107100000D02*
X186600000Y-107500000D01*
X186600000Y-107500000D02*
X186600000Y-107500000D01*
X191500000Y-111400000D02*
X191500000Y-113500000D01*
X187880000Y-117120000D02*
X187880000Y-117500000D01*
X191500000Y-113500000D02*
X187880000Y-117120000D01*
%TD*%
D24*
%TO.N,GND*%
G36*
X202768083Y-82731173D02*
G01*
X203257272Y-82865000D01*
X202691229Y-82865000D01*
X202085554Y-82985476D01*
X201515021Y-83221799D01*
X201001554Y-83564886D01*
X200564886Y-84001554D01*
X200221799Y-84515021D01*
X199985476Y-85085554D01*
X199865000Y-85691229D01*
X199865000Y-86308771D01*
X199985476Y-86914446D01*
X200221799Y-87484979D01*
X200564886Y-87998446D01*
X201001554Y-88435114D01*
X201515021Y-88778201D01*
X202085554Y-89014524D01*
X202691229Y-89135000D01*
X203308771Y-89135000D01*
X203914446Y-89014524D01*
X204484979Y-88778201D01*
X204998446Y-88435114D01*
X205435114Y-87998446D01*
X205778201Y-87484979D01*
X206014524Y-86914446D01*
X206135000Y-86308771D01*
X206135000Y-85717233D01*
X206292065Y-86371457D01*
X206340000Y-87024207D01*
X206340001Y-117970597D01*
X206268827Y-118768083D01*
X206135000Y-119257273D01*
X206135000Y-118691229D01*
X206014524Y-118085554D01*
X205778201Y-117515021D01*
X205435114Y-117001554D01*
X204998446Y-116564886D01*
X204484979Y-116221799D01*
X203914446Y-115985476D01*
X203308771Y-115865000D01*
X202691229Y-115865000D01*
X202085554Y-115985476D01*
X201515021Y-116221799D01*
X201001554Y-116564886D01*
X200564886Y-117001554D01*
X200335000Y-117345603D01*
X200335000Y-116604446D01*
X201304447Y-115635000D01*
X202417049Y-115635000D01*
X202557111Y-115728586D01*
X202727271Y-115799068D01*
X202907911Y-115835000D01*
X203092089Y-115835000D01*
X203272729Y-115799068D01*
X203442889Y-115728586D01*
X203596028Y-115626262D01*
X203726262Y-115496028D01*
X203828586Y-115342889D01*
X203899068Y-115172729D01*
X203935000Y-114992089D01*
X203935000Y-114807911D01*
X203899068Y-114627271D01*
X203828586Y-114457111D01*
X203726262Y-114303972D01*
X203596028Y-114173738D01*
X203442889Y-114071414D01*
X203272729Y-114000932D01*
X203215610Y-113989570D01*
X203235000Y-113892089D01*
X203235000Y-113707911D01*
X203199068Y-113527271D01*
X203128586Y-113357111D01*
X203026262Y-113203972D01*
X202896028Y-113073738D01*
X202742889Y-112971414D01*
X202572729Y-112900932D01*
X202392089Y-112865000D01*
X202207911Y-112865000D01*
X202027271Y-112900932D01*
X201857111Y-112971414D01*
X201717049Y-113065000D01*
X197436105Y-113065000D01*
X197400000Y-113061444D01*
X197363895Y-113065000D01*
X197255915Y-113075635D01*
X197117367Y-113117663D01*
X196989680Y-113185913D01*
X196877762Y-113277762D01*
X196854746Y-113305807D01*
X195005808Y-115154746D01*
X194977762Y-115177763D01*
X194885913Y-115289681D01*
X194817663Y-115417368D01*
X194816186Y-115422238D01*
X194775635Y-115555915D01*
X194761444Y-115700000D01*
X194765000Y-115736105D01*
X194765000Y-116205117D01*
X194553368Y-116346525D01*
X194346525Y-116553368D01*
X194230000Y-116727760D01*
X194113475Y-116553368D01*
X193906632Y-116346525D01*
X193663411Y-116184010D01*
X193393158Y-116072068D01*
X193106260Y-116015000D01*
X192813740Y-116015000D01*
X192526842Y-116072068D01*
X192256589Y-116184010D01*
X192013368Y-116346525D01*
X191806525Y-116553368D01*
X191690000Y-116727760D01*
X191573475Y-116553368D01*
X191366632Y-116346525D01*
X191123411Y-116184010D01*
X190853158Y-116072068D01*
X190566260Y-116015000D01*
X190273740Y-116015000D01*
X189986842Y-116072068D01*
X189953616Y-116085831D01*
X191994193Y-114045254D01*
X192022238Y-114022238D01*
X192114087Y-113910320D01*
X192182337Y-113782633D01*
X192211616Y-113686114D01*
X192224365Y-113644086D01*
X192225765Y-113629868D01*
X192235000Y-113536105D01*
X192235000Y-113536098D01*
X192238555Y-113500001D01*
X192235000Y-113463904D01*
X192235000Y-111982951D01*
X192328586Y-111842889D01*
X192399068Y-111672729D01*
X192435000Y-111492089D01*
X192435000Y-111307911D01*
X192399068Y-111127271D01*
X192328586Y-110957111D01*
X192226262Y-110803972D01*
X192096028Y-110673738D01*
X191942889Y-110571414D01*
X191772729Y-110500932D01*
X191592089Y-110465000D01*
X191407911Y-110465000D01*
X191227271Y-110500932D01*
X191116000Y-110547022D01*
X191116000Y-109945230D01*
X191300829Y-110001298D01*
X191450098Y-110016000D01*
X191450105Y-110016000D01*
X191499999Y-110020914D01*
X191549893Y-110016000D01*
X196450098Y-110016000D01*
X196500000Y-110020915D01*
X196549902Y-110016000D01*
X196699171Y-110001298D01*
X196890687Y-109943202D01*
X197067190Y-109848860D01*
X197221896Y-109721896D01*
X197253712Y-109683128D01*
X197898768Y-109038072D01*
X199550000Y-109038072D01*
X199723254Y-109021008D01*
X199889850Y-108970472D01*
X200043386Y-108888405D01*
X200177962Y-108777962D01*
X200288405Y-108643386D01*
X200370472Y-108489850D01*
X200421008Y-108323254D01*
X200438072Y-108150000D01*
X200438072Y-106850000D01*
X200421008Y-106676746D01*
X200370472Y-106510150D01*
X200288405Y-106356614D01*
X200177962Y-106222038D01*
X200043386Y-106111595D01*
X199889850Y-106029528D01*
X199723254Y-105978992D01*
X199550000Y-105961928D01*
X196450000Y-105961928D01*
X196276746Y-105978992D01*
X196110150Y-106029528D01*
X195956614Y-106111595D01*
X195822038Y-106222038D01*
X195711595Y-106356614D01*
X195629528Y-106510150D01*
X195578992Y-106676746D01*
X195561928Y-106850000D01*
X195561928Y-107984000D01*
X191920841Y-107984000D01*
X191619568Y-107682728D01*
X191713405Y-107568386D01*
X191795472Y-107414850D01*
X191822727Y-107325000D01*
X192136928Y-107325000D01*
X192149188Y-107449482D01*
X192185498Y-107569180D01*
X192244463Y-107679494D01*
X192323815Y-107776185D01*
X192420506Y-107855537D01*
X192530820Y-107914502D01*
X192650518Y-107950812D01*
X192775000Y-107963072D01*
X193114250Y-107960000D01*
X193273000Y-107801250D01*
X193273000Y-106127000D01*
X193527000Y-106127000D01*
X193527000Y-107801250D01*
X193685750Y-107960000D01*
X194025000Y-107963072D01*
X194149482Y-107950812D01*
X194269180Y-107914502D01*
X194379494Y-107855537D01*
X194476185Y-107776185D01*
X194555537Y-107679494D01*
X194614502Y-107569180D01*
X194650812Y-107449482D01*
X194663072Y-107325000D01*
X194660000Y-106285750D01*
X194501250Y-106127000D01*
X193527000Y-106127000D01*
X193273000Y-106127000D01*
X192298750Y-106127000D01*
X192140000Y-106285750D01*
X192136928Y-107325000D01*
X191822727Y-107325000D01*
X191846008Y-107248254D01*
X191863072Y-107075000D01*
X191863072Y-104925000D01*
X191846008Y-104751746D01*
X191822728Y-104675000D01*
X192136928Y-104675000D01*
X192140000Y-105714250D01*
X192298750Y-105873000D01*
X193273000Y-105873000D01*
X193273000Y-104198750D01*
X193527000Y-104198750D01*
X193527000Y-105873000D01*
X194501250Y-105873000D01*
X194660000Y-105714250D01*
X194663072Y-104675000D01*
X194650812Y-104550518D01*
X194614502Y-104430820D01*
X194579181Y-104364740D01*
X195608964Y-104364740D01*
X195633245Y-104470087D01*
X195753138Y-104747204D01*
X195924790Y-104995606D01*
X196141604Y-105205748D01*
X196395249Y-105369554D01*
X196675977Y-105480729D01*
X196973000Y-105535000D01*
X197873000Y-105535000D01*
X197873000Y-104127000D01*
X198127000Y-104127000D01*
X198127000Y-105535000D01*
X199027000Y-105535000D01*
X199324023Y-105480729D01*
X199604751Y-105369554D01*
X199858396Y-105205748D01*
X200075210Y-104995606D01*
X200246862Y-104747204D01*
X200366755Y-104470087D01*
X200391036Y-104364740D01*
X200270378Y-104127000D01*
X198127000Y-104127000D01*
X197873000Y-104127000D01*
X195729622Y-104127000D01*
X195608964Y-104364740D01*
X194579181Y-104364740D01*
X194555537Y-104320506D01*
X194476185Y-104223815D01*
X194379494Y-104144463D01*
X194269180Y-104085498D01*
X194149482Y-104049188D01*
X194025000Y-104036928D01*
X193685750Y-104040000D01*
X193527000Y-104198750D01*
X193273000Y-104198750D01*
X193114250Y-104040000D01*
X192775000Y-104036928D01*
X192650518Y-104049188D01*
X192530820Y-104085498D01*
X192420506Y-104144463D01*
X192323815Y-104223815D01*
X192244463Y-104320506D01*
X192185498Y-104430820D01*
X192149188Y-104550518D01*
X192136928Y-104675000D01*
X191822728Y-104675000D01*
X191795472Y-104585150D01*
X191713405Y-104431614D01*
X191602962Y-104297038D01*
X191468386Y-104186595D01*
X191314850Y-104104528D01*
X191148254Y-104053992D01*
X190975000Y-104036928D01*
X190225000Y-104036928D01*
X190153709Y-104043950D01*
X190143202Y-104009313D01*
X190048860Y-103832810D01*
X189987019Y-103757456D01*
X189976006Y-103645643D01*
X189972857Y-103635260D01*
X195608964Y-103635260D01*
X195729622Y-103873000D01*
X197873000Y-103873000D01*
X197873000Y-102465000D01*
X198127000Y-102465000D01*
X198127000Y-103873000D01*
X200270378Y-103873000D01*
X200391036Y-103635260D01*
X200366755Y-103529913D01*
X200246862Y-103252796D01*
X200075210Y-103004394D01*
X199858396Y-102794252D01*
X199604751Y-102630446D01*
X199324023Y-102519271D01*
X199027000Y-102465000D01*
X198127000Y-102465000D01*
X197873000Y-102465000D01*
X196973000Y-102465000D01*
X196675977Y-102519271D01*
X196395249Y-102630446D01*
X196141604Y-102794252D01*
X195924790Y-103004394D01*
X195753138Y-103252796D01*
X195633245Y-103529913D01*
X195608964Y-103635260D01*
X189972857Y-103635260D01*
X189930982Y-103497217D01*
X189857866Y-103360428D01*
X189818451Y-103312401D01*
X189784121Y-103270569D01*
X189784119Y-103270567D01*
X189759469Y-103240531D01*
X189729433Y-103215881D01*
X189426499Y-102912948D01*
X190062197Y-102277249D01*
X190070572Y-102284122D01*
X190165000Y-102378550D01*
X190165000Y-102401939D01*
X190204774Y-102601898D01*
X190282795Y-102790256D01*
X190396063Y-102959774D01*
X190540226Y-103103937D01*
X190709744Y-103217205D01*
X190898102Y-103295226D01*
X191098061Y-103335000D01*
X191301939Y-103335000D01*
X191501898Y-103295226D01*
X191690256Y-103217205D01*
X191859774Y-103103937D01*
X192003937Y-102959774D01*
X192117205Y-102790256D01*
X192195226Y-102601898D01*
X192235000Y-102401939D01*
X192235000Y-102198061D01*
X192195226Y-101998102D01*
X192117205Y-101809744D01*
X192003937Y-101640226D01*
X191859774Y-101496063D01*
X191690256Y-101382795D01*
X191501898Y-101304774D01*
X191387400Y-101281999D01*
X191387400Y-100856693D01*
X191468386Y-100813405D01*
X191602962Y-100702962D01*
X191713405Y-100568386D01*
X191795472Y-100414850D01*
X191822727Y-100325000D01*
X192136928Y-100325000D01*
X192149188Y-100449482D01*
X192185498Y-100569180D01*
X192244463Y-100679494D01*
X192323815Y-100776185D01*
X192420506Y-100855537D01*
X192530820Y-100914502D01*
X192650518Y-100950812D01*
X192775000Y-100963072D01*
X193114250Y-100960000D01*
X193273000Y-100801250D01*
X193273000Y-99127000D01*
X193527000Y-99127000D01*
X193527000Y-100801250D01*
X193685750Y-100960000D01*
X194025000Y-100963072D01*
X194149482Y-100950812D01*
X194269180Y-100914502D01*
X194362276Y-100864740D01*
X195608964Y-100864740D01*
X195633245Y-100970087D01*
X195753138Y-101247204D01*
X195924790Y-101495606D01*
X196141604Y-101705748D01*
X196395249Y-101869554D01*
X196675977Y-101980729D01*
X196973000Y-102035000D01*
X197873000Y-102035000D01*
X197873000Y-100627000D01*
X198127000Y-100627000D01*
X198127000Y-102035000D01*
X199027000Y-102035000D01*
X199324023Y-101980729D01*
X199604751Y-101869554D01*
X199858396Y-101705748D01*
X200075210Y-101495606D01*
X200246862Y-101247204D01*
X200366755Y-100970087D01*
X200391036Y-100864740D01*
X200270378Y-100627000D01*
X198127000Y-100627000D01*
X197873000Y-100627000D01*
X195729622Y-100627000D01*
X195608964Y-100864740D01*
X194362276Y-100864740D01*
X194379494Y-100855537D01*
X194476185Y-100776185D01*
X194555537Y-100679494D01*
X194614502Y-100569180D01*
X194650812Y-100449482D01*
X194663072Y-100325000D01*
X194662512Y-100135260D01*
X195608964Y-100135260D01*
X195729622Y-100373000D01*
X197873000Y-100373000D01*
X197873000Y-98965000D01*
X198127000Y-98965000D01*
X198127000Y-100373000D01*
X200270378Y-100373000D01*
X200391036Y-100135260D01*
X200366755Y-100029913D01*
X200246862Y-99752796D01*
X200075210Y-99504394D01*
X199858396Y-99294252D01*
X199604751Y-99130446D01*
X199324023Y-99019271D01*
X199027000Y-98965000D01*
X198127000Y-98965000D01*
X197873000Y-98965000D01*
X196973000Y-98965000D01*
X196675977Y-99019271D01*
X196395249Y-99130446D01*
X196141604Y-99294252D01*
X195924790Y-99504394D01*
X195753138Y-99752796D01*
X195633245Y-100029913D01*
X195608964Y-100135260D01*
X194662512Y-100135260D01*
X194660000Y-99285750D01*
X194501250Y-99127000D01*
X193527000Y-99127000D01*
X193273000Y-99127000D01*
X192298750Y-99127000D01*
X192140000Y-99285750D01*
X192136928Y-100325000D01*
X191822727Y-100325000D01*
X191846008Y-100248254D01*
X191863072Y-100075000D01*
X191863072Y-97925000D01*
X191846008Y-97751746D01*
X191822728Y-97675000D01*
X192136928Y-97675000D01*
X192140000Y-98714250D01*
X192298750Y-98873000D01*
X193273000Y-98873000D01*
X193273000Y-97198750D01*
X193527000Y-97198750D01*
X193527000Y-98873000D01*
X194501250Y-98873000D01*
X194660000Y-98714250D01*
X194663072Y-97675000D01*
X194650812Y-97550518D01*
X194614502Y-97430820D01*
X194555537Y-97320506D01*
X194476185Y-97223815D01*
X194379494Y-97144463D01*
X194269180Y-97085498D01*
X194149482Y-97049188D01*
X194025000Y-97036928D01*
X193685750Y-97040000D01*
X193527000Y-97198750D01*
X193273000Y-97198750D01*
X193114250Y-97040000D01*
X192775000Y-97036928D01*
X192650518Y-97049188D01*
X192530820Y-97085498D01*
X192420506Y-97144463D01*
X192323815Y-97223815D01*
X192244463Y-97320506D01*
X192185498Y-97430820D01*
X192149188Y-97550518D01*
X192136928Y-97675000D01*
X191822728Y-97675000D01*
X191795472Y-97585150D01*
X191713405Y-97431614D01*
X191602962Y-97297038D01*
X191544654Y-97249186D01*
X191610320Y-97214087D01*
X191722238Y-97122238D01*
X191745258Y-97094188D01*
X192706697Y-96132750D01*
X192734737Y-96109738D01*
X192757750Y-96081697D01*
X192757753Y-96081694D01*
X192826586Y-95997821D01*
X192826587Y-95997820D01*
X192894837Y-95870133D01*
X192936865Y-95731585D01*
X192947500Y-95623605D01*
X192947500Y-95623596D01*
X192951055Y-95587501D01*
X192947500Y-95551406D01*
X192947500Y-95466140D01*
X192995506Y-95505537D01*
X193105820Y-95564502D01*
X193225518Y-95600812D01*
X193350000Y-95613072D01*
X193501750Y-95610000D01*
X193660500Y-95451250D01*
X193660500Y-94627000D01*
X193914500Y-94627000D01*
X193914500Y-95451250D01*
X194073250Y-95610000D01*
X194225000Y-95613072D01*
X194349482Y-95600812D01*
X194469180Y-95564502D01*
X194579494Y-95505537D01*
X194676185Y-95426185D01*
X194755537Y-95329494D01*
X194814502Y-95219180D01*
X194850812Y-95099482D01*
X194863072Y-94975000D01*
X194860000Y-94785750D01*
X194701250Y-94627000D01*
X193914500Y-94627000D01*
X193660500Y-94627000D01*
X193640500Y-94627000D01*
X193640500Y-94373000D01*
X193660500Y-94373000D01*
X193660500Y-93548750D01*
X193914500Y-93548750D01*
X193914500Y-94373000D01*
X194701250Y-94373000D01*
X194860000Y-94214250D01*
X194863072Y-94025000D01*
X194850812Y-93900518D01*
X194814502Y-93780820D01*
X194755537Y-93670506D01*
X194676185Y-93573815D01*
X194579494Y-93494463D01*
X194469180Y-93435498D01*
X194349482Y-93399188D01*
X194225000Y-93386928D01*
X194073250Y-93390000D01*
X193914500Y-93548750D01*
X193660500Y-93548750D01*
X193501750Y-93390000D01*
X193350000Y-93386928D01*
X193225518Y-93399188D01*
X193105820Y-93435498D01*
X192995506Y-93494463D01*
X192928930Y-93549100D01*
X192907275Y-93531329D01*
X192759142Y-93452150D01*
X192598408Y-93403392D01*
X192431250Y-93386928D01*
X191993750Y-93386928D01*
X191826592Y-93403392D01*
X191665858Y-93452150D01*
X191517725Y-93531329D01*
X191387885Y-93637885D01*
X191326569Y-93712600D01*
X190673431Y-93712600D01*
X190612115Y-93637885D01*
X190482275Y-93531329D01*
X190334142Y-93452150D01*
X190248247Y-93426094D01*
X190670188Y-93004153D01*
X190699171Y-93001298D01*
X190890687Y-92943202D01*
X191067190Y-92848860D01*
X191221896Y-92721896D01*
X191253713Y-92683127D01*
X191433127Y-92503713D01*
X191471896Y-92471896D01*
X191598860Y-92317190D01*
X191693202Y-92140687D01*
X191751298Y-91949171D01*
X191766000Y-91799902D01*
X191766000Y-91799895D01*
X191770914Y-91750001D01*
X191766000Y-91700107D01*
X191766000Y-91232670D01*
X191805537Y-91184494D01*
X191864502Y-91074180D01*
X191900812Y-90954482D01*
X191913072Y-90830000D01*
X191913072Y-89980000D01*
X191900812Y-89855518D01*
X191874870Y-89770000D01*
X191900812Y-89684482D01*
X191913072Y-89560000D01*
X191913072Y-88710000D01*
X191900812Y-88585518D01*
X191874870Y-88500000D01*
X191900812Y-88414482D01*
X191913072Y-88290000D01*
X191913072Y-87440000D01*
X191900812Y-87315518D01*
X191874870Y-87230000D01*
X191900812Y-87144482D01*
X191913072Y-87020000D01*
X191913072Y-86170000D01*
X191900812Y-86045518D01*
X191864502Y-85925820D01*
X191859253Y-85916000D01*
X192779160Y-85916000D01*
X196984000Y-90120841D01*
X196984001Y-95468998D01*
X196799087Y-95487210D01*
X196509739Y-95574983D01*
X196243073Y-95717519D01*
X196009339Y-95909339D01*
X195817519Y-96143073D01*
X195674983Y-96409739D01*
X195587210Y-96699087D01*
X195557573Y-97000000D01*
X195587210Y-97300913D01*
X195674983Y-97590261D01*
X195817519Y-97856927D01*
X196009339Y-98090661D01*
X196243073Y-98282481D01*
X196509739Y-98425017D01*
X196799087Y-98512790D01*
X197024592Y-98535000D01*
X198975408Y-98535000D01*
X199200913Y-98512790D01*
X199490261Y-98425017D01*
X199756927Y-98282481D01*
X199990661Y-98090661D01*
X200182481Y-97856927D01*
X200325017Y-97590261D01*
X200412790Y-97300913D01*
X200442427Y-97000000D01*
X200412790Y-96699087D01*
X200325017Y-96409739D01*
X200182481Y-96143073D01*
X199990661Y-95909339D01*
X199756927Y-95717519D01*
X199490261Y-95574983D01*
X199200913Y-95487210D01*
X199016000Y-95468998D01*
X199016000Y-89749901D01*
X199020915Y-89699999D01*
X199001298Y-89500829D01*
X198997344Y-89487795D01*
X198943202Y-89309313D01*
X198848860Y-89132810D01*
X198721896Y-88978104D01*
X198683133Y-88946292D01*
X193953712Y-84216872D01*
X193921896Y-84178104D01*
X193767190Y-84051140D01*
X193590687Y-83956798D01*
X193399171Y-83898702D01*
X193249902Y-83884000D01*
X193200000Y-83879085D01*
X193150098Y-83884000D01*
X177549902Y-83884000D01*
X177500000Y-83879085D01*
X177450098Y-83884000D01*
X177300829Y-83898702D01*
X177109313Y-83956798D01*
X176932810Y-84051140D01*
X176778104Y-84178104D01*
X176746292Y-84216867D01*
X175666868Y-85296292D01*
X175628105Y-85328104D01*
X175501141Y-85482810D01*
X175485577Y-85511928D01*
X174475000Y-85511928D01*
X174350518Y-85524188D01*
X174325003Y-85531928D01*
X173425000Y-85531928D01*
X173300518Y-85544188D01*
X173180820Y-85580498D01*
X173070506Y-85639463D01*
X172973815Y-85718815D01*
X172894463Y-85815506D01*
X172835498Y-85925820D01*
X172799188Y-86045518D01*
X172786928Y-86170000D01*
X172786928Y-87020000D01*
X172799188Y-87144482D01*
X172825130Y-87230000D01*
X172799188Y-87315518D01*
X172786928Y-87440000D01*
X172786928Y-88290000D01*
X172799188Y-88414482D01*
X172825130Y-88500000D01*
X172799188Y-88585518D01*
X172786928Y-88710000D01*
X172786928Y-89388573D01*
X172633329Y-89403702D01*
X172441813Y-89461798D01*
X172265310Y-89556140D01*
X172110604Y-89683104D01*
X172078794Y-89721865D01*
X168529368Y-93271292D01*
X168490605Y-93303104D01*
X168363641Y-93457810D01*
X168269298Y-93634313D01*
X168213679Y-93817663D01*
X168211202Y-93825830D01*
X168202377Y-93915434D01*
X168202150Y-93915858D01*
X168153392Y-94076592D01*
X168136928Y-94243750D01*
X168136928Y-94756250D01*
X168153392Y-94923408D01*
X168202150Y-95084142D01*
X168281329Y-95232275D01*
X168387885Y-95362115D01*
X168517725Y-95468671D01*
X168665858Y-95547850D01*
X168826592Y-95596608D01*
X168993750Y-95613072D01*
X169431250Y-95613072D01*
X169598408Y-95596608D01*
X169759142Y-95547850D01*
X169907275Y-95468671D01*
X170000000Y-95392574D01*
X170092725Y-95468671D01*
X170240858Y-95547850D01*
X170401592Y-95596608D01*
X170568750Y-95613072D01*
X171006250Y-95613072D01*
X171173408Y-95596608D01*
X171334142Y-95547850D01*
X171482275Y-95468671D01*
X171612115Y-95362115D01*
X171673431Y-95287400D01*
X172326569Y-95287400D01*
X172387885Y-95362115D01*
X172425101Y-95392657D01*
X172425101Y-95973827D01*
X172421292Y-96012500D01*
X172436495Y-96166857D01*
X172481518Y-96315282D01*
X172521824Y-96390688D01*
X172554635Y-96452072D01*
X172653032Y-96571969D01*
X172683073Y-96596623D01*
X173715881Y-97629433D01*
X173740531Y-97659469D01*
X173770567Y-97684119D01*
X173770569Y-97684121D01*
X173812624Y-97718634D01*
X173860428Y-97757866D01*
X173914799Y-97786928D01*
X171700000Y-97786928D01*
X171575518Y-97799188D01*
X171455820Y-97835498D01*
X171345506Y-97894463D01*
X171248815Y-97973815D01*
X171169463Y-98070506D01*
X171110498Y-98180820D01*
X171074188Y-98300518D01*
X171061928Y-98425000D01*
X171061928Y-100925000D01*
X171074188Y-101049482D01*
X171110498Y-101169180D01*
X171169463Y-101279494D01*
X171248815Y-101376185D01*
X171345506Y-101455537D01*
X171455820Y-101514502D01*
X171575518Y-101550812D01*
X171700000Y-101563072D01*
X174700000Y-101563072D01*
X174824482Y-101550812D01*
X174944180Y-101514502D01*
X175054494Y-101455537D01*
X175151185Y-101376185D01*
X175230537Y-101279494D01*
X175289502Y-101169180D01*
X175325812Y-101049482D01*
X175338072Y-100925000D01*
X175338072Y-98425000D01*
X175325812Y-98300518D01*
X175289502Y-98180820D01*
X175249181Y-98105386D01*
X175398061Y-98135000D01*
X175601939Y-98135000D01*
X175801898Y-98095226D01*
X175990256Y-98017205D01*
X176159774Y-97903937D01*
X176303937Y-97759774D01*
X176417205Y-97590256D01*
X176495226Y-97401898D01*
X176535000Y-97201939D01*
X176535000Y-96998061D01*
X176495226Y-96798102D01*
X176417205Y-96609744D01*
X176303937Y-96440226D01*
X176159774Y-96296063D01*
X175990256Y-96182795D01*
X175801898Y-96104774D01*
X175601939Y-96065000D01*
X175398061Y-96065000D01*
X175198102Y-96104774D01*
X175009744Y-96182795D01*
X174840226Y-96296063D01*
X174823689Y-96312600D01*
X174626152Y-96312600D01*
X173999900Y-95686350D01*
X173999900Y-95507886D01*
X174105820Y-95564502D01*
X174225518Y-95600812D01*
X174350000Y-95613072D01*
X174501750Y-95610000D01*
X174660500Y-95451250D01*
X174660500Y-94627000D01*
X174640500Y-94627000D01*
X174640500Y-94373000D01*
X174660500Y-94373000D01*
X174660500Y-94353000D01*
X174914500Y-94353000D01*
X174914500Y-94373000D01*
X174934500Y-94373000D01*
X174934500Y-94627000D01*
X174914500Y-94627000D01*
X174914500Y-95451250D01*
X175073250Y-95610000D01*
X175225000Y-95613072D01*
X175349482Y-95600812D01*
X175469180Y-95564502D01*
X175579494Y-95505537D01*
X175676185Y-95426185D01*
X175755537Y-95329494D01*
X175814502Y-95219180D01*
X175850812Y-95099482D01*
X175863072Y-94975000D01*
X175860183Y-94797024D01*
X176246292Y-95183133D01*
X176271443Y-95213779D01*
X176281329Y-95232275D01*
X176387885Y-95362115D01*
X176517725Y-95468671D01*
X176665858Y-95547850D01*
X176826592Y-95596608D01*
X176993750Y-95613072D01*
X177378069Y-95613072D01*
X177209744Y-95682795D01*
X177040226Y-95796063D01*
X176896063Y-95940226D01*
X176782795Y-96109744D01*
X176704774Y-96298102D01*
X176665000Y-96498061D01*
X176665000Y-96701939D01*
X176704774Y-96901898D01*
X176782795Y-97090256D01*
X176896063Y-97259774D01*
X177040226Y-97403937D01*
X177209744Y-97517205D01*
X177288577Y-97549859D01*
X177256798Y-97609314D01*
X177211735Y-97757866D01*
X177198702Y-97800830D01*
X177179085Y-98000000D01*
X177184000Y-98049902D01*
X177184001Y-108350088D01*
X177179085Y-108400000D01*
X177198702Y-108599170D01*
X177243017Y-108745253D01*
X177256799Y-108790687D01*
X177296668Y-108865277D01*
X177098102Y-108904774D01*
X176909744Y-108982795D01*
X176740226Y-109096063D01*
X176596063Y-109240226D01*
X176482795Y-109409744D01*
X176404774Y-109598102D01*
X176365000Y-109798061D01*
X176365000Y-110001939D01*
X176404774Y-110201898D01*
X176473440Y-110367672D01*
X176387885Y-110437885D01*
X176281329Y-110567725D01*
X176202150Y-110715858D01*
X176153392Y-110876592D01*
X176136928Y-111043750D01*
X176136928Y-111556250D01*
X176153392Y-111723408D01*
X176202150Y-111884142D01*
X176281329Y-112032275D01*
X176387885Y-112162115D01*
X176517725Y-112268671D01*
X176665858Y-112347850D01*
X176826592Y-112396608D01*
X176993750Y-112413072D01*
X177431250Y-112413072D01*
X177598408Y-112396608D01*
X177759142Y-112347850D01*
X177907275Y-112268671D01*
X177928930Y-112250900D01*
X177995506Y-112305537D01*
X178105820Y-112364502D01*
X178225518Y-112400812D01*
X178350000Y-112413072D01*
X178501750Y-112410000D01*
X178660500Y-112251250D01*
X178660500Y-111427000D01*
X178640500Y-111427000D01*
X178640500Y-111173000D01*
X178660500Y-111173000D01*
X178660500Y-111153000D01*
X178914500Y-111153000D01*
X178914500Y-111173000D01*
X178934500Y-111173000D01*
X178934500Y-111427000D01*
X178914500Y-111427000D01*
X178914500Y-112251250D01*
X179073250Y-112410000D01*
X179225000Y-112413072D01*
X179349482Y-112400812D01*
X179469180Y-112364502D01*
X179579494Y-112305537D01*
X179676185Y-112226185D01*
X179755537Y-112129494D01*
X179814502Y-112019180D01*
X179850812Y-111899482D01*
X179863072Y-111775000D01*
X179860000Y-111585750D01*
X179701252Y-111427002D01*
X179860000Y-111427002D01*
X179860000Y-111416844D01*
X179909313Y-111443202D01*
X180042732Y-111483674D01*
X180100828Y-111501298D01*
X180120177Y-111503204D01*
X180250098Y-111516000D01*
X180250105Y-111516000D01*
X180299999Y-111520914D01*
X180349893Y-111516000D01*
X180786928Y-111516000D01*
X180786928Y-111925001D01*
X180803992Y-112098255D01*
X180854528Y-112264851D01*
X180936595Y-112418387D01*
X181047038Y-112552962D01*
X181181613Y-112663405D01*
X181335149Y-112745472D01*
X181501745Y-112796008D01*
X181674999Y-112813072D01*
X182525001Y-112813072D01*
X182698255Y-112796008D01*
X182864851Y-112745472D01*
X183018387Y-112663405D01*
X183152962Y-112552962D01*
X183263405Y-112418387D01*
X183345472Y-112264851D01*
X183396008Y-112098255D01*
X183413072Y-111925001D01*
X183413072Y-109074999D01*
X183396008Y-108901745D01*
X183345472Y-108735149D01*
X183263405Y-108581613D01*
X183159070Y-108454480D01*
X184417410Y-107196141D01*
X184417411Y-109866137D01*
X184413602Y-109904810D01*
X184428805Y-110059167D01*
X184473828Y-110207592D01*
X184539968Y-110331329D01*
X184546945Y-110344382D01*
X184645342Y-110464279D01*
X184675383Y-110488933D01*
X185215876Y-111029427D01*
X185240531Y-111059469D01*
X185270570Y-111084121D01*
X185360427Y-111157866D01*
X185497217Y-111230982D01*
X185645642Y-111276006D01*
X185659503Y-111277371D01*
X185761327Y-111287400D01*
X185761334Y-111287400D01*
X185800000Y-111291208D01*
X185838665Y-111287400D01*
X186586928Y-111287400D01*
X186586928Y-111925001D01*
X186603992Y-112098255D01*
X186654528Y-112264851D01*
X186736595Y-112418387D01*
X186847038Y-112552962D01*
X186981613Y-112663405D01*
X187135149Y-112745472D01*
X187301745Y-112796008D01*
X187474999Y-112813072D01*
X188325001Y-112813072D01*
X188498255Y-112796008D01*
X188664851Y-112745472D01*
X188818387Y-112663405D01*
X188952962Y-112552962D01*
X189063405Y-112418387D01*
X189084000Y-112379856D01*
X189084000Y-112979159D01*
X187829160Y-114234000D01*
X167049460Y-114234000D01*
X166931015Y-114115555D01*
X166691806Y-113955721D01*
X166426012Y-113845626D01*
X166143847Y-113789500D01*
X165976341Y-113789500D01*
X164016000Y-111829160D01*
X164016000Y-108760909D01*
X165168696Y-108760909D01*
X165243367Y-109007481D01*
X165503228Y-109130931D01*
X165782180Y-109201313D01*
X166069502Y-109215921D01*
X166354154Y-109174194D01*
X166625196Y-109077737D01*
X166756633Y-109007481D01*
X166831304Y-108760909D01*
X166000000Y-107929605D01*
X165168696Y-108760909D01*
X164016000Y-108760909D01*
X164016000Y-107819502D01*
X164534079Y-107819502D01*
X164575806Y-108104154D01*
X164672263Y-108375196D01*
X164742519Y-108506633D01*
X164989091Y-108581304D01*
X165820395Y-107750000D01*
X166179605Y-107750000D01*
X167010909Y-108581304D01*
X167257481Y-108506633D01*
X167380931Y-108246772D01*
X167451313Y-107967820D01*
X167465921Y-107680498D01*
X167424194Y-107395846D01*
X167327737Y-107124804D01*
X167257481Y-106993367D01*
X167010909Y-106918696D01*
X166179605Y-107750000D01*
X165820395Y-107750000D01*
X164989091Y-106918696D01*
X164742519Y-106993367D01*
X164619069Y-107253228D01*
X164548687Y-107532180D01*
X164534079Y-107819502D01*
X164016000Y-107819502D01*
X164016000Y-106739091D01*
X165168696Y-106739091D01*
X166000000Y-107570395D01*
X166831304Y-106739091D01*
X166756633Y-106492519D01*
X166496772Y-106369069D01*
X166217820Y-106298687D01*
X165930498Y-106284079D01*
X165645846Y-106325806D01*
X165374804Y-106422263D01*
X165243367Y-106492519D01*
X165168696Y-106739091D01*
X164016000Y-106739091D01*
X164016000Y-97106153D01*
X164539500Y-97106153D01*
X164539500Y-97393847D01*
X164595626Y-97676012D01*
X164705721Y-97941806D01*
X164865555Y-98181015D01*
X164984000Y-98299460D01*
X164984001Y-102850088D01*
X164979085Y-102900000D01*
X164998702Y-103099170D01*
X165052614Y-103276891D01*
X165056799Y-103290687D01*
X165151141Y-103467190D01*
X165278105Y-103621896D01*
X165316868Y-103653708D01*
X167671292Y-106008133D01*
X167703104Y-106046896D01*
X167857810Y-106173860D01*
X167972832Y-106235340D01*
X168034312Y-106268202D01*
X168225829Y-106326298D01*
X168322243Y-106335794D01*
X168425101Y-106438652D01*
X168425100Y-110407344D01*
X168387885Y-110437885D01*
X168281329Y-110567725D01*
X168202150Y-110715858D01*
X168153392Y-110876592D01*
X168136928Y-111043750D01*
X168136928Y-111556250D01*
X168153392Y-111723408D01*
X168202150Y-111884142D01*
X168281329Y-112032275D01*
X168387885Y-112162115D01*
X168517725Y-112268671D01*
X168665858Y-112347850D01*
X168826592Y-112396608D01*
X168993750Y-112413072D01*
X169431250Y-112413072D01*
X169598408Y-112396608D01*
X169759142Y-112347850D01*
X169907275Y-112268671D01*
X170000000Y-112192574D01*
X170092725Y-112268671D01*
X170240858Y-112347850D01*
X170401592Y-112396608D01*
X170568750Y-112413072D01*
X171006250Y-112413072D01*
X171173408Y-112396608D01*
X171334142Y-112347850D01*
X171482275Y-112268671D01*
X171612115Y-112162115D01*
X171673431Y-112087400D01*
X172326569Y-112087400D01*
X172387885Y-112162115D01*
X172517725Y-112268671D01*
X172665858Y-112347850D01*
X172826592Y-112396608D01*
X172993750Y-112413072D01*
X173431250Y-112413072D01*
X173598408Y-112396608D01*
X173759142Y-112347850D01*
X173907275Y-112268671D01*
X173928930Y-112250900D01*
X173995506Y-112305537D01*
X174105820Y-112364502D01*
X174225518Y-112400812D01*
X174350000Y-112413072D01*
X174501750Y-112410000D01*
X174660500Y-112251250D01*
X174660500Y-111427000D01*
X174914500Y-111427000D01*
X174914500Y-112251250D01*
X175073250Y-112410000D01*
X175225000Y-112413072D01*
X175349482Y-112400812D01*
X175469180Y-112364502D01*
X175579494Y-112305537D01*
X175676185Y-112226185D01*
X175755537Y-112129494D01*
X175814502Y-112019180D01*
X175850812Y-111899482D01*
X175863072Y-111775000D01*
X175860000Y-111585750D01*
X175701250Y-111427000D01*
X174914500Y-111427000D01*
X174660500Y-111427000D01*
X174640500Y-111427000D01*
X174640500Y-111173000D01*
X174660500Y-111173000D01*
X174660500Y-110348750D01*
X174914500Y-110348750D01*
X174914500Y-111173000D01*
X175701250Y-111173000D01*
X175860000Y-111014250D01*
X175863072Y-110825000D01*
X175850812Y-110700518D01*
X175814502Y-110580820D01*
X175755537Y-110470506D01*
X175676185Y-110373815D01*
X175579494Y-110294463D01*
X175469180Y-110235498D01*
X175349482Y-110199188D01*
X175225000Y-110186928D01*
X175073250Y-110190000D01*
X174914500Y-110348750D01*
X174660500Y-110348750D01*
X174501750Y-110190000D01*
X174350000Y-110186928D01*
X174225518Y-110199188D01*
X174105820Y-110235498D01*
X173999900Y-110292114D01*
X173999900Y-110213650D01*
X174378551Y-109835000D01*
X174401939Y-109835000D01*
X174601898Y-109795226D01*
X174790256Y-109717205D01*
X174959774Y-109603937D01*
X175103937Y-109459774D01*
X175217205Y-109290256D01*
X175295226Y-109101898D01*
X175335000Y-108901939D01*
X175335000Y-108698061D01*
X175295226Y-108498102D01*
X175217205Y-108309744D01*
X175103937Y-108140226D01*
X174959774Y-107996063D01*
X174790256Y-107882795D01*
X174601898Y-107804774D01*
X174401939Y-107765000D01*
X174198061Y-107765000D01*
X173998102Y-107804774D01*
X173809744Y-107882795D01*
X173640226Y-107996063D01*
X173496063Y-108140226D01*
X173382795Y-108309744D01*
X173304774Y-108498102D01*
X173265000Y-108698061D01*
X173265000Y-108721449D01*
X172683073Y-109303377D01*
X172653032Y-109328031D01*
X172628379Y-109358071D01*
X172554635Y-109447928D01*
X172481518Y-109584718D01*
X172436495Y-109733143D01*
X172421292Y-109887500D01*
X172425101Y-109926172D01*
X172425101Y-110407343D01*
X172387885Y-110437885D01*
X172326569Y-110512600D01*
X171673431Y-110512600D01*
X171612115Y-110437885D01*
X171482275Y-110331329D01*
X171334142Y-110252150D01*
X171173408Y-110203392D01*
X171006250Y-110186928D01*
X170568750Y-110186928D01*
X170401592Y-110203392D01*
X170240858Y-110252150D01*
X170092725Y-110331329D01*
X170000000Y-110407426D01*
X169999900Y-110407344D01*
X169999900Y-106341000D01*
X171061928Y-106341000D01*
X171061928Y-106575000D01*
X171074188Y-106699482D01*
X171110498Y-106819180D01*
X171169463Y-106929494D01*
X171248815Y-107026185D01*
X171345506Y-107105537D01*
X171455820Y-107164502D01*
X171575518Y-107200812D01*
X171700000Y-107213072D01*
X174700000Y-107213072D01*
X174824482Y-107200812D01*
X174944180Y-107164502D01*
X175054494Y-107105537D01*
X175151185Y-107026185D01*
X175230537Y-106929494D01*
X175289502Y-106819180D01*
X175325812Y-106699482D01*
X175338072Y-106575000D01*
X175338072Y-104075000D01*
X175325812Y-103950518D01*
X175289502Y-103830820D01*
X175230537Y-103720506D01*
X175151185Y-103623815D01*
X175054494Y-103544463D01*
X174944180Y-103485498D01*
X174824482Y-103449188D01*
X174700000Y-103436928D01*
X171700000Y-103436928D01*
X171575518Y-103449188D01*
X171455820Y-103485498D01*
X171345506Y-103544463D01*
X171248815Y-103623815D01*
X171169463Y-103720506D01*
X171110498Y-103830820D01*
X171074188Y-103950518D01*
X171061928Y-104075000D01*
X171061928Y-104309000D01*
X168845841Y-104309000D01*
X167016000Y-102479160D01*
X167016000Y-98299460D01*
X167134445Y-98181015D01*
X167294279Y-97941806D01*
X167404374Y-97676012D01*
X167460500Y-97393847D01*
X167460500Y-97106153D01*
X167404374Y-96823988D01*
X167294279Y-96558194D01*
X167134445Y-96318985D01*
X166931015Y-96115555D01*
X166691806Y-95955721D01*
X166426012Y-95845626D01*
X166143847Y-95789500D01*
X165856153Y-95789500D01*
X165573988Y-95845626D01*
X165308194Y-95955721D01*
X165068985Y-96115555D01*
X164865555Y-96318985D01*
X164705721Y-96558194D01*
X164595626Y-96823988D01*
X164539500Y-97106153D01*
X164016000Y-97106153D01*
X164016000Y-92670840D01*
X165544628Y-91142213D01*
X165573988Y-91154374D01*
X165856153Y-91210500D01*
X166143847Y-91210500D01*
X166426012Y-91154374D01*
X166691806Y-91044279D01*
X166931015Y-90884445D01*
X167134445Y-90681015D01*
X167294279Y-90441806D01*
X167404374Y-90176012D01*
X167460500Y-89893847D01*
X167460500Y-89606153D01*
X167404374Y-89323988D01*
X167294279Y-89058194D01*
X167134445Y-88818985D01*
X166931015Y-88615555D01*
X166691806Y-88455721D01*
X166574477Y-88407122D01*
X166567189Y-88401141D01*
X166390687Y-88306798D01*
X166199170Y-88248702D01*
X166000000Y-88229085D01*
X165800829Y-88248702D01*
X165609313Y-88306798D01*
X165432810Y-88401141D01*
X165425521Y-88407123D01*
X165308194Y-88455721D01*
X165068985Y-88615555D01*
X164865555Y-88818985D01*
X164705721Y-89058194D01*
X164670900Y-89142259D01*
X162316872Y-91496288D01*
X162278104Y-91528104D01*
X162151140Y-91682810D01*
X162056798Y-91859314D01*
X162029540Y-91949171D01*
X161998702Y-92050830D01*
X161979085Y-92250000D01*
X161984000Y-92299902D01*
X161984001Y-112200088D01*
X161979085Y-112250000D01*
X161998702Y-112449170D01*
X162056799Y-112640687D01*
X162151141Y-112817190D01*
X162278105Y-112971896D01*
X162316868Y-113003708D01*
X164539500Y-115226341D01*
X164539500Y-115393847D01*
X164595626Y-115676012D01*
X164705721Y-115941806D01*
X164865555Y-116181015D01*
X165068985Y-116384445D01*
X165308194Y-116544279D01*
X165573988Y-116654374D01*
X165856153Y-116710500D01*
X166143847Y-116710500D01*
X166426012Y-116654374D01*
X166691806Y-116544279D01*
X166931015Y-116384445D01*
X167049460Y-116266000D01*
X186523678Y-116266000D01*
X186499463Y-116295506D01*
X186440498Y-116405820D01*
X186404188Y-116525518D01*
X186391928Y-116650000D01*
X186391928Y-118350000D01*
X186404188Y-118474482D01*
X186440498Y-118594180D01*
X186499463Y-118704494D01*
X186578815Y-118801185D01*
X186675506Y-118880537D01*
X186785820Y-118939502D01*
X186905518Y-118975812D01*
X187030000Y-118988072D01*
X188730000Y-118988072D01*
X188854482Y-118975812D01*
X188974180Y-118939502D01*
X189084494Y-118880537D01*
X189181185Y-118801185D01*
X189260537Y-118704494D01*
X189319502Y-118594180D01*
X189341513Y-118521620D01*
X189473368Y-118653475D01*
X189716589Y-118815990D01*
X189986842Y-118927932D01*
X190273740Y-118985000D01*
X190566260Y-118985000D01*
X190853158Y-118927932D01*
X191123411Y-118815990D01*
X191366632Y-118653475D01*
X191573475Y-118446632D01*
X191690000Y-118272240D01*
X191806525Y-118446632D01*
X192013368Y-118653475D01*
X192256589Y-118815990D01*
X192526842Y-118927932D01*
X192813740Y-118985000D01*
X193106260Y-118985000D01*
X193355897Y-118935344D01*
X195014746Y-120594193D01*
X195037762Y-120622238D01*
X195149680Y-120714087D01*
X195277367Y-120782337D01*
X195415915Y-120824365D01*
X195523895Y-120835000D01*
X195523904Y-120835000D01*
X195559999Y-120838555D01*
X195596094Y-120835000D01*
X197963895Y-120835000D01*
X198000000Y-120838556D01*
X198036105Y-120835000D01*
X198144085Y-120824365D01*
X198282633Y-120782337D01*
X198410320Y-120714087D01*
X198522238Y-120622238D01*
X198545258Y-120594188D01*
X199865000Y-119274447D01*
X199865000Y-119308771D01*
X199985476Y-119914446D01*
X200221799Y-120484979D01*
X200564886Y-120998446D01*
X201001554Y-121435114D01*
X201515021Y-121778201D01*
X202085554Y-122014524D01*
X202691229Y-122135000D01*
X203282767Y-122135000D01*
X202628543Y-122292065D01*
X201975793Y-122340000D01*
X135029392Y-122340000D01*
X134231917Y-122268827D01*
X133488110Y-122065344D01*
X132792096Y-121733363D01*
X132165870Y-121283374D01*
X131629223Y-120729597D01*
X131199129Y-120089549D01*
X130889171Y-119383447D01*
X130722985Y-118691229D01*
X159865000Y-118691229D01*
X159865000Y-119308771D01*
X159985476Y-119914446D01*
X160221799Y-120484979D01*
X160564886Y-120998446D01*
X161001554Y-121435114D01*
X161515021Y-121778201D01*
X162085554Y-122014524D01*
X162691229Y-122135000D01*
X163308771Y-122135000D01*
X163914446Y-122014524D01*
X164484979Y-121778201D01*
X164998446Y-121435114D01*
X165435114Y-120998446D01*
X165778201Y-120484979D01*
X166014524Y-119914446D01*
X166135000Y-119308771D01*
X166135000Y-118691229D01*
X166014524Y-118085554D01*
X165778201Y-117515021D01*
X165435114Y-117001554D01*
X164998446Y-116564886D01*
X164484979Y-116221799D01*
X163914446Y-115985476D01*
X163308771Y-115865000D01*
X162691229Y-115865000D01*
X162085554Y-115985476D01*
X161515021Y-116221799D01*
X161001554Y-116564886D01*
X160564886Y-117001554D01*
X160221799Y-117515021D01*
X159985476Y-118085554D01*
X159865000Y-118691229D01*
X130722985Y-118691229D01*
X130707935Y-118628543D01*
X130660000Y-117975793D01*
X130660000Y-87029392D01*
X130731173Y-86231917D01*
X130879088Y-85691229D01*
X159865000Y-85691229D01*
X159865000Y-86308771D01*
X159985476Y-86914446D01*
X160221799Y-87484979D01*
X160564886Y-87998446D01*
X161001554Y-88435114D01*
X161515021Y-88778201D01*
X162085554Y-89014524D01*
X162691229Y-89135000D01*
X163308771Y-89135000D01*
X163914446Y-89014524D01*
X164484979Y-88778201D01*
X164998446Y-88435114D01*
X165435114Y-87998446D01*
X165778201Y-87484979D01*
X166014524Y-86914446D01*
X166135000Y-86308771D01*
X166135000Y-85691229D01*
X166014524Y-85085554D01*
X165778201Y-84515021D01*
X165435114Y-84001554D01*
X164998446Y-83564886D01*
X164484979Y-83221799D01*
X163914446Y-82985476D01*
X163308771Y-82865000D01*
X162691229Y-82865000D01*
X162085554Y-82985476D01*
X161515021Y-83221799D01*
X161001554Y-83564886D01*
X160564886Y-84001554D01*
X160221799Y-84515021D01*
X159985476Y-85085554D01*
X159865000Y-85691229D01*
X130879088Y-85691229D01*
X130934656Y-85488109D01*
X131266638Y-84792095D01*
X131716626Y-84165870D01*
X132270403Y-83629223D01*
X132910451Y-83199129D01*
X133616553Y-82889171D01*
X134371457Y-82707935D01*
X135024207Y-82660000D01*
X201970608Y-82660000D01*
X202768083Y-82731173D01*
G37*
X202768083Y-82731173D02*
X203257272Y-82865000D01*
X202691229Y-82865000D01*
X202085554Y-82985476D01*
X201515021Y-83221799D01*
X201001554Y-83564886D01*
X200564886Y-84001554D01*
X200221799Y-84515021D01*
X199985476Y-85085554D01*
X199865000Y-85691229D01*
X199865000Y-86308771D01*
X199985476Y-86914446D01*
X200221799Y-87484979D01*
X200564886Y-87998446D01*
X201001554Y-88435114D01*
X201515021Y-88778201D01*
X202085554Y-89014524D01*
X202691229Y-89135000D01*
X203308771Y-89135000D01*
X203914446Y-89014524D01*
X204484979Y-88778201D01*
X204998446Y-88435114D01*
X205435114Y-87998446D01*
X205778201Y-87484979D01*
X206014524Y-86914446D01*
X206135000Y-86308771D01*
X206135000Y-85717233D01*
X206292065Y-86371457D01*
X206340000Y-87024207D01*
X206340001Y-117970597D01*
X206268827Y-118768083D01*
X206135000Y-119257273D01*
X206135000Y-118691229D01*
X206014524Y-118085554D01*
X205778201Y-117515021D01*
X205435114Y-117001554D01*
X204998446Y-116564886D01*
X204484979Y-116221799D01*
X203914446Y-115985476D01*
X203308771Y-115865000D01*
X202691229Y-115865000D01*
X202085554Y-115985476D01*
X201515021Y-116221799D01*
X201001554Y-116564886D01*
X200564886Y-117001554D01*
X200335000Y-117345603D01*
X200335000Y-116604446D01*
X201304447Y-115635000D01*
X202417049Y-115635000D01*
X202557111Y-115728586D01*
X202727271Y-115799068D01*
X202907911Y-115835000D01*
X203092089Y-115835000D01*
X203272729Y-115799068D01*
X203442889Y-115728586D01*
X203596028Y-115626262D01*
X203726262Y-115496028D01*
X203828586Y-115342889D01*
X203899068Y-115172729D01*
X203935000Y-114992089D01*
X203935000Y-114807911D01*
X203899068Y-114627271D01*
X203828586Y-114457111D01*
X203726262Y-114303972D01*
X203596028Y-114173738D01*
X203442889Y-114071414D01*
X203272729Y-114000932D01*
X203215610Y-113989570D01*
X203235000Y-113892089D01*
X203235000Y-113707911D01*
X203199068Y-113527271D01*
X203128586Y-113357111D01*
X203026262Y-113203972D01*
X202896028Y-113073738D01*
X202742889Y-112971414D01*
X202572729Y-112900932D01*
X202392089Y-112865000D01*
X202207911Y-112865000D01*
X202027271Y-112900932D01*
X201857111Y-112971414D01*
X201717049Y-113065000D01*
X197436105Y-113065000D01*
X197400000Y-113061444D01*
X197363895Y-113065000D01*
X197255915Y-113075635D01*
X197117367Y-113117663D01*
X196989680Y-113185913D01*
X196877762Y-113277762D01*
X196854746Y-113305807D01*
X195005808Y-115154746D01*
X194977762Y-115177763D01*
X194885913Y-115289681D01*
X194817663Y-115417368D01*
X194816186Y-115422238D01*
X194775635Y-115555915D01*
X194761444Y-115700000D01*
X194765000Y-115736105D01*
X194765000Y-116205117D01*
X194553368Y-116346525D01*
X194346525Y-116553368D01*
X194230000Y-116727760D01*
X194113475Y-116553368D01*
X193906632Y-116346525D01*
X193663411Y-116184010D01*
X193393158Y-116072068D01*
X193106260Y-116015000D01*
X192813740Y-116015000D01*
X192526842Y-116072068D01*
X192256589Y-116184010D01*
X192013368Y-116346525D01*
X191806525Y-116553368D01*
X191690000Y-116727760D01*
X191573475Y-116553368D01*
X191366632Y-116346525D01*
X191123411Y-116184010D01*
X190853158Y-116072068D01*
X190566260Y-116015000D01*
X190273740Y-116015000D01*
X189986842Y-116072068D01*
X189953616Y-116085831D01*
X191994193Y-114045254D01*
X192022238Y-114022238D01*
X192114087Y-113910320D01*
X192182337Y-113782633D01*
X192211616Y-113686114D01*
X192224365Y-113644086D01*
X192225765Y-113629868D01*
X192235000Y-113536105D01*
X192235000Y-113536098D01*
X192238555Y-113500001D01*
X192235000Y-113463904D01*
X192235000Y-111982951D01*
X192328586Y-111842889D01*
X192399068Y-111672729D01*
X192435000Y-111492089D01*
X192435000Y-111307911D01*
X192399068Y-111127271D01*
X192328586Y-110957111D01*
X192226262Y-110803972D01*
X192096028Y-110673738D01*
X191942889Y-110571414D01*
X191772729Y-110500932D01*
X191592089Y-110465000D01*
X191407911Y-110465000D01*
X191227271Y-110500932D01*
X191116000Y-110547022D01*
X191116000Y-109945230D01*
X191300829Y-110001298D01*
X191450098Y-110016000D01*
X191450105Y-110016000D01*
X191499999Y-110020914D01*
X191549893Y-110016000D01*
X196450098Y-110016000D01*
X196500000Y-110020915D01*
X196549902Y-110016000D01*
X196699171Y-110001298D01*
X196890687Y-109943202D01*
X197067190Y-109848860D01*
X197221896Y-109721896D01*
X197253712Y-109683128D01*
X197898768Y-109038072D01*
X199550000Y-109038072D01*
X199723254Y-109021008D01*
X199889850Y-108970472D01*
X200043386Y-108888405D01*
X200177962Y-108777962D01*
X200288405Y-108643386D01*
X200370472Y-108489850D01*
X200421008Y-108323254D01*
X200438072Y-108150000D01*
X200438072Y-106850000D01*
X200421008Y-106676746D01*
X200370472Y-106510150D01*
X200288405Y-106356614D01*
X200177962Y-106222038D01*
X200043386Y-106111595D01*
X199889850Y-106029528D01*
X199723254Y-105978992D01*
X199550000Y-105961928D01*
X196450000Y-105961928D01*
X196276746Y-105978992D01*
X196110150Y-106029528D01*
X195956614Y-106111595D01*
X195822038Y-106222038D01*
X195711595Y-106356614D01*
X195629528Y-106510150D01*
X195578992Y-106676746D01*
X195561928Y-106850000D01*
X195561928Y-107984000D01*
X191920841Y-107984000D01*
X191619568Y-107682728D01*
X191713405Y-107568386D01*
X191795472Y-107414850D01*
X191822727Y-107325000D01*
X192136928Y-107325000D01*
X192149188Y-107449482D01*
X192185498Y-107569180D01*
X192244463Y-107679494D01*
X192323815Y-107776185D01*
X192420506Y-107855537D01*
X192530820Y-107914502D01*
X192650518Y-107950812D01*
X192775000Y-107963072D01*
X193114250Y-107960000D01*
X193273000Y-107801250D01*
X193273000Y-106127000D01*
X193527000Y-106127000D01*
X193527000Y-107801250D01*
X193685750Y-107960000D01*
X194025000Y-107963072D01*
X194149482Y-107950812D01*
X194269180Y-107914502D01*
X194379494Y-107855537D01*
X194476185Y-107776185D01*
X194555537Y-107679494D01*
X194614502Y-107569180D01*
X194650812Y-107449482D01*
X194663072Y-107325000D01*
X194660000Y-106285750D01*
X194501250Y-106127000D01*
X193527000Y-106127000D01*
X193273000Y-106127000D01*
X192298750Y-106127000D01*
X192140000Y-106285750D01*
X192136928Y-107325000D01*
X191822727Y-107325000D01*
X191846008Y-107248254D01*
X191863072Y-107075000D01*
X191863072Y-104925000D01*
X191846008Y-104751746D01*
X191822728Y-104675000D01*
X192136928Y-104675000D01*
X192140000Y-105714250D01*
X192298750Y-105873000D01*
X193273000Y-105873000D01*
X193273000Y-104198750D01*
X193527000Y-104198750D01*
X193527000Y-105873000D01*
X194501250Y-105873000D01*
X194660000Y-105714250D01*
X194663072Y-104675000D01*
X194650812Y-104550518D01*
X194614502Y-104430820D01*
X194579181Y-104364740D01*
X195608964Y-104364740D01*
X195633245Y-104470087D01*
X195753138Y-104747204D01*
X195924790Y-104995606D01*
X196141604Y-105205748D01*
X196395249Y-105369554D01*
X196675977Y-105480729D01*
X196973000Y-105535000D01*
X197873000Y-105535000D01*
X197873000Y-104127000D01*
X198127000Y-104127000D01*
X198127000Y-105535000D01*
X199027000Y-105535000D01*
X199324023Y-105480729D01*
X199604751Y-105369554D01*
X199858396Y-105205748D01*
X200075210Y-104995606D01*
X200246862Y-104747204D01*
X200366755Y-104470087D01*
X200391036Y-104364740D01*
X200270378Y-104127000D01*
X198127000Y-104127000D01*
X197873000Y-104127000D01*
X195729622Y-104127000D01*
X195608964Y-104364740D01*
X194579181Y-104364740D01*
X194555537Y-104320506D01*
X194476185Y-104223815D01*
X194379494Y-104144463D01*
X194269180Y-104085498D01*
X194149482Y-104049188D01*
X194025000Y-104036928D01*
X193685750Y-104040000D01*
X193527000Y-104198750D01*
X193273000Y-104198750D01*
X193114250Y-104040000D01*
X192775000Y-104036928D01*
X192650518Y-104049188D01*
X192530820Y-104085498D01*
X192420506Y-104144463D01*
X192323815Y-104223815D01*
X192244463Y-104320506D01*
X192185498Y-104430820D01*
X192149188Y-104550518D01*
X192136928Y-104675000D01*
X191822728Y-104675000D01*
X191795472Y-104585150D01*
X191713405Y-104431614D01*
X191602962Y-104297038D01*
X191468386Y-104186595D01*
X191314850Y-104104528D01*
X191148254Y-104053992D01*
X190975000Y-104036928D01*
X190225000Y-104036928D01*
X190153709Y-104043950D01*
X190143202Y-104009313D01*
X190048860Y-103832810D01*
X189987019Y-103757456D01*
X189976006Y-103645643D01*
X189972857Y-103635260D01*
X195608964Y-103635260D01*
X195729622Y-103873000D01*
X197873000Y-103873000D01*
X197873000Y-102465000D01*
X198127000Y-102465000D01*
X198127000Y-103873000D01*
X200270378Y-103873000D01*
X200391036Y-103635260D01*
X200366755Y-103529913D01*
X200246862Y-103252796D01*
X200075210Y-103004394D01*
X199858396Y-102794252D01*
X199604751Y-102630446D01*
X199324023Y-102519271D01*
X199027000Y-102465000D01*
X198127000Y-102465000D01*
X197873000Y-102465000D01*
X196973000Y-102465000D01*
X196675977Y-102519271D01*
X196395249Y-102630446D01*
X196141604Y-102794252D01*
X195924790Y-103004394D01*
X195753138Y-103252796D01*
X195633245Y-103529913D01*
X195608964Y-103635260D01*
X189972857Y-103635260D01*
X189930982Y-103497217D01*
X189857866Y-103360428D01*
X189818451Y-103312401D01*
X189784121Y-103270569D01*
X189784119Y-103270567D01*
X189759469Y-103240531D01*
X189729433Y-103215881D01*
X189426499Y-102912948D01*
X190062197Y-102277249D01*
X190070572Y-102284122D01*
X190165000Y-102378550D01*
X190165000Y-102401939D01*
X190204774Y-102601898D01*
X190282795Y-102790256D01*
X190396063Y-102959774D01*
X190540226Y-103103937D01*
X190709744Y-103217205D01*
X190898102Y-103295226D01*
X191098061Y-103335000D01*
X191301939Y-103335000D01*
X191501898Y-103295226D01*
X191690256Y-103217205D01*
X191859774Y-103103937D01*
X192003937Y-102959774D01*
X192117205Y-102790256D01*
X192195226Y-102601898D01*
X192235000Y-102401939D01*
X192235000Y-102198061D01*
X192195226Y-101998102D01*
X192117205Y-101809744D01*
X192003937Y-101640226D01*
X191859774Y-101496063D01*
X191690256Y-101382795D01*
X191501898Y-101304774D01*
X191387400Y-101281999D01*
X191387400Y-100856693D01*
X191468386Y-100813405D01*
X191602962Y-100702962D01*
X191713405Y-100568386D01*
X191795472Y-100414850D01*
X191822727Y-100325000D01*
X192136928Y-100325000D01*
X192149188Y-100449482D01*
X192185498Y-100569180D01*
X192244463Y-100679494D01*
X192323815Y-100776185D01*
X192420506Y-100855537D01*
X192530820Y-100914502D01*
X192650518Y-100950812D01*
X192775000Y-100963072D01*
X193114250Y-100960000D01*
X193273000Y-100801250D01*
X193273000Y-99127000D01*
X193527000Y-99127000D01*
X193527000Y-100801250D01*
X193685750Y-100960000D01*
X194025000Y-100963072D01*
X194149482Y-100950812D01*
X194269180Y-100914502D01*
X194362276Y-100864740D01*
X195608964Y-100864740D01*
X195633245Y-100970087D01*
X195753138Y-101247204D01*
X195924790Y-101495606D01*
X196141604Y-101705748D01*
X196395249Y-101869554D01*
X196675977Y-101980729D01*
X196973000Y-102035000D01*
X197873000Y-102035000D01*
X197873000Y-100627000D01*
X198127000Y-100627000D01*
X198127000Y-102035000D01*
X199027000Y-102035000D01*
X199324023Y-101980729D01*
X199604751Y-101869554D01*
X199858396Y-101705748D01*
X200075210Y-101495606D01*
X200246862Y-101247204D01*
X200366755Y-100970087D01*
X200391036Y-100864740D01*
X200270378Y-100627000D01*
X198127000Y-100627000D01*
X197873000Y-100627000D01*
X195729622Y-100627000D01*
X195608964Y-100864740D01*
X194362276Y-100864740D01*
X194379494Y-100855537D01*
X194476185Y-100776185D01*
X194555537Y-100679494D01*
X194614502Y-100569180D01*
X194650812Y-100449482D01*
X194663072Y-100325000D01*
X194662512Y-100135260D01*
X195608964Y-100135260D01*
X195729622Y-100373000D01*
X197873000Y-100373000D01*
X197873000Y-98965000D01*
X198127000Y-98965000D01*
X198127000Y-100373000D01*
X200270378Y-100373000D01*
X200391036Y-100135260D01*
X200366755Y-100029913D01*
X200246862Y-99752796D01*
X200075210Y-99504394D01*
X199858396Y-99294252D01*
X199604751Y-99130446D01*
X199324023Y-99019271D01*
X199027000Y-98965000D01*
X198127000Y-98965000D01*
X197873000Y-98965000D01*
X196973000Y-98965000D01*
X196675977Y-99019271D01*
X196395249Y-99130446D01*
X196141604Y-99294252D01*
X195924790Y-99504394D01*
X195753138Y-99752796D01*
X195633245Y-100029913D01*
X195608964Y-100135260D01*
X194662512Y-100135260D01*
X194660000Y-99285750D01*
X194501250Y-99127000D01*
X193527000Y-99127000D01*
X193273000Y-99127000D01*
X192298750Y-99127000D01*
X192140000Y-99285750D01*
X192136928Y-100325000D01*
X191822727Y-100325000D01*
X191846008Y-100248254D01*
X191863072Y-100075000D01*
X191863072Y-97925000D01*
X191846008Y-97751746D01*
X191822728Y-97675000D01*
X192136928Y-97675000D01*
X192140000Y-98714250D01*
X192298750Y-98873000D01*
X193273000Y-98873000D01*
X193273000Y-97198750D01*
X193527000Y-97198750D01*
X193527000Y-98873000D01*
X194501250Y-98873000D01*
X194660000Y-98714250D01*
X194663072Y-97675000D01*
X194650812Y-97550518D01*
X194614502Y-97430820D01*
X194555537Y-97320506D01*
X194476185Y-97223815D01*
X194379494Y-97144463D01*
X194269180Y-97085498D01*
X194149482Y-97049188D01*
X194025000Y-97036928D01*
X193685750Y-97040000D01*
X193527000Y-97198750D01*
X193273000Y-97198750D01*
X193114250Y-97040000D01*
X192775000Y-97036928D01*
X192650518Y-97049188D01*
X192530820Y-97085498D01*
X192420506Y-97144463D01*
X192323815Y-97223815D01*
X192244463Y-97320506D01*
X192185498Y-97430820D01*
X192149188Y-97550518D01*
X192136928Y-97675000D01*
X191822728Y-97675000D01*
X191795472Y-97585150D01*
X191713405Y-97431614D01*
X191602962Y-97297038D01*
X191544654Y-97249186D01*
X191610320Y-97214087D01*
X191722238Y-97122238D01*
X191745258Y-97094188D01*
X192706697Y-96132750D01*
X192734737Y-96109738D01*
X192757750Y-96081697D01*
X192757753Y-96081694D01*
X192826586Y-95997821D01*
X192826587Y-95997820D01*
X192894837Y-95870133D01*
X192936865Y-95731585D01*
X192947500Y-95623605D01*
X192947500Y-95623596D01*
X192951055Y-95587501D01*
X192947500Y-95551406D01*
X192947500Y-95466140D01*
X192995506Y-95505537D01*
X193105820Y-95564502D01*
X193225518Y-95600812D01*
X193350000Y-95613072D01*
X193501750Y-95610000D01*
X193660500Y-95451250D01*
X193660500Y-94627000D01*
X193914500Y-94627000D01*
X193914500Y-95451250D01*
X194073250Y-95610000D01*
X194225000Y-95613072D01*
X194349482Y-95600812D01*
X194469180Y-95564502D01*
X194579494Y-95505537D01*
X194676185Y-95426185D01*
X194755537Y-95329494D01*
X194814502Y-95219180D01*
X194850812Y-95099482D01*
X194863072Y-94975000D01*
X194860000Y-94785750D01*
X194701250Y-94627000D01*
X193914500Y-94627000D01*
X193660500Y-94627000D01*
X193640500Y-94627000D01*
X193640500Y-94373000D01*
X193660500Y-94373000D01*
X193660500Y-93548750D01*
X193914500Y-93548750D01*
X193914500Y-94373000D01*
X194701250Y-94373000D01*
X194860000Y-94214250D01*
X194863072Y-94025000D01*
X194850812Y-93900518D01*
X194814502Y-93780820D01*
X194755537Y-93670506D01*
X194676185Y-93573815D01*
X194579494Y-93494463D01*
X194469180Y-93435498D01*
X194349482Y-93399188D01*
X194225000Y-93386928D01*
X194073250Y-93390000D01*
X193914500Y-93548750D01*
X193660500Y-93548750D01*
X193501750Y-93390000D01*
X193350000Y-93386928D01*
X193225518Y-93399188D01*
X193105820Y-93435498D01*
X192995506Y-93494463D01*
X192928930Y-93549100D01*
X192907275Y-93531329D01*
X192759142Y-93452150D01*
X192598408Y-93403392D01*
X192431250Y-93386928D01*
X191993750Y-93386928D01*
X191826592Y-93403392D01*
X191665858Y-93452150D01*
X191517725Y-93531329D01*
X191387885Y-93637885D01*
X191326569Y-93712600D01*
X190673431Y-93712600D01*
X190612115Y-93637885D01*
X190482275Y-93531329D01*
X190334142Y-93452150D01*
X190248247Y-93426094D01*
X190670188Y-93004153D01*
X190699171Y-93001298D01*
X190890687Y-92943202D01*
X191067190Y-92848860D01*
X191221896Y-92721896D01*
X191253713Y-92683127D01*
X191433127Y-92503713D01*
X191471896Y-92471896D01*
X191598860Y-92317190D01*
X191693202Y-92140687D01*
X191751298Y-91949171D01*
X191766000Y-91799902D01*
X191766000Y-91799895D01*
X191770914Y-91750001D01*
X191766000Y-91700107D01*
X191766000Y-91232670D01*
X191805537Y-91184494D01*
X191864502Y-91074180D01*
X191900812Y-90954482D01*
X191913072Y-90830000D01*
X191913072Y-89980000D01*
X191900812Y-89855518D01*
X191874870Y-89770000D01*
X191900812Y-89684482D01*
X191913072Y-89560000D01*
X191913072Y-88710000D01*
X191900812Y-88585518D01*
X191874870Y-88500000D01*
X191900812Y-88414482D01*
X191913072Y-88290000D01*
X191913072Y-87440000D01*
X191900812Y-87315518D01*
X191874870Y-87230000D01*
X191900812Y-87144482D01*
X191913072Y-87020000D01*
X191913072Y-86170000D01*
X191900812Y-86045518D01*
X191864502Y-85925820D01*
X191859253Y-85916000D01*
X192779160Y-85916000D01*
X196984000Y-90120841D01*
X196984001Y-95468998D01*
X196799087Y-95487210D01*
X196509739Y-95574983D01*
X196243073Y-95717519D01*
X196009339Y-95909339D01*
X195817519Y-96143073D01*
X195674983Y-96409739D01*
X195587210Y-96699087D01*
X195557573Y-97000000D01*
X195587210Y-97300913D01*
X195674983Y-97590261D01*
X195817519Y-97856927D01*
X196009339Y-98090661D01*
X196243073Y-98282481D01*
X196509739Y-98425017D01*
X196799087Y-98512790D01*
X197024592Y-98535000D01*
X198975408Y-98535000D01*
X199200913Y-98512790D01*
X199490261Y-98425017D01*
X199756927Y-98282481D01*
X199990661Y-98090661D01*
X200182481Y-97856927D01*
X200325017Y-97590261D01*
X200412790Y-97300913D01*
X200442427Y-97000000D01*
X200412790Y-96699087D01*
X200325017Y-96409739D01*
X200182481Y-96143073D01*
X199990661Y-95909339D01*
X199756927Y-95717519D01*
X199490261Y-95574983D01*
X199200913Y-95487210D01*
X199016000Y-95468998D01*
X199016000Y-89749901D01*
X199020915Y-89699999D01*
X199001298Y-89500829D01*
X198997344Y-89487795D01*
X198943202Y-89309313D01*
X198848860Y-89132810D01*
X198721896Y-88978104D01*
X198683133Y-88946292D01*
X193953712Y-84216872D01*
X193921896Y-84178104D01*
X193767190Y-84051140D01*
X193590687Y-83956798D01*
X193399171Y-83898702D01*
X193249902Y-83884000D01*
X193200000Y-83879085D01*
X193150098Y-83884000D01*
X177549902Y-83884000D01*
X177500000Y-83879085D01*
X177450098Y-83884000D01*
X177300829Y-83898702D01*
X177109313Y-83956798D01*
X176932810Y-84051140D01*
X176778104Y-84178104D01*
X176746292Y-84216867D01*
X175666868Y-85296292D01*
X175628105Y-85328104D01*
X175501141Y-85482810D01*
X175485577Y-85511928D01*
X174475000Y-85511928D01*
X174350518Y-85524188D01*
X174325003Y-85531928D01*
X173425000Y-85531928D01*
X173300518Y-85544188D01*
X173180820Y-85580498D01*
X173070506Y-85639463D01*
X172973815Y-85718815D01*
X172894463Y-85815506D01*
X172835498Y-85925820D01*
X172799188Y-86045518D01*
X172786928Y-86170000D01*
X172786928Y-87020000D01*
X172799188Y-87144482D01*
X172825130Y-87230000D01*
X172799188Y-87315518D01*
X172786928Y-87440000D01*
X172786928Y-88290000D01*
X172799188Y-88414482D01*
X172825130Y-88500000D01*
X172799188Y-88585518D01*
X172786928Y-88710000D01*
X172786928Y-89388573D01*
X172633329Y-89403702D01*
X172441813Y-89461798D01*
X172265310Y-89556140D01*
X172110604Y-89683104D01*
X172078794Y-89721865D01*
X168529368Y-93271292D01*
X168490605Y-93303104D01*
X168363641Y-93457810D01*
X168269298Y-93634313D01*
X168213679Y-93817663D01*
X168211202Y-93825830D01*
X168202377Y-93915434D01*
X168202150Y-93915858D01*
X168153392Y-94076592D01*
X168136928Y-94243750D01*
X168136928Y-94756250D01*
X168153392Y-94923408D01*
X168202150Y-95084142D01*
X168281329Y-95232275D01*
X168387885Y-95362115D01*
X168517725Y-95468671D01*
X168665858Y-95547850D01*
X168826592Y-95596608D01*
X168993750Y-95613072D01*
X169431250Y-95613072D01*
X169598408Y-95596608D01*
X169759142Y-95547850D01*
X169907275Y-95468671D01*
X170000000Y-95392574D01*
X170092725Y-95468671D01*
X170240858Y-95547850D01*
X170401592Y-95596608D01*
X170568750Y-95613072D01*
X171006250Y-95613072D01*
X171173408Y-95596608D01*
X171334142Y-95547850D01*
X171482275Y-95468671D01*
X171612115Y-95362115D01*
X171673431Y-95287400D01*
X172326569Y-95287400D01*
X172387885Y-95362115D01*
X172425101Y-95392657D01*
X172425101Y-95973827D01*
X172421292Y-96012500D01*
X172436495Y-96166857D01*
X172481518Y-96315282D01*
X172521824Y-96390688D01*
X172554635Y-96452072D01*
X172653032Y-96571969D01*
X172683073Y-96596623D01*
X173715881Y-97629433D01*
X173740531Y-97659469D01*
X173770567Y-97684119D01*
X173770569Y-97684121D01*
X173812624Y-97718634D01*
X173860428Y-97757866D01*
X173914799Y-97786928D01*
X171700000Y-97786928D01*
X171575518Y-97799188D01*
X171455820Y-97835498D01*
X171345506Y-97894463D01*
X171248815Y-97973815D01*
X171169463Y-98070506D01*
X171110498Y-98180820D01*
X171074188Y-98300518D01*
X171061928Y-98425000D01*
X171061928Y-100925000D01*
X171074188Y-101049482D01*
X171110498Y-101169180D01*
X171169463Y-101279494D01*
X171248815Y-101376185D01*
X171345506Y-101455537D01*
X171455820Y-101514502D01*
X171575518Y-101550812D01*
X171700000Y-101563072D01*
X174700000Y-101563072D01*
X174824482Y-101550812D01*
X174944180Y-101514502D01*
X175054494Y-101455537D01*
X175151185Y-101376185D01*
X175230537Y-101279494D01*
X175289502Y-101169180D01*
X175325812Y-101049482D01*
X175338072Y-100925000D01*
X175338072Y-98425000D01*
X175325812Y-98300518D01*
X175289502Y-98180820D01*
X175249181Y-98105386D01*
X175398061Y-98135000D01*
X175601939Y-98135000D01*
X175801898Y-98095226D01*
X175990256Y-98017205D01*
X176159774Y-97903937D01*
X176303937Y-97759774D01*
X176417205Y-97590256D01*
X176495226Y-97401898D01*
X176535000Y-97201939D01*
X176535000Y-96998061D01*
X176495226Y-96798102D01*
X176417205Y-96609744D01*
X176303937Y-96440226D01*
X176159774Y-96296063D01*
X175990256Y-96182795D01*
X175801898Y-96104774D01*
X175601939Y-96065000D01*
X175398061Y-96065000D01*
X175198102Y-96104774D01*
X175009744Y-96182795D01*
X174840226Y-96296063D01*
X174823689Y-96312600D01*
X174626152Y-96312600D01*
X173999900Y-95686350D01*
X173999900Y-95507886D01*
X174105820Y-95564502D01*
X174225518Y-95600812D01*
X174350000Y-95613072D01*
X174501750Y-95610000D01*
X174660500Y-95451250D01*
X174660500Y-94627000D01*
X174640500Y-94627000D01*
X174640500Y-94373000D01*
X174660500Y-94373000D01*
X174660500Y-94353000D01*
X174914500Y-94353000D01*
X174914500Y-94373000D01*
X174934500Y-94373000D01*
X174934500Y-94627000D01*
X174914500Y-94627000D01*
X174914500Y-95451250D01*
X175073250Y-95610000D01*
X175225000Y-95613072D01*
X175349482Y-95600812D01*
X175469180Y-95564502D01*
X175579494Y-95505537D01*
X175676185Y-95426185D01*
X175755537Y-95329494D01*
X175814502Y-95219180D01*
X175850812Y-95099482D01*
X175863072Y-94975000D01*
X175860183Y-94797024D01*
X176246292Y-95183133D01*
X176271443Y-95213779D01*
X176281329Y-95232275D01*
X176387885Y-95362115D01*
X176517725Y-95468671D01*
X176665858Y-95547850D01*
X176826592Y-95596608D01*
X176993750Y-95613072D01*
X177378069Y-95613072D01*
X177209744Y-95682795D01*
X177040226Y-95796063D01*
X176896063Y-95940226D01*
X176782795Y-96109744D01*
X176704774Y-96298102D01*
X176665000Y-96498061D01*
X176665000Y-96701939D01*
X176704774Y-96901898D01*
X176782795Y-97090256D01*
X176896063Y-97259774D01*
X177040226Y-97403937D01*
X177209744Y-97517205D01*
X177288577Y-97549859D01*
X177256798Y-97609314D01*
X177211735Y-97757866D01*
X177198702Y-97800830D01*
X177179085Y-98000000D01*
X177184000Y-98049902D01*
X177184001Y-108350088D01*
X177179085Y-108400000D01*
X177198702Y-108599170D01*
X177243017Y-108745253D01*
X177256799Y-108790687D01*
X177296668Y-108865277D01*
X177098102Y-108904774D01*
X176909744Y-108982795D01*
X176740226Y-109096063D01*
X176596063Y-109240226D01*
X176482795Y-109409744D01*
X176404774Y-109598102D01*
X176365000Y-109798061D01*
X176365000Y-110001939D01*
X176404774Y-110201898D01*
X176473440Y-110367672D01*
X176387885Y-110437885D01*
X176281329Y-110567725D01*
X176202150Y-110715858D01*
X176153392Y-110876592D01*
X176136928Y-111043750D01*
X176136928Y-111556250D01*
X176153392Y-111723408D01*
X176202150Y-111884142D01*
X176281329Y-112032275D01*
X176387885Y-112162115D01*
X176517725Y-112268671D01*
X176665858Y-112347850D01*
X176826592Y-112396608D01*
X176993750Y-112413072D01*
X177431250Y-112413072D01*
X177598408Y-112396608D01*
X177759142Y-112347850D01*
X177907275Y-112268671D01*
X177928930Y-112250900D01*
X177995506Y-112305537D01*
X178105820Y-112364502D01*
X178225518Y-112400812D01*
X178350000Y-112413072D01*
X178501750Y-112410000D01*
X178660500Y-112251250D01*
X178660500Y-111427000D01*
X178640500Y-111427000D01*
X178640500Y-111173000D01*
X178660500Y-111173000D01*
X178660500Y-111153000D01*
X178914500Y-111153000D01*
X178914500Y-111173000D01*
X178934500Y-111173000D01*
X178934500Y-111427000D01*
X178914500Y-111427000D01*
X178914500Y-112251250D01*
X179073250Y-112410000D01*
X179225000Y-112413072D01*
X179349482Y-112400812D01*
X179469180Y-112364502D01*
X179579494Y-112305537D01*
X179676185Y-112226185D01*
X179755537Y-112129494D01*
X179814502Y-112019180D01*
X179850812Y-111899482D01*
X179863072Y-111775000D01*
X179860000Y-111585750D01*
X179701252Y-111427002D01*
X179860000Y-111427002D01*
X179860000Y-111416844D01*
X179909313Y-111443202D01*
X180042732Y-111483674D01*
X180100828Y-111501298D01*
X180120177Y-111503204D01*
X180250098Y-111516000D01*
X180250105Y-111516000D01*
X180299999Y-111520914D01*
X180349893Y-111516000D01*
X180786928Y-111516000D01*
X180786928Y-111925001D01*
X180803992Y-112098255D01*
X180854528Y-112264851D01*
X180936595Y-112418387D01*
X181047038Y-112552962D01*
X181181613Y-112663405D01*
X181335149Y-112745472D01*
X181501745Y-112796008D01*
X181674999Y-112813072D01*
X182525001Y-112813072D01*
X182698255Y-112796008D01*
X182864851Y-112745472D01*
X183018387Y-112663405D01*
X183152962Y-112552962D01*
X183263405Y-112418387D01*
X183345472Y-112264851D01*
X183396008Y-112098255D01*
X183413072Y-111925001D01*
X183413072Y-109074999D01*
X183396008Y-108901745D01*
X183345472Y-108735149D01*
X183263405Y-108581613D01*
X183159070Y-108454480D01*
X184417410Y-107196141D01*
X184417411Y-109866137D01*
X184413602Y-109904810D01*
X184428805Y-110059167D01*
X184473828Y-110207592D01*
X184539968Y-110331329D01*
X184546945Y-110344382D01*
X184645342Y-110464279D01*
X184675383Y-110488933D01*
X185215876Y-111029427D01*
X185240531Y-111059469D01*
X185270570Y-111084121D01*
X185360427Y-111157866D01*
X185497217Y-111230982D01*
X185645642Y-111276006D01*
X185659503Y-111277371D01*
X185761327Y-111287400D01*
X185761334Y-111287400D01*
X185800000Y-111291208D01*
X185838665Y-111287400D01*
X186586928Y-111287400D01*
X186586928Y-111925001D01*
X186603992Y-112098255D01*
X186654528Y-112264851D01*
X186736595Y-112418387D01*
X186847038Y-112552962D01*
X186981613Y-112663405D01*
X187135149Y-112745472D01*
X187301745Y-112796008D01*
X187474999Y-112813072D01*
X188325001Y-112813072D01*
X188498255Y-112796008D01*
X188664851Y-112745472D01*
X188818387Y-112663405D01*
X188952962Y-112552962D01*
X189063405Y-112418387D01*
X189084000Y-112379856D01*
X189084000Y-112979159D01*
X187829160Y-114234000D01*
X167049460Y-114234000D01*
X166931015Y-114115555D01*
X166691806Y-113955721D01*
X166426012Y-113845626D01*
X166143847Y-113789500D01*
X165976341Y-113789500D01*
X164016000Y-111829160D01*
X164016000Y-108760909D01*
X165168696Y-108760909D01*
X165243367Y-109007481D01*
X165503228Y-109130931D01*
X165782180Y-109201313D01*
X166069502Y-109215921D01*
X166354154Y-109174194D01*
X166625196Y-109077737D01*
X166756633Y-109007481D01*
X166831304Y-108760909D01*
X166000000Y-107929605D01*
X165168696Y-108760909D01*
X164016000Y-108760909D01*
X164016000Y-107819502D01*
X164534079Y-107819502D01*
X164575806Y-108104154D01*
X164672263Y-108375196D01*
X164742519Y-108506633D01*
X164989091Y-108581304D01*
X165820395Y-107750000D01*
X166179605Y-107750000D01*
X167010909Y-108581304D01*
X167257481Y-108506633D01*
X167380931Y-108246772D01*
X167451313Y-107967820D01*
X167465921Y-107680498D01*
X167424194Y-107395846D01*
X167327737Y-107124804D01*
X167257481Y-106993367D01*
X167010909Y-106918696D01*
X166179605Y-107750000D01*
X165820395Y-107750000D01*
X164989091Y-106918696D01*
X164742519Y-106993367D01*
X164619069Y-107253228D01*
X164548687Y-107532180D01*
X164534079Y-107819502D01*
X164016000Y-107819502D01*
X164016000Y-106739091D01*
X165168696Y-106739091D01*
X166000000Y-107570395D01*
X166831304Y-106739091D01*
X166756633Y-106492519D01*
X166496772Y-106369069D01*
X166217820Y-106298687D01*
X165930498Y-106284079D01*
X165645846Y-106325806D01*
X165374804Y-106422263D01*
X165243367Y-106492519D01*
X165168696Y-106739091D01*
X164016000Y-106739091D01*
X164016000Y-97106153D01*
X164539500Y-97106153D01*
X164539500Y-97393847D01*
X164595626Y-97676012D01*
X164705721Y-97941806D01*
X164865555Y-98181015D01*
X164984000Y-98299460D01*
X164984001Y-102850088D01*
X164979085Y-102900000D01*
X164998702Y-103099170D01*
X165052614Y-103276891D01*
X165056799Y-103290687D01*
X165151141Y-103467190D01*
X165278105Y-103621896D01*
X165316868Y-103653708D01*
X167671292Y-106008133D01*
X167703104Y-106046896D01*
X167857810Y-106173860D01*
X167972832Y-106235340D01*
X168034312Y-106268202D01*
X168225829Y-106326298D01*
X168322243Y-106335794D01*
X168425101Y-106438652D01*
X168425100Y-110407344D01*
X168387885Y-110437885D01*
X168281329Y-110567725D01*
X168202150Y-110715858D01*
X168153392Y-110876592D01*
X168136928Y-111043750D01*
X168136928Y-111556250D01*
X168153392Y-111723408D01*
X168202150Y-111884142D01*
X168281329Y-112032275D01*
X168387885Y-112162115D01*
X168517725Y-112268671D01*
X168665858Y-112347850D01*
X168826592Y-112396608D01*
X168993750Y-112413072D01*
X169431250Y-112413072D01*
X169598408Y-112396608D01*
X169759142Y-112347850D01*
X169907275Y-112268671D01*
X170000000Y-112192574D01*
X170092725Y-112268671D01*
X170240858Y-112347850D01*
X170401592Y-112396608D01*
X170568750Y-112413072D01*
X171006250Y-112413072D01*
X171173408Y-112396608D01*
X171334142Y-112347850D01*
X171482275Y-112268671D01*
X171612115Y-112162115D01*
X171673431Y-112087400D01*
X172326569Y-112087400D01*
X172387885Y-112162115D01*
X172517725Y-112268671D01*
X172665858Y-112347850D01*
X172826592Y-112396608D01*
X172993750Y-112413072D01*
X173431250Y-112413072D01*
X173598408Y-112396608D01*
X173759142Y-112347850D01*
X173907275Y-112268671D01*
X173928930Y-112250900D01*
X173995506Y-112305537D01*
X174105820Y-112364502D01*
X174225518Y-112400812D01*
X174350000Y-112413072D01*
X174501750Y-112410000D01*
X174660500Y-112251250D01*
X174660500Y-111427000D01*
X174914500Y-111427000D01*
X174914500Y-112251250D01*
X175073250Y-112410000D01*
X175225000Y-112413072D01*
X175349482Y-112400812D01*
X175469180Y-112364502D01*
X175579494Y-112305537D01*
X175676185Y-112226185D01*
X175755537Y-112129494D01*
X175814502Y-112019180D01*
X175850812Y-111899482D01*
X175863072Y-111775000D01*
X175860000Y-111585750D01*
X175701250Y-111427000D01*
X174914500Y-111427000D01*
X174660500Y-111427000D01*
X174640500Y-111427000D01*
X174640500Y-111173000D01*
X174660500Y-111173000D01*
X174660500Y-110348750D01*
X174914500Y-110348750D01*
X174914500Y-111173000D01*
X175701250Y-111173000D01*
X175860000Y-111014250D01*
X175863072Y-110825000D01*
X175850812Y-110700518D01*
X175814502Y-110580820D01*
X175755537Y-110470506D01*
X175676185Y-110373815D01*
X175579494Y-110294463D01*
X175469180Y-110235498D01*
X175349482Y-110199188D01*
X175225000Y-110186928D01*
X175073250Y-110190000D01*
X174914500Y-110348750D01*
X174660500Y-110348750D01*
X174501750Y-110190000D01*
X174350000Y-110186928D01*
X174225518Y-110199188D01*
X174105820Y-110235498D01*
X173999900Y-110292114D01*
X173999900Y-110213650D01*
X174378551Y-109835000D01*
X174401939Y-109835000D01*
X174601898Y-109795226D01*
X174790256Y-109717205D01*
X174959774Y-109603937D01*
X175103937Y-109459774D01*
X175217205Y-109290256D01*
X175295226Y-109101898D01*
X175335000Y-108901939D01*
X175335000Y-108698061D01*
X175295226Y-108498102D01*
X175217205Y-108309744D01*
X175103937Y-108140226D01*
X174959774Y-107996063D01*
X174790256Y-107882795D01*
X174601898Y-107804774D01*
X174401939Y-107765000D01*
X174198061Y-107765000D01*
X173998102Y-107804774D01*
X173809744Y-107882795D01*
X173640226Y-107996063D01*
X173496063Y-108140226D01*
X173382795Y-108309744D01*
X173304774Y-108498102D01*
X173265000Y-108698061D01*
X173265000Y-108721449D01*
X172683073Y-109303377D01*
X172653032Y-109328031D01*
X172628379Y-109358071D01*
X172554635Y-109447928D01*
X172481518Y-109584718D01*
X172436495Y-109733143D01*
X172421292Y-109887500D01*
X172425101Y-109926172D01*
X172425101Y-110407343D01*
X172387885Y-110437885D01*
X172326569Y-110512600D01*
X171673431Y-110512600D01*
X171612115Y-110437885D01*
X171482275Y-110331329D01*
X171334142Y-110252150D01*
X171173408Y-110203392D01*
X171006250Y-110186928D01*
X170568750Y-110186928D01*
X170401592Y-110203392D01*
X170240858Y-110252150D01*
X170092725Y-110331329D01*
X170000000Y-110407426D01*
X169999900Y-110407344D01*
X169999900Y-106341000D01*
X171061928Y-106341000D01*
X171061928Y-106575000D01*
X171074188Y-106699482D01*
X171110498Y-106819180D01*
X171169463Y-106929494D01*
X171248815Y-107026185D01*
X171345506Y-107105537D01*
X171455820Y-107164502D01*
X171575518Y-107200812D01*
X171700000Y-107213072D01*
X174700000Y-107213072D01*
X174824482Y-107200812D01*
X174944180Y-107164502D01*
X175054494Y-107105537D01*
X175151185Y-107026185D01*
X175230537Y-106929494D01*
X175289502Y-106819180D01*
X175325812Y-106699482D01*
X175338072Y-106575000D01*
X175338072Y-104075000D01*
X175325812Y-103950518D01*
X175289502Y-103830820D01*
X175230537Y-103720506D01*
X175151185Y-103623815D01*
X175054494Y-103544463D01*
X174944180Y-103485498D01*
X174824482Y-103449188D01*
X174700000Y-103436928D01*
X171700000Y-103436928D01*
X171575518Y-103449188D01*
X171455820Y-103485498D01*
X171345506Y-103544463D01*
X171248815Y-103623815D01*
X171169463Y-103720506D01*
X171110498Y-103830820D01*
X171074188Y-103950518D01*
X171061928Y-104075000D01*
X171061928Y-104309000D01*
X168845841Y-104309000D01*
X167016000Y-102479160D01*
X167016000Y-98299460D01*
X167134445Y-98181015D01*
X167294279Y-97941806D01*
X167404374Y-97676012D01*
X167460500Y-97393847D01*
X167460500Y-97106153D01*
X167404374Y-96823988D01*
X167294279Y-96558194D01*
X167134445Y-96318985D01*
X166931015Y-96115555D01*
X166691806Y-95955721D01*
X166426012Y-95845626D01*
X166143847Y-95789500D01*
X165856153Y-95789500D01*
X165573988Y-95845626D01*
X165308194Y-95955721D01*
X165068985Y-96115555D01*
X164865555Y-96318985D01*
X164705721Y-96558194D01*
X164595626Y-96823988D01*
X164539500Y-97106153D01*
X164016000Y-97106153D01*
X164016000Y-92670840D01*
X165544628Y-91142213D01*
X165573988Y-91154374D01*
X165856153Y-91210500D01*
X166143847Y-91210500D01*
X166426012Y-91154374D01*
X166691806Y-91044279D01*
X166931015Y-90884445D01*
X167134445Y-90681015D01*
X167294279Y-90441806D01*
X167404374Y-90176012D01*
X167460500Y-89893847D01*
X167460500Y-89606153D01*
X167404374Y-89323988D01*
X167294279Y-89058194D01*
X167134445Y-88818985D01*
X166931015Y-88615555D01*
X166691806Y-88455721D01*
X166574477Y-88407122D01*
X166567189Y-88401141D01*
X166390687Y-88306798D01*
X166199170Y-88248702D01*
X166000000Y-88229085D01*
X165800829Y-88248702D01*
X165609313Y-88306798D01*
X165432810Y-88401141D01*
X165425521Y-88407123D01*
X165308194Y-88455721D01*
X165068985Y-88615555D01*
X164865555Y-88818985D01*
X164705721Y-89058194D01*
X164670900Y-89142259D01*
X162316872Y-91496288D01*
X162278104Y-91528104D01*
X162151140Y-91682810D01*
X162056798Y-91859314D01*
X162029540Y-91949171D01*
X161998702Y-92050830D01*
X161979085Y-92250000D01*
X161984000Y-92299902D01*
X161984001Y-112200088D01*
X161979085Y-112250000D01*
X161998702Y-112449170D01*
X162056799Y-112640687D01*
X162151141Y-112817190D01*
X162278105Y-112971896D01*
X162316868Y-113003708D01*
X164539500Y-115226341D01*
X164539500Y-115393847D01*
X164595626Y-115676012D01*
X164705721Y-115941806D01*
X164865555Y-116181015D01*
X165068985Y-116384445D01*
X165308194Y-116544279D01*
X165573988Y-116654374D01*
X165856153Y-116710500D01*
X166143847Y-116710500D01*
X166426012Y-116654374D01*
X166691806Y-116544279D01*
X166931015Y-116384445D01*
X167049460Y-116266000D01*
X186523678Y-116266000D01*
X186499463Y-116295506D01*
X186440498Y-116405820D01*
X186404188Y-116525518D01*
X186391928Y-116650000D01*
X186391928Y-118350000D01*
X186404188Y-118474482D01*
X186440498Y-118594180D01*
X186499463Y-118704494D01*
X186578815Y-118801185D01*
X186675506Y-118880537D01*
X186785820Y-118939502D01*
X186905518Y-118975812D01*
X187030000Y-118988072D01*
X188730000Y-118988072D01*
X188854482Y-118975812D01*
X188974180Y-118939502D01*
X189084494Y-118880537D01*
X189181185Y-118801185D01*
X189260537Y-118704494D01*
X189319502Y-118594180D01*
X189341513Y-118521620D01*
X189473368Y-118653475D01*
X189716589Y-118815990D01*
X189986842Y-118927932D01*
X190273740Y-118985000D01*
X190566260Y-118985000D01*
X190853158Y-118927932D01*
X191123411Y-118815990D01*
X191366632Y-118653475D01*
X191573475Y-118446632D01*
X191690000Y-118272240D01*
X191806525Y-118446632D01*
X192013368Y-118653475D01*
X192256589Y-118815990D01*
X192526842Y-118927932D01*
X192813740Y-118985000D01*
X193106260Y-118985000D01*
X193355897Y-118935344D01*
X195014746Y-120594193D01*
X195037762Y-120622238D01*
X195149680Y-120714087D01*
X195277367Y-120782337D01*
X195415915Y-120824365D01*
X195523895Y-120835000D01*
X195523904Y-120835000D01*
X195559999Y-120838555D01*
X195596094Y-120835000D01*
X197963895Y-120835000D01*
X198000000Y-120838556D01*
X198036105Y-120835000D01*
X198144085Y-120824365D01*
X198282633Y-120782337D01*
X198410320Y-120714087D01*
X198522238Y-120622238D01*
X198545258Y-120594188D01*
X199865000Y-119274447D01*
X199865000Y-119308771D01*
X199985476Y-119914446D01*
X200221799Y-120484979D01*
X200564886Y-120998446D01*
X201001554Y-121435114D01*
X201515021Y-121778201D01*
X202085554Y-122014524D01*
X202691229Y-122135000D01*
X203282767Y-122135000D01*
X202628543Y-122292065D01*
X201975793Y-122340000D01*
X135029392Y-122340000D01*
X134231917Y-122268827D01*
X133488110Y-122065344D01*
X132792096Y-121733363D01*
X132165870Y-121283374D01*
X131629223Y-120729597D01*
X131199129Y-120089549D01*
X130889171Y-119383447D01*
X130722985Y-118691229D01*
X159865000Y-118691229D01*
X159865000Y-119308771D01*
X159985476Y-119914446D01*
X160221799Y-120484979D01*
X160564886Y-120998446D01*
X161001554Y-121435114D01*
X161515021Y-121778201D01*
X162085554Y-122014524D01*
X162691229Y-122135000D01*
X163308771Y-122135000D01*
X163914446Y-122014524D01*
X164484979Y-121778201D01*
X164998446Y-121435114D01*
X165435114Y-120998446D01*
X165778201Y-120484979D01*
X166014524Y-119914446D01*
X166135000Y-119308771D01*
X166135000Y-118691229D01*
X166014524Y-118085554D01*
X165778201Y-117515021D01*
X165435114Y-117001554D01*
X164998446Y-116564886D01*
X164484979Y-116221799D01*
X163914446Y-115985476D01*
X163308771Y-115865000D01*
X162691229Y-115865000D01*
X162085554Y-115985476D01*
X161515021Y-116221799D01*
X161001554Y-116564886D01*
X160564886Y-117001554D01*
X160221799Y-117515021D01*
X159985476Y-118085554D01*
X159865000Y-118691229D01*
X130722985Y-118691229D01*
X130707935Y-118628543D01*
X130660000Y-117975793D01*
X130660000Y-87029392D01*
X130731173Y-86231917D01*
X130879088Y-85691229D01*
X159865000Y-85691229D01*
X159865000Y-86308771D01*
X159985476Y-86914446D01*
X160221799Y-87484979D01*
X160564886Y-87998446D01*
X161001554Y-88435114D01*
X161515021Y-88778201D01*
X162085554Y-89014524D01*
X162691229Y-89135000D01*
X163308771Y-89135000D01*
X163914446Y-89014524D01*
X164484979Y-88778201D01*
X164998446Y-88435114D01*
X165435114Y-87998446D01*
X165778201Y-87484979D01*
X166014524Y-86914446D01*
X166135000Y-86308771D01*
X166135000Y-85691229D01*
X166014524Y-85085554D01*
X165778201Y-84515021D01*
X165435114Y-84001554D01*
X164998446Y-83564886D01*
X164484979Y-83221799D01*
X163914446Y-82985476D01*
X163308771Y-82865000D01*
X162691229Y-82865000D01*
X162085554Y-82985476D01*
X161515021Y-83221799D01*
X161001554Y-83564886D01*
X160564886Y-84001554D01*
X160221799Y-84515021D01*
X159985476Y-85085554D01*
X159865000Y-85691229D01*
X130879088Y-85691229D01*
X130934656Y-85488109D01*
X131266638Y-84792095D01*
X131716626Y-84165870D01*
X132270403Y-83629223D01*
X132910451Y-83199129D01*
X133616553Y-82889171D01*
X134371457Y-82707935D01*
X135024207Y-82660000D01*
X201970608Y-82660000D01*
X202768083Y-82731173D01*
G36*
X183855099Y-105531349D02*
G01*
X181570578Y-107815872D01*
X181540531Y-107840531D01*
X181442134Y-107960429D01*
X181369018Y-108097218D01*
X181323994Y-108245644D01*
X181322450Y-108261316D01*
X181181613Y-108336595D01*
X181047038Y-108447038D01*
X180936595Y-108581613D01*
X180854528Y-108735149D01*
X180803992Y-108901745D01*
X180786928Y-109074999D01*
X180786928Y-109484000D01*
X180720841Y-109484000D01*
X180317404Y-109080563D01*
X180442889Y-109028586D01*
X180596028Y-108926262D01*
X180726262Y-108796028D01*
X180828586Y-108642889D01*
X180899068Y-108472729D01*
X180931932Y-108307515D01*
X181392664Y-107846783D01*
X181422572Y-107822238D01*
X181445593Y-107794188D01*
X183694193Y-105545588D01*
X183707094Y-105535000D01*
X183827002Y-105535000D01*
X183827002Y-105503252D01*
X183855099Y-105531349D01*
G37*
X183855099Y-105531349D02*
X181570578Y-107815872D01*
X181540531Y-107840531D01*
X181442134Y-107960429D01*
X181369018Y-108097218D01*
X181323994Y-108245644D01*
X181322450Y-108261316D01*
X181181613Y-108336595D01*
X181047038Y-108447038D01*
X180936595Y-108581613D01*
X180854528Y-108735149D01*
X180803992Y-108901745D01*
X180786928Y-109074999D01*
X180786928Y-109484000D01*
X180720841Y-109484000D01*
X180317404Y-109080563D01*
X180442889Y-109028586D01*
X180596028Y-108926262D01*
X180726262Y-108796028D01*
X180828586Y-108642889D01*
X180899068Y-108472729D01*
X180931932Y-108307515D01*
X181392664Y-107846783D01*
X181422572Y-107822238D01*
X181445593Y-107794188D01*
X183694193Y-105545588D01*
X183707094Y-105535000D01*
X183827002Y-105535000D01*
X183827002Y-105503252D01*
X183855099Y-105531349D01*
G36*
X183827000Y-102373000D02*
G01*
X183847000Y-102373000D01*
X183847000Y-102627000D01*
X183827000Y-102627000D01*
X183827000Y-102647000D01*
X183573000Y-102647000D01*
X183573000Y-102627000D01*
X183553000Y-102627000D01*
X183553000Y-102373000D01*
X183573000Y-102373000D01*
X183573000Y-102353000D01*
X183827000Y-102353000D01*
X183827000Y-102373000D01*
G37*
X183827000Y-102373000D02*
X183847000Y-102373000D01*
X183847000Y-102627000D01*
X183827000Y-102627000D01*
X183827000Y-102647000D01*
X183573000Y-102647000D01*
X183573000Y-102627000D01*
X183553000Y-102627000D01*
X183553000Y-102373000D01*
X183573000Y-102373000D01*
X183573000Y-102353000D01*
X183827000Y-102353000D01*
X183827000Y-102373000D01*
G36*
X185865000Y-93201939D02*
G01*
X185904774Y-93401898D01*
X185950635Y-93512615D01*
X185914500Y-93548750D01*
X185914500Y-94373000D01*
X185934500Y-94373000D01*
X185934500Y-94627000D01*
X185914500Y-94627000D01*
X185914500Y-94647000D01*
X185660500Y-94647000D01*
X185660500Y-94627000D01*
X185640500Y-94627000D01*
X185640500Y-94373000D01*
X185660500Y-94373000D01*
X185660500Y-93548750D01*
X185501750Y-93390000D01*
X185350000Y-93386928D01*
X185225518Y-93399188D01*
X185105820Y-93435498D01*
X184995506Y-93494463D01*
X184928930Y-93549100D01*
X184907275Y-93531329D01*
X184759142Y-93452150D01*
X184598408Y-93403392D01*
X184431250Y-93386928D01*
X183993750Y-93386928D01*
X183826592Y-93403392D01*
X183665858Y-93452150D01*
X183517725Y-93531329D01*
X183387885Y-93637885D01*
X183281329Y-93767725D01*
X183202150Y-93915858D01*
X183153392Y-94076592D01*
X183136928Y-94243750D01*
X183136928Y-94462021D01*
X183016000Y-94582949D01*
X183016000Y-93420840D01*
X183420841Y-93016000D01*
X185865000Y-93016000D01*
X185865000Y-93201939D01*
G37*
X185865000Y-93201939D02*
X185904774Y-93401898D01*
X185950635Y-93512615D01*
X185914500Y-93548750D01*
X185914500Y-94373000D01*
X185934500Y-94373000D01*
X185934500Y-94627000D01*
X185914500Y-94627000D01*
X185914500Y-94647000D01*
X185660500Y-94647000D01*
X185660500Y-94627000D01*
X185640500Y-94627000D01*
X185640500Y-94373000D01*
X185660500Y-94373000D01*
X185660500Y-93548750D01*
X185501750Y-93390000D01*
X185350000Y-93386928D01*
X185225518Y-93399188D01*
X185105820Y-93435498D01*
X184995506Y-93494463D01*
X184928930Y-93549100D01*
X184907275Y-93531329D01*
X184759142Y-93452150D01*
X184598408Y-93403392D01*
X184431250Y-93386928D01*
X183993750Y-93386928D01*
X183826592Y-93403392D01*
X183665858Y-93452150D01*
X183517725Y-93531329D01*
X183387885Y-93637885D01*
X183281329Y-93767725D01*
X183202150Y-93915858D01*
X183153392Y-94076592D01*
X183136928Y-94243750D01*
X183136928Y-94462021D01*
X183016000Y-94582949D01*
X183016000Y-93420840D01*
X183420841Y-93016000D01*
X185865000Y-93016000D01*
X185865000Y-93201939D01*
%TD*%
M02*
